<svg width="24" height="25" viewBox="0 0 24 25" fill="none" xmlns="http://www.w3.org/2000/svg">
<g id="asicon/outline/sms-tracking">
<g id="vuesax/outline/sms-tracking">
<g id="sms-tracking">
<path id="Vector" d="M17 21.75H7C6.59 21.75 6.25 21.41 6.25 21C6.25 20.59 6.59 20.25 7 20.25H17C19.86 20.25 21.25 18.86 21.25 16V9C21.25 6.14 19.86 4.75 17 4.75H7C4.14 4.75 2.75 6.14 2.75 9C2.75 9.41 2.41 9.75 2 9.75C1.59 9.75 1.25 9.41 1.25 9C1.25 5.35 3.35 3.25 7 3.25H17C20.65 3.25 22.75 5.35 22.75 9V16C22.75 19.65 20.65 21.75 17 21.75Z" fill="#292D32"/>
<path id="Vector_2" d="M11.9998 13.37C11.1598 13.37 10.3098 13.11 9.65978 12.58L6.52978 10.08C6.20978 9.81997 6.14978 9.34997 6.40978 9.02997C6.66978 8.70997 7.13977 8.64997 7.45977 8.90997L10.5898 11.41C11.3498 12.02 12.6398 12.02 13.3998 11.41L16.5298 8.90997C16.8498 8.64997 17.3298 8.69997 17.5798 9.02997C17.8398 9.34997 17.7898 9.82997 17.4598 10.08L14.3298 12.58C13.6898 13.11 12.8398 13.37 11.9998 13.37Z" fill="#292D32"/>
<path id="Vector_3" d="M8 17.75H2C1.59 17.75 1.25 17.41 1.25 17C1.25 16.59 1.59 16.25 2 16.25H8C8.41 16.25 8.75 16.59 8.75 17C8.75 17.41 8.41 17.75 8 17.75Z" fill="#292D32"/>
<path id="Vector_4" d="M5 13.75H2C1.59 13.75 1.25 13.41 1.25 13C1.25 12.59 1.59 12.25 2 12.25H5C5.41 12.25 5.75 12.59 5.75 13C5.75 13.41 5.41 13.75 5 13.75Z" fill="#292D32"/>
</g>
</g>
</g>
</svg>
