<svg width="24" height="25" viewBox="0 0 24 25" fill="none" xmlns="http://www.w3.org/2000/svg">
<g id="asicon/outline/note-add">
<g id="vuesax/outline/note-add">
<g id="note-add">
<path id="Vector" d="M9.56006 19.25C9.15006 19.25 8.81006 18.91 8.81006 18.5V13.5C8.81006 13.09 9.15006 12.75 9.56006 12.75C9.97006 12.75 10.3101 13.09 10.3101 13.5V18.5C10.3101 18.91 9.97006 19.25 9.56006 19.25Z" fill="#292D32"/>
<path id="Vector_2" d="M12 16.75H7C6.59 16.75 6.25 16.41 6.25 16C6.25 15.59 6.59 15.25 7 15.25H12C12.41 15.25 12.75 15.59 12.75 16C12.75 16.41 12.41 16.75 12 16.75Z" fill="#292D32"/>
<path id="Vector_3" d="M8 6.25C7.59 6.25 7.25 5.91 7.25 5.5V2.5C7.25 2.09 7.59 1.75 8 1.75C8.41 1.75 8.75 2.09 8.75 2.5V5.5C8.75 5.91 8.41 6.25 8 6.25Z" fill="#292D32"/>
<path id="Vector_4" d="M16 6.25C15.59 6.25 15.25 5.91 15.25 5.5V2.5C15.25 2.09 15.59 1.75 16 1.75C16.41 1.75 16.75 2.09 16.75 2.5V5.5C16.75 5.91 16.41 6.25 16 6.25Z" fill="#292D32"/>
<path id="Vector_5" d="M8.85002 23.3099C6.38002 23.3099 4.75002 22.7699 3.73002 21.6099C2.55002 20.2799 2.36001 18.2899 2.32001 16.5199L2.19002 10.3499C2.09002 5.61993 3.66002 3.64993 7.76002 3.33993L15.8 3.17993C15.82 3.17993 15.83 3.17993 15.84 3.17993C19.95 3.31993 21.59 5.21993 21.69 9.95993L21.81 16.1299C21.85 17.8999 21.73 19.8999 20.61 21.2699C19.59 22.5199 17.87 23.1299 15.2 23.1899L9.20001 23.3099C9.08001 23.3099 8.96002 23.3099 8.85002 23.3099ZM15.8 4.66993L7.83001 4.82993C5.03001 5.04993 3.60002 5.94993 3.69002 10.3199L3.82001 16.4899C3.86001 18.6099 4.17001 19.8499 4.85001 20.6199C5.61001 21.4799 6.98001 21.8599 9.18002 21.8099L15.18 21.6899C17.37 21.6499 18.73 21.2099 19.46 20.3199C20.11 19.5299 20.37 18.2799 20.32 16.1599L20.2 9.98993C20.1 5.62993 18.64 4.76993 15.8 4.66993Z" fill="#292D32"/>
</g>
</g>
</g>
</svg>
