<svg width="146" height="49" viewBox="0 0 146 49" fill="none" xmlns="http://www.w3.org/2000/svg">
<g clip-path="url(#clip0_62_12600)">
<path d="M10.3034 47.515C9.93166 47.515 9.56891 47.5103 9.20009 47.5021C8.43605 47.4923 7.6738 47.4269 6.91958 47.3064C6.21632 47.1873 5.53504 46.9657 4.89823 46.6489C4.26725 46.3348 3.69175 45.9229 3.19377 45.429C2.68858 44.9409 2.26799 44.3748 1.94867 43.7532C1.62582 43.1275 1.40239 42.4568 1.28616 41.7646C1.16064 41.0207 1.09273 40.2685 1.08302 39.5146C1.07528 39.2615 1.06516 38.4188 1.06516 38.4188V10.6982C1.06516 10.6982 1.07594 9.86848 1.08308 9.62472C1.09238 8.87194 1.1599 8.12094 1.28504 7.37824C1.40148 6.68406 1.62508 6.01146 1.9481 5.38372C2.26626 4.76249 2.68451 4.19599 3.18666 3.70618C3.68824 3.21171 4.26558 2.79768 4.89763 2.47921C5.53298 2.16347 6.21297 1.94344 6.91481 1.82648C7.67151 1.70476 8.4364 1.63896 9.20309 1.62961L10.304 1.61496H135.69L136.804 1.6302C137.564 1.63908 138.322 1.7043 139.072 1.82531C139.78 1.94373 140.468 2.1653 141.11 2.48273C142.376 3.12454 143.407 4.13996 144.057 5.38664C144.375 6.01005 144.595 6.67717 144.71 7.36535C144.836 8.11415 144.907 8.87105 144.922 9.63C144.925 9.96984 144.925 10.3349 144.925 10.6982C144.935 11.1482 144.935 11.5765 144.935 12.0083V37.1227C144.935 37.5587 144.935 37.9841 144.925 38.413C144.925 38.8032 144.925 39.1607 144.92 39.5286C144.906 40.274 144.837 41.0174 144.712 41.7528C144.598 42.4501 144.376 43.126 144.053 43.7568C143.732 44.3717 143.313 44.9329 142.814 45.4196C142.316 45.9162 141.739 46.3305 141.107 46.6466C140.466 46.9658 139.78 47.1882 139.072 47.3064C138.317 47.4275 137.555 47.493 136.791 47.5021C136.434 47.5103 136.059 47.515 135.696 47.515L134.373 47.5174L10.3034 47.515Z" fill="#212329"/>
<path d="M42.3306 30.7415H37.5972L36.4604 34.098H34.4556L38.939 21.68H41.022L45.5054 34.098H43.4663L42.3306 30.7415ZM38.0874 29.1927H41.8394L39.9898 23.7454H39.938L38.0874 29.1927Z" fill="white"/>
<path d="M55.188 29.5716C55.188 32.3851 53.6821 34.1927 51.4097 34.1927C50.834 34.2228 50.2615 34.0902 49.7577 33.8101C49.2539 33.5299 48.8392 33.1136 48.561 32.6087H48.518V37.0931H46.6596V25.0442H48.4585V26.5501H48.4927C48.7836 26.0476 49.2054 25.6334 49.713 25.3516C50.2206 25.0698 50.7952 24.9308 51.3755 24.9495C53.6733 24.9495 55.188 26.7659 55.188 29.5716ZM53.2778 29.5716C53.2778 27.7386 52.3306 26.5335 50.8852 26.5335C49.4653 26.5335 48.5102 27.764 48.5102 29.5716C48.5102 31.3958 49.4653 32.6175 50.8852 32.6175C52.3306 32.6175 53.2778 31.4212 53.2778 29.5716Z" fill="white"/>
<path d="M65.1528 29.5716C65.1528 32.3851 63.647 34.1927 61.3745 34.1927C60.7989 34.2228 60.2264 34.0902 59.7226 33.81C59.2188 33.5299 58.804 33.1136 58.5259 32.6087H58.4829V37.0931H56.6245V25.0442H58.4233V26.5501H58.4575C58.7484 26.0476 59.1702 25.6334 59.6778 25.3516C60.1854 25.0698 60.76 24.9308 61.3403 24.9495C63.6382 24.9495 65.1528 26.7659 65.1528 29.5716ZM63.2427 29.5716C63.2427 27.7386 62.2954 26.5335 60.8501 26.5335C59.4302 26.5335 58.4751 27.764 58.4751 29.5716C58.4751 31.3958 59.4302 32.6175 60.8501 32.6175C62.2954 32.6175 63.2427 31.4212 63.2427 29.5716H63.2427Z" fill="white"/>
<path d="M71.7388 30.638C71.8765 31.8694 73.0728 32.678 74.7075 32.678C76.2739 32.678 77.4009 31.8694 77.4009 30.759C77.4009 29.7952 76.7212 29.218 75.1118 28.8225L73.5024 28.4348C71.2222 27.884 70.1636 26.8176 70.1636 25.0872C70.1636 22.9446 72.0308 21.4729 74.6821 21.4729C77.3061 21.4729 79.105 22.9446 79.1655 25.0872H77.2895C77.1772 23.8479 76.1528 23.0999 74.6557 23.0999C73.1587 23.0999 72.1343 23.8567 72.1343 24.9583C72.1343 25.8362 72.7886 26.3528 74.3891 26.7483L75.7573 27.0842C78.3051 27.6867 79.3637 28.7102 79.3637 30.5266C79.3637 32.8498 77.5132 34.3049 74.5698 34.3049C71.8159 34.3049 69.9565 32.884 69.8364 30.6379L71.7388 30.638Z" fill="white"/>
<path d="M83.3745 22.9017V25.0443H85.0962V26.5159H83.3745V31.5071C83.3745 32.2825 83.7192 32.6439 84.4761 32.6439C84.6805 32.6403 84.8845 32.6259 85.0874 32.6009V34.0638C84.7471 34.1273 84.4013 34.1561 84.0552 34.1497C82.2222 34.1497 81.5073 33.4612 81.5073 31.7054V26.5159H80.1909V25.0443H81.5073V22.9017H83.3745Z" fill="white"/>
<path d="M86.0933 29.5716C86.0933 26.723 87.771 24.9329 90.3873 24.9329C93.0123 24.9329 94.6822 26.7229 94.6822 29.5716C94.6822 32.428 93.0211 34.2103 90.3873 34.2103C87.7544 34.2103 86.0933 32.428 86.0933 29.5716ZM92.7886 29.5716C92.7886 27.6175 91.8931 26.4642 90.3873 26.4642C88.8814 26.4642 87.9869 27.6263 87.9869 29.5716C87.9869 31.5335 88.8814 32.678 90.3873 32.678C91.8931 32.678 92.7886 31.5335 92.7886 29.5716H92.7886Z" fill="white"/>
<path d="M96.2144 25.0443H97.9868V26.5853H98.0298C98.1497 26.104 98.4317 25.6786 98.8283 25.3807C99.2249 25.0829 99.7119 24.9306 100.208 24.9495C100.422 24.9488 100.635 24.972 100.844 25.0189V26.7571C100.574 26.6745 100.292 26.6366 100.009 26.6448C99.7393 26.6339 99.4702 26.6815 99.2203 26.7844C98.9705 26.8873 98.7458 27.043 98.5619 27.2409C98.3779 27.4388 98.2389 27.6741 98.1545 27.9308C98.0701 28.1875 98.0422 28.4594 98.0728 28.7278V34.098H96.2144L96.2144 25.0443Z" fill="white"/>
<path d="M109.413 31.4388C109.163 33.0823 107.562 34.2103 105.514 34.2103C102.88 34.2103 101.246 32.4456 101.246 29.6146C101.246 26.7747 102.889 24.9329 105.436 24.9329C107.941 24.9329 109.516 26.6536 109.516 29.3987V30.0355H103.122V30.1478C103.092 30.481 103.134 30.8166 103.244 31.1325C103.354 31.4483 103.53 31.7371 103.761 31.9796C103.991 32.2222 104.27 32.413 104.58 32.5393C104.89 32.6656 105.223 32.7245 105.557 32.7122C105.996 32.7534 106.437 32.6516 106.814 32.4222C107.19 32.1928 107.483 31.8479 107.648 31.4388L109.413 31.4388ZM103.13 28.7366H107.657C107.673 28.437 107.628 28.1372 107.523 27.856C107.419 27.5748 107.257 27.3183 107.048 27.1025C106.84 26.8867 106.589 26.7164 106.312 26.6022C106.034 26.488 105.736 26.4323 105.436 26.4388C105.133 26.437 104.833 26.4951 104.553 26.6099C104.273 26.7246 104.019 26.8937 103.804 27.1073C103.59 27.3209 103.42 27.5749 103.304 27.8546C103.189 28.1342 103.13 28.434 103.13 28.7366V28.7366Z" fill="white"/>
<path d="M37.8545 12.3328C38.2441 12.3049 38.6351 12.3637 38.9992 12.5052C39.3633 12.6466 39.6915 12.8671 39.9601 13.1507C40.2286 13.4343 40.4309 13.774 40.5523 14.1453C40.6737 14.5166 40.7112 14.9101 40.6621 15.2977C40.6621 17.2039 39.6318 18.2997 37.8545 18.2997H35.6992V12.3328H37.8545ZM36.626 17.4558H37.751C38.0294 17.4725 38.308 17.4268 38.5665 17.3222C38.8251 17.2176 39.057 17.0566 39.2455 16.8511C39.434 16.6455 39.5743 16.4005 39.6562 16.1339C39.738 15.8673 39.7594 15.5857 39.7187 15.3098C39.7564 15.035 39.7329 14.7552 39.6498 14.4906C39.5667 14.2259 39.426 13.9829 39.238 13.779C39.0499 13.575 38.8191 13.4152 38.562 13.311C38.3049 13.2067 38.028 13.1607 37.751 13.176H36.626V17.4558Z" fill="white"/>
<path d="M41.709 16.0462C41.6807 15.7502 41.7145 15.4517 41.8084 15.1696C41.9022 14.8875 42.054 14.6282 42.2539 14.4082C42.4539 14.1882 42.6976 14.0125 42.9694 13.8922C43.2413 13.7719 43.5353 13.7098 43.8325 13.7098C44.1298 13.7098 44.4238 13.7719 44.6956 13.8922C44.9675 14.0125 45.2112 14.1882 45.4111 14.4082C45.6111 14.6282 45.7628 14.8875 45.8567 15.1696C45.9505 15.4517 45.9844 15.7502 45.9561 16.0462C45.9849 16.3424 45.9515 16.6414 45.8579 16.9239C45.7643 17.2064 45.6126 17.4662 45.4126 17.6866C45.2126 17.9071 44.9687 18.0832 44.6966 18.2037C44.4245 18.3243 44.1301 18.3865 43.8325 18.3865C43.5349 18.3865 43.2406 18.3243 42.9684 18.2037C42.6963 18.0832 42.4524 17.9071 42.2524 17.6866C42.0524 17.4662 41.9008 17.2064 41.8072 16.9239C41.7136 16.6414 41.6801 16.3424 41.709 16.0462V16.0462ZM45.042 16.0462C45.042 15.0701 44.6035 14.4993 43.834 14.4993C43.0615 14.4993 42.627 15.0701 42.627 16.0462C42.627 17.0301 43.0616 17.5965 43.834 17.5965C44.6035 17.5964 45.042 17.0261 45.042 16.0462H45.042Z" fill="white"/>
<path d="M51.6016 18.2996H50.6797L49.749 14.9832H49.6787L48.752 18.2996H47.8389L46.5977 13.7966H47.499L48.3057 17.2326H48.3721L49.2979 13.7966H50.1504L51.0762 17.2326H51.1465L51.9492 13.7966H52.8379L51.6016 18.2996Z" fill="white"/>
<path d="M53.8818 13.7966H54.7373V14.512H54.8037C54.9164 14.2551 55.1064 14.0397 55.3472 13.8959C55.5881 13.7521 55.8679 13.687 56.1475 13.7097C56.3666 13.6933 56.5866 13.7263 56.7912 13.8064C56.9958 13.8865 57.1797 14.0116 57.3294 14.1724C57.4791 14.3333 57.5907 14.5257 57.6559 14.7356C57.7211 14.9454 57.7382 15.1672 57.7061 15.3845V18.2995H56.8174V15.6077C56.8174 14.8841 56.5029 14.5242 55.8457 14.5242C55.6969 14.5173 55.5484 14.5426 55.4104 14.5984C55.2723 14.6542 55.148 14.7393 55.0459 14.8476C54.9437 14.956 54.8663 15.0852 54.8187 15.2263C54.7712 15.3675 54.7547 15.5172 54.7705 15.6653V18.2996H53.8818L53.8818 13.7966Z" fill="white"/>
<path d="M59.1221 12.0388H60.0107V18.2996H59.1221V12.0388Z" fill="white"/>
<path d="M61.2461 16.0461C61.2178 15.7502 61.2517 15.4516 61.3455 15.1695C61.4394 14.8875 61.5912 14.6281 61.7911 14.4081C61.9911 14.1881 62.2348 14.0124 62.5067 13.8921C62.7786 13.7718 63.0726 13.7097 63.3699 13.7097C63.6671 13.7097 63.9612 13.7718 64.233 13.8921C64.5049 14.0124 64.7486 14.1881 64.9486 14.4081C65.1485 14.6281 65.3003 14.8875 65.3942 15.1695C65.488 15.4516 65.5219 15.7502 65.4936 16.0461C65.5224 16.3424 65.489 16.6414 65.3953 16.9239C65.3017 17.2064 65.15 17.4662 64.95 17.6866C64.75 17.907 64.5061 18.0832 64.234 18.2037C63.9618 18.3242 63.6675 18.3865 63.3699 18.3865C63.0722 18.3865 62.7779 18.3242 62.5057 18.2037C62.2336 18.0832 61.9897 17.907 61.7897 17.6866C61.5897 17.4662 61.438 17.2064 61.3444 16.9239C61.2507 16.6414 61.2173 16.3424 61.2461 16.0461V16.0461ZM64.5791 16.0461C64.5791 15.0701 64.1406 14.4993 63.3711 14.4993C62.5986 14.4993 62.1641 15.0701 62.1641 16.0462C62.1641 17.03 62.5986 17.5964 63.3711 17.5964C64.1406 17.5964 64.5791 17.0261 64.5791 16.0461H64.5791Z" fill="white"/>
<path d="M66.4292 17.0261C66.4292 16.2156 67.0327 15.7483 68.104 15.6819L69.3237 15.6116V15.2229C69.3237 14.7473 69.0093 14.4788 68.4019 14.4788C67.9058 14.4788 67.562 14.6609 67.4634 14.9793H66.603C66.6938 14.2058 67.4214 13.7097 68.4429 13.7097C69.5718 13.7097 70.2085 14.2717 70.2085 15.2229V18.2996H69.353V17.6668H69.2827C69.14 17.8938 68.9396 18.0788 68.702 18.203C68.4643 18.3272 68.198 18.3862 67.9302 18.3738C67.7411 18.3934 67.5501 18.3733 67.3693 18.3146C67.1886 18.2559 67.0221 18.1599 66.8807 18.033C66.7393 17.906 66.626 17.7508 66.5483 17.5774C66.4705 17.404 66.4299 17.2162 66.4292 17.0261V17.0261ZM69.3237 16.6414V16.2649L68.2241 16.3352C67.604 16.3767 67.3227 16.5877 67.3227 16.9846C67.3227 17.3899 67.6743 17.6257 68.1577 17.6257C68.2994 17.6401 68.4425 17.6258 68.5785 17.5837C68.7145 17.5416 68.8406 17.4726 68.9494 17.3807C69.0582 17.2889 69.1474 17.1761 69.2117 17.0491C69.276 16.9221 69.3141 16.7834 69.3237 16.6414V16.6414Z" fill="white"/>
<path d="M71.3765 16.0462C71.3765 14.6233 72.1079 13.7219 73.2456 13.7219C73.527 13.709 73.8063 13.7764 74.0508 13.9163C74.2954 14.0562 74.495 14.2628 74.6265 14.5119H74.6929V12.0388H75.5815V18.2996H74.73V17.5881H74.6597C74.5181 17.8356 74.3115 18.0397 74.0622 18.1781C73.813 18.3166 73.5306 18.3843 73.2456 18.3738C72.1001 18.3738 71.3765 17.4724 71.3765 16.0462ZM72.2945 16.0462C72.2945 17.0012 72.7447 17.5759 73.4976 17.5759C74.2466 17.5759 74.7095 16.9929 74.7095 16.0501C74.7095 15.1116 74.2417 14.5203 73.4976 14.5203C72.7495 14.5203 72.2944 15.0989 72.2944 16.0462H72.2945Z" fill="white"/>
<path d="M79.2583 16.0462C79.23 15.7502 79.2638 15.4517 79.3577 15.1696C79.4515 14.8875 79.6033 14.6282 79.8032 14.4082C80.0032 14.1882 80.2469 14.0125 80.5187 13.8922C80.7906 13.7719 81.0846 13.7098 81.3818 13.7098C81.6791 13.7098 81.9731 13.7719 82.2449 13.8922C82.5168 14.0125 82.7605 14.1882 82.9604 14.4082C83.1604 14.6282 83.3121 14.8875 83.406 15.1696C83.4998 15.4517 83.5337 15.7502 83.5054 16.0462C83.5342 16.3424 83.5008 16.6414 83.4072 16.9239C83.3136 17.2064 83.1619 17.4662 82.9619 17.6866C82.7619 17.9071 82.518 18.0832 82.2459 18.2037C81.9738 18.3243 81.6795 18.3865 81.3818 18.3865C81.0842 18.3865 80.7899 18.3243 80.5178 18.2037C80.2456 18.0832 80.0017 17.9071 79.8017 17.6866C79.6018 17.4662 79.4501 17.2064 79.3565 16.9239C79.2629 16.6414 79.2295 16.3424 79.2583 16.0462V16.0462ZM82.5913 16.0462C82.5913 15.0701 82.1528 14.4993 81.3833 14.4993C80.6108 14.4993 80.1763 15.0701 80.1763 16.0462C80.1763 17.0301 80.6109 17.5965 81.3833 17.5965C82.1528 17.5964 82.5913 17.0261 82.5913 16.0462Z" fill="white"/>
<path d="M84.6978 13.7966H85.5532V14.512H85.6196C85.7323 14.2551 85.9223 14.0397 86.1632 13.8959C86.404 13.7521 86.6838 13.687 86.9634 13.7097C87.1825 13.6933 87.4025 13.7263 87.6071 13.8064C87.8117 13.8865 87.9956 14.0116 88.1453 14.1724C88.295 14.3333 88.4066 14.5257 88.4718 14.7356C88.537 14.9454 88.5541 15.1672 88.522 15.3845V18.2995H87.6333V15.6077C87.6333 14.8841 87.3189 14.5242 86.6616 14.5242C86.5129 14.5173 86.3644 14.5426 86.2263 14.5984C86.0883 14.6542 85.9639 14.7393 85.8618 14.8476C85.7597 14.956 85.6822 15.0852 85.6346 15.2263C85.5871 15.3675 85.5707 15.5172 85.5864 15.6653V18.2996H84.6978V13.7966Z" fill="white"/>
<path d="M93.5435 12.6755V13.8171H94.5191V14.5657H93.5435V16.8811C93.5435 17.3528 93.7378 17.5593 94.1802 17.5593C94.2934 17.559 94.4066 17.5521 94.5191 17.5388V18.279C94.3595 18.3076 94.1978 18.3228 94.0356 18.3245C93.0474 18.3245 92.6538 17.9768 92.6538 17.1086V14.5656H91.939V13.8171H92.6538V12.6755H93.5435Z" fill="white"/>
<path d="M95.7329 12.0388H96.6138V14.5203H96.6841C96.8022 14.2609 96.9974 14.0444 97.2431 13.9C97.4888 13.7557 97.773 13.6906 98.0571 13.7136C98.275 13.7018 98.4929 13.7382 98.6952 13.8202C98.8975 13.9022 99.0792 14.0279 99.2273 14.1883C99.3754 14.3486 99.4863 14.5396 99.5521 14.7478C99.6179 14.9559 99.6369 15.176 99.6079 15.3923V18.2996H98.7183V15.6116C98.7183 14.8923 98.3833 14.5281 97.7554 14.5281C97.6027 14.5155 97.449 14.5365 97.3053 14.5896C97.1615 14.6426 97.031 14.7265 96.923 14.8352C96.815 14.9439 96.7321 15.075 96.6801 15.2191C96.628 15.3632 96.608 15.517 96.6216 15.6697V18.2995H95.7329L95.7329 12.0388Z" fill="white"/>
<path d="M104.79 17.0838C104.669 17.4953 104.407 17.8513 104.05 18.0894C103.694 18.3276 103.265 18.4327 102.838 18.3865C102.542 18.3943 102.247 18.3375 101.974 18.22C101.702 18.1024 101.458 17.927 101.26 17.7059C101.062 17.4847 100.915 17.2232 100.828 16.9394C100.742 16.6555 100.718 16.3563 100.758 16.0623C100.719 15.7674 100.743 15.4675 100.83 15.1828C100.916 14.8981 101.063 14.6353 101.26 14.4123C101.456 14.1892 101.699 14.011 101.971 13.8898C102.242 13.7686 102.537 13.7072 102.834 13.7097C104.087 13.7097 104.843 14.5657 104.843 15.9797V16.2898H101.664V16.3396C101.65 16.5049 101.67 16.6712 101.725 16.8279C101.779 16.9847 101.865 17.1284 101.978 17.2499C102.091 17.3713 102.228 17.4678 102.38 17.5332C102.533 17.5986 102.697 17.6315 102.863 17.6296C103.075 17.6551 103.291 17.6169 103.481 17.5197C103.672 17.4224 103.83 17.2707 103.934 17.0837L104.79 17.0838ZM101.664 15.6326H103.938C103.949 15.4815 103.929 15.3297 103.878 15.1869C103.827 15.0442 103.746 14.9137 103.642 14.8039C103.538 14.694 103.411 14.6072 103.272 14.549C103.132 14.4909 102.981 14.4626 102.83 14.4661C102.676 14.4641 102.523 14.493 102.381 14.551C102.239 14.6089 102.109 14.6948 102.001 14.8035C101.892 14.9122 101.806 15.0416 101.748 15.1839C101.69 15.3263 101.662 15.4789 101.664 15.6326H101.664Z" fill="white"/>
<path d="M24.7973 23.9024C24.8081 23.0678 25.0298 22.2494 25.4418 21.5234C25.8538 20.7975 26.4428 20.1876 27.1539 19.7504C26.7021 19.1052 26.1062 18.5743 25.4134 18.1997C24.7205 17.8252 23.9499 17.6173 23.1627 17.5927C21.4835 17.4164 19.8555 18.5975 18.9998 18.5975C18.1275 18.5975 16.81 17.6102 15.3913 17.6394C14.4736 17.669 13.5793 17.9359 12.7954 18.414C12.0115 18.892 11.3649 19.565 10.9184 20.3673C8.98439 23.7157 10.427 28.6367 12.2796 31.3433C13.2065 32.6687 14.2898 34.1491 15.7072 34.0966C17.0943 34.0391 17.6123 33.2122 19.2866 33.2122C20.9454 33.2122 21.4314 34.0966 22.8776 34.0633C24.366 34.0391 25.3038 32.732 26.1981 31.3941C26.8641 30.4498 27.3766 29.406 27.7166 28.3016C26.8518 27.9359 26.1139 27.3237 25.5948 26.5414C25.0757 25.7591 24.7983 24.8413 24.7973 23.9024V23.9024Z" fill="white"/>
<path d="M22.0657 15.8126C22.8772 14.8384 23.277 13.5863 23.1802 12.322C21.9404 12.4522 20.7951 13.0448 19.9726 13.9816C19.5705 14.4393 19.2625 14.9717 19.0662 15.5485C18.87 16.1253 18.7893 16.7351 18.8289 17.343C19.449 17.3494 20.0626 17.215 20.6232 16.9499C21.1839 16.6848 21.6771 16.296 22.0657 15.8126Z" fill="white"/>
</g>
<defs>
<clipPath id="clip0_62_12600">
<rect width="146" height="48" fill="white" transform="translate(0 0.564941)"/>
</clipPath>
</defs>
</svg>
