<svg width="21" height="21" viewBox="0 0 21 21" fill="none" xmlns="http://www.w3.org/2000/svg">
<path d="M6.94974 5.51761C6.61021 5.51761 6.32864 5.23605 6.32864 4.89651V2.41212C6.32864 2.07258 6.61021 1.79102 6.94974 1.79102C7.28928 1.79102 7.57084 2.07258 7.57084 2.41212V4.89651C7.57084 5.23605 7.28928 5.51761 6.94974 5.51761Z" fill="#8E9AA0"/>
<path d="M13.5748 5.51761C13.2353 5.51761 12.9537 5.23605 12.9537 4.89651V2.41212C12.9537 2.07258 13.2353 1.79102 13.5748 1.79102C13.9143 1.79102 14.1959 2.07258 14.1959 2.41212V4.89651C14.1959 5.23605 13.9143 5.51761 13.5748 5.51761Z" fill="#8E9AA0"/>
<path d="M7.36381 12.7637C7.25615 12.7637 7.14849 12.7389 7.04911 12.6975C6.94146 12.6561 6.85865 12.5981 6.77584 12.5235C6.62678 12.3662 6.53568 12.1509 6.53568 11.9356C6.53568 11.7203 6.62678 11.505 6.77584 11.3476C6.85865 11.2731 6.94974 11.2151 7.04911 11.1737C7.24786 11.0909 7.47975 11.0909 7.6785 11.1737C7.77788 11.2151 7.86896 11.2731 7.95177 11.3476C7.9849 11.389 8.0263 11.4304 8.05115 11.4718C8.08427 11.5215 8.10914 11.5712 8.1257 11.6209C8.15054 11.6706 8.16711 11.7203 8.17539 11.7699C8.18367 11.8279 8.19194 11.8859 8.19194 11.9356C8.19194 12.1509 8.10084 12.3662 7.95177 12.5235C7.86896 12.5981 7.77788 12.6561 7.6785 12.6975C7.57913 12.7389 7.47146 12.7637 7.36381 12.7637Z" fill="#8E9AA0"/>
<path d="M10.2623 12.7638C10.1546 12.7638 10.047 12.739 9.94758 12.6976C9.83992 12.6562 9.75712 12.5982 9.67431 12.5237C9.52524 12.3663 9.43414 12.151 9.43414 11.9357C9.43414 11.886 9.44242 11.828 9.4507 11.7701C9.45898 11.7204 9.47554 11.6707 9.50038 11.621C9.51695 11.5713 9.54181 11.5216 9.57494 11.4719C9.60806 11.4305 9.64118 11.3891 9.67431 11.3477C9.98072 11.0413 10.5356 11.0413 10.8502 11.3477C10.8834 11.3891 10.9165 11.4305 10.9496 11.4719C10.9827 11.5216 11.0076 11.5713 11.0242 11.621C11.049 11.6707 11.0656 11.7204 11.0739 11.7701C11.0821 11.828 11.0904 11.886 11.0904 11.9357C11.0904 12.151 10.9993 12.3663 10.8502 12.5237C10.6929 12.6727 10.4859 12.7638 10.2623 12.7638Z" fill="#8E9AA0"/>
<path d="M7.36381 15.6621C7.25615 15.6621 7.14849 15.6373 7.04911 15.5959C6.94974 15.5545 6.85865 15.4965 6.77584 15.422C6.62678 15.2646 6.53568 15.0493 6.53568 14.834C6.53568 14.7843 6.54395 14.7264 6.55223 14.6767C6.56051 14.6187 6.57707 14.569 6.60191 14.5193C6.61848 14.4696 6.64334 14.4199 6.67647 14.3703C6.70131 14.3289 6.74272 14.2875 6.77584 14.246C6.85865 14.1715 6.94974 14.1135 7.04911 14.0721C7.24786 13.9893 7.47975 13.9893 7.6785 14.0721C7.77788 14.1135 7.86896 14.1715 7.95177 14.246C7.9849 14.2875 8.0263 14.3289 8.05115 14.3703C8.08427 14.4199 8.10914 14.4696 8.1257 14.5193C8.15054 14.569 8.16711 14.6187 8.17539 14.6767C8.18367 14.7264 8.19194 14.7843 8.19194 14.834C8.19194 15.0493 8.10084 15.2646 7.95177 15.422C7.86896 15.4965 7.77788 15.5545 7.6785 15.5959C7.57913 15.6373 7.47146 15.6621 7.36381 15.6621Z" fill="#8E9AA0"/>
<path d="M17.3014 8.90455H3.22315C2.88362 8.90455 2.60205 8.62299 2.60205 8.28345C2.60205 7.94392 2.88362 7.66235 3.22315 7.66235H17.3014C17.6409 7.66235 17.9225 7.94392 17.9225 8.28345C17.9225 8.62299 17.6409 8.90455 17.3014 8.90455Z" fill="#8E9AA0"/>
<path d="M13.4258 19.6207C13.1111 19.6207 12.813 19.5048 12.5977 19.2894C12.3409 19.0327 12.225 18.6601 12.283 18.2708L12.4403 17.1528C12.4817 16.863 12.6556 16.5152 12.8627 16.3082L15.7942 13.3766C16.1917 12.9791 16.581 12.772 17.0033 12.7306C17.525 12.6809 18.0302 12.8962 18.5105 13.3766C19.0157 13.8817 19.6947 14.9086 18.5105 16.0928L15.5789 19.0244C15.3719 19.2315 15.0241 19.4054 14.7342 19.4468L13.6162 19.6041C13.55 19.6124 13.492 19.6207 13.4258 19.6207ZM17.1441 13.9646C17.1358 13.9646 17.1275 13.9646 17.1193 13.9646C17.0033 13.9728 16.846 14.0805 16.6721 14.2544L13.7405 17.186C13.7156 17.2108 13.6742 17.2936 13.6742 17.3268L13.5252 18.3619L14.5603 18.2129C14.5934 18.2046 14.6762 18.1632 14.7011 18.1383L17.6327 15.2068C17.9971 14.8424 18.0468 14.6602 17.6327 14.2461C17.5002 14.1219 17.3097 13.9646 17.1441 13.9646Z" fill="#8E9AA0"/>
<path d="M17.6493 16.6974C17.5913 16.6974 17.5334 16.6892 17.4837 16.6726C16.3905 16.3662 15.521 15.4967 15.2146 14.4035C15.1235 14.0723 15.314 13.7327 15.6452 13.6333C15.9765 13.5422 16.316 13.7327 16.4154 14.064C16.6058 14.743 17.1441 15.2813 17.8232 15.4718C18.1545 15.5629 18.3449 15.9107 18.2538 16.242C18.171 16.5153 17.9226 16.6974 17.6493 16.6974Z" fill="#8E9AA0"/>
<path d="M10.2623 19.5959H6.94975C3.92707 19.5959 2.18799 17.8568 2.18799 14.8341V7.79497C2.18799 4.77228 3.92707 3.0332 6.94975 3.0332H13.5748C16.5975 3.0332 18.3366 4.77228 18.3366 7.79497V10.6934C18.3366 11.033 18.055 11.3145 17.7155 11.3145C17.3759 11.3145 17.0944 11.033 17.0944 10.6934V7.79497C17.0944 5.42651 15.9433 4.2754 13.5748 4.2754H6.94975C4.58129 4.2754 3.43019 5.42651 3.43019 7.79497V14.8341C3.43019 17.2026 4.58129 18.3537 6.94975 18.3537H10.2623C10.6018 18.3537 10.8834 18.6352 10.8834 18.9748C10.8834 19.3143 10.6018 19.5959 10.2623 19.5959Z" fill="#8E9AA0"/>
</svg>
