<svg width="25" height="25" viewBox="0 0 25 25" fill="none" xmlns="http://www.w3.org/2000/svg">
<path d="M9.91424 19.7416C9.72424 19.7416 9.53424 19.6716 9.38424 19.5216L3.31424 13.4516C3.02424 13.1616 3.02424 12.6816 3.31424 12.3916L9.38424 6.32163C9.67424 6.03163 10.1542 6.03163 10.4442 6.32163C10.7342 6.61163 10.7342 7.09163 10.4442 7.38163L4.90424 12.9216L10.4442 18.4616C10.7342 18.7516 10.7342 19.2316 10.4442 19.5216C10.3042 19.6716 10.1042 19.7416 9.91424 19.7416Z" fill="#00C3B4"/>
<path d="M20.8443 13.6716H4.01425C3.60425 13.6716 3.26425 13.3316 3.26425 12.9216C3.26425 12.5116 3.60425 12.1716 4.01425 12.1716H20.8443C21.2543 12.1716 21.5943 12.5116 21.5943 12.9216C21.5943 13.3316 21.2543 13.6716 20.8443 13.6716Z" fill="#00C3B4"/>
</svg>
