<svg width="20" height="21" viewBox="0 0 20 21" fill="none" xmlns="http://www.w3.org/2000/svg">
<path d="M7.59179 10.4749C7.56695 10.4749 7.55039 10.4749 7.52554 10.4749C7.48414 10.4667 7.42617 10.4667 7.37648 10.4749C4.9749 10.4004 3.16129 8.51227 3.16129 6.18521C3.16129 3.81676 5.09083 1.88721 7.45929 1.88721C9.82775 1.88721 11.7573 3.81676 11.7573 6.18521C11.749 8.51227 9.92713 10.4004 7.61664 10.4749C7.60836 10.4749 7.60008 10.4749 7.59179 10.4749ZM7.45929 3.12941C5.77818 3.12941 4.40348 4.50411 4.40348 6.18521C4.40348 7.84148 5.69537 9.17477 7.34335 9.23274C7.39304 9.22446 7.5007 9.22446 7.60836 9.23274C9.2315 9.15821 10.5068 7.82492 10.5151 6.18521C10.5151 4.50411 9.1404 3.12941 7.45929 3.12941Z" fill="#8E9AA0"/>
<path d="M13.7034 10.5826C13.6786 10.5826 13.6537 10.5826 13.6289 10.5743C13.2893 10.6074 12.9415 10.3673 12.9084 10.0277C12.8753 9.6882 13.0823 9.38179 13.4218 9.34038C13.5212 9.3321 13.6289 9.3321 13.72 9.3321C14.929 9.26585 15.8731 8.27209 15.8731 7.05474C15.8731 5.79598 14.8545 4.77737 13.5958 4.77737C13.2562 4.78566 12.9747 4.50409 12.9747 4.16456C12.9747 3.82502 13.2562 3.54346 13.5958 3.54346C15.5336 3.54346 17.1153 5.12519 17.1153 7.06302C17.1153 8.96772 15.6247 10.5081 13.7283 10.5826C13.72 10.5826 13.7117 10.5826 13.7034 10.5826Z" fill="#8E9AA0"/>
<path d="M7.60005 19.5263C5.97691 19.5263 4.34549 19.1123 3.11157 18.2841C1.96047 17.5223 1.33109 16.4788 1.33109 15.3443C1.33109 14.2097 1.96047 13.158 3.11157 12.3878C5.59597 10.7399 9.62069 10.7399 12.0885 12.3878C13.2313 13.1497 13.869 14.1932 13.869 15.3277C13.869 16.4623 13.2396 17.514 12.0885 18.2841C10.8463 19.1123 9.22319 19.5263 7.60005 19.5263ZM3.79892 13.4313C3.00391 13.9613 2.57328 14.6404 2.57328 15.3526C2.57328 16.0565 3.01219 16.7355 3.79892 17.2573C5.86097 18.6402 9.33913 18.6402 11.4012 17.2573C12.1962 16.7273 12.6268 16.0482 12.6268 15.336C12.6268 14.6321 12.1879 13.953 11.4012 13.4313C9.33913 12.0566 5.86097 12.0566 3.79892 13.4313Z" fill="#8E9AA0"/>
<path d="M15.194 18.0358C14.9042 18.0358 14.6475 17.8371 14.5895 17.539C14.5232 17.1994 14.7386 16.8765 15.0698 16.8019C15.5915 16.6943 16.0718 16.4872 16.4445 16.1974C16.9165 15.8413 17.1733 15.3941 17.1733 14.9221C17.1733 14.45 16.9165 14.0028 16.4528 13.655C16.0884 13.3735 15.6329 13.1747 15.0947 13.0505C14.7634 12.9759 14.5481 12.6447 14.6226 12.3052C14.6971 11.9739 15.0284 11.7586 15.3679 11.8331C16.0801 11.9905 16.7012 12.272 17.2064 12.6613C17.9766 13.241 18.4155 14.0608 18.4155 14.9221C18.4155 15.7833 17.9683 16.6032 17.1981 17.1911C16.6847 17.5886 16.0387 17.8785 15.3265 18.0193C15.2768 18.0358 15.2354 18.0358 15.194 18.0358Z" fill="#8E9AA0"/>
</svg>
