<svg width="25" height="25" viewBox="0 0 25 25" fill="none" xmlns="http://www.w3.org/2000/svg">
<path d="M9.85205 19.3201C9.66205 19.3201 9.47205 19.2501 9.32205 19.1001L3.25205 13.0301C2.96205 12.7401 2.96205 12.2601 3.25205 11.9701L9.32205 5.90012C9.61205 5.61012 10.092 5.61012 10.382 5.90012C10.672 6.19012 10.672 6.67012 10.382 6.96012L4.84205 12.5001L10.382 18.0401C10.672 18.3301 10.672 18.8101 10.382 19.1001C10.242 19.2501 10.042 19.3201 9.85205 19.3201Z" fill="#00C3B4"/>
<path d="M20.7821 13.25H3.95206C3.54206 13.25 3.20206 12.91 3.20206 12.5C3.20206 12.09 3.54206 11.75 3.95206 11.75H20.7821C21.1921 11.75 21.5321 12.09 21.5321 12.5C21.5321 12.91 21.1921 13.25 20.7821 13.25Z" fill="#00C3B4"/>
</svg>
