<svg width="21" height="21" viewBox="0 0 21 21" fill="none" xmlns="http://www.w3.org/2000/svg">
<path d="M8.03491 10.4749C8.01007 10.4749 7.9935 10.4749 7.96866 10.4749C7.92725 10.4667 7.86928 10.4667 7.81959 10.4749C5.41801 10.4004 3.6044 8.51227 3.6044 6.18521C3.6044 3.81676 5.53395 1.88721 7.90241 1.88721C10.2709 1.88721 12.2004 3.81676 12.2004 6.18521C12.1921 8.51227 10.3702 10.4004 8.05975 10.4749C8.05147 10.4749 8.04319 10.4749 8.03491 10.4749ZM7.90241 3.12941C6.2213 3.12941 4.8466 4.50411 4.8466 6.18521C4.8466 7.84148 6.13849 9.17477 7.78647 9.23274C7.83616 9.22446 7.94382 9.22446 8.05147 9.23274C9.67461 9.15821 10.9499 7.82492 10.9582 6.18521C10.9582 4.50411 9.58352 3.12941 7.90241 3.12941Z" fill="#8E9AA0"/>
<path d="M14.1465 10.5826C14.1217 10.5826 14.0968 10.5826 14.072 10.5743C13.7325 10.6074 13.3846 10.3673 13.3515 10.0277C13.3184 9.6882 13.5254 9.38179 13.865 9.34038C13.9643 9.3321 14.072 9.3321 14.1631 9.3321C15.3722 9.26585 16.3162 8.27209 16.3162 7.05474C16.3162 5.79598 15.2976 4.77737 14.0389 4.77737C13.6993 4.78566 13.4178 4.50409 13.4178 4.16456C13.4178 3.82502 13.6993 3.54346 14.0389 3.54346C15.9767 3.54346 17.5584 5.12519 17.5584 7.06302C17.5584 8.96772 16.0678 10.5081 14.1714 10.5826C14.1631 10.5826 14.1548 10.5826 14.1465 10.5826Z" fill="#8E9AA0"/>
<path d="M8.04316 19.5263C6.42002 19.5263 4.7886 19.1123 3.55469 18.2841C2.40358 17.5223 1.7742 16.4788 1.7742 15.3443C1.7742 14.2097 2.40358 13.158 3.55469 12.3878C6.03908 10.7399 10.0638 10.7399 12.5316 12.3878C13.6745 13.1497 14.3121 14.1932 14.3121 15.3277C14.3121 16.4623 13.6827 17.514 12.5316 18.2841C11.2894 19.1123 9.6663 19.5263 8.04316 19.5263ZM4.24204 13.4313C3.44703 13.9613 3.0164 14.6404 3.0164 15.3526C3.0164 16.0565 3.45531 16.7355 4.24204 17.2573C6.30409 18.6402 9.78224 18.6402 11.8443 17.2573C12.6393 16.7273 13.0699 16.0482 13.0699 15.336C13.0699 14.6321 12.631 13.953 11.8443 13.4313C9.78224 12.0566 6.30409 12.0566 4.24204 13.4313Z" fill="#8E9AA0"/>
<path d="M15.6372 18.0358C15.3473 18.0358 15.0906 17.8371 15.0326 17.539C14.9664 17.1994 15.1817 16.8765 15.5129 16.8019C16.0347 16.6943 16.515 16.4872 16.8876 16.1974C17.3597 15.8413 17.6164 15.3941 17.6164 14.9221C17.6164 14.45 17.3597 14.0028 16.8959 13.655C16.5315 13.3735 16.0761 13.1747 15.5378 13.0505C15.2065 12.9759 14.9912 12.6447 15.0657 12.3052C15.1403 11.9739 15.4715 11.7586 15.8111 11.8331C16.5233 11.9905 17.1444 12.272 17.6495 12.6613C18.4197 13.241 18.8586 14.0608 18.8586 14.9221C18.8586 15.7833 18.4114 16.6032 17.6412 17.1911C17.1278 17.5886 16.4819 17.8785 15.7697 18.0193C15.72 18.0358 15.6786 18.0358 15.6372 18.0358Z" fill="#8E9AA0"/>
</svg>
