<svg width="21" height="21" viewBox="0 0 21 21" fill="none" xmlns="http://www.w3.org/2000/svg">
<path d="M7.50663 5.51761C7.16709 5.51761 6.88553 5.23605 6.88553 4.89651V2.41212C6.88553 2.07258 7.16709 1.79102 7.50663 1.79102C7.84616 1.79102 8.12773 2.07258 8.12773 2.41212V4.89651C8.12773 5.23605 7.84616 5.51761 7.50663 5.51761Z" fill="#8E9AA0"/>
<path d="M14.1317 5.51761C13.7922 5.51761 13.5106 5.23605 13.5106 4.89651V2.41212C13.5106 2.07258 13.7922 1.79102 14.1317 1.79102C14.4712 1.79102 14.7528 2.07258 14.7528 2.41212V4.89651C14.7528 5.23605 14.4712 5.51761 14.1317 5.51761Z" fill="#8E9AA0"/>
<path d="M7.92069 12.7637C7.81304 12.7637 7.70537 12.7389 7.606 12.6975C7.49834 12.6561 7.41554 12.5981 7.33273 12.5235C7.18366 12.3662 7.09256 12.1509 7.09256 11.9356C7.09256 11.7203 7.18366 11.505 7.33273 11.3476C7.41554 11.2731 7.50662 11.2151 7.606 11.1737C7.80475 11.0909 8.03663 11.0909 8.23539 11.1737C8.33476 11.2151 8.42585 11.2731 8.50866 11.3476C8.54178 11.389 8.58319 11.4304 8.60803 11.4718C8.64116 11.5215 8.66602 11.5712 8.68259 11.6209C8.70743 11.6706 8.72399 11.7203 8.73227 11.7699C8.74055 11.8279 8.74882 11.8859 8.74882 11.9356C8.74882 12.1509 8.65772 12.3662 8.50866 12.5235C8.42585 12.5981 8.33476 12.6561 8.23539 12.6975C8.13601 12.7389 8.02835 12.7637 7.92069 12.7637Z" fill="#8E9AA0"/>
<path d="M10.8192 12.7638C10.7115 12.7638 10.6038 12.739 10.5045 12.6976C10.3968 12.6562 10.314 12.5982 10.2312 12.5237C10.0821 12.3663 9.99103 12.151 9.99103 11.9357C9.99103 11.886 9.9993 11.828 10.0076 11.7701C10.0159 11.7204 10.0324 11.6707 10.0573 11.621C10.0738 11.5713 10.0987 11.5216 10.1318 11.4719C10.1649 11.4305 10.1981 11.3891 10.2312 11.3477C10.5376 11.0413 11.0924 11.0413 11.4071 11.3477C11.4403 11.3891 11.4734 11.4305 11.5065 11.4719C11.5396 11.5216 11.5645 11.5713 11.5811 11.621C11.6059 11.6707 11.6225 11.7204 11.6307 11.7701C11.639 11.828 11.6473 11.886 11.6473 11.9357C11.6473 12.151 11.5562 12.3663 11.4071 12.5237C11.2498 12.6727 11.0428 12.7638 10.8192 12.7638Z" fill="#8E9AA0"/>
<path d="M7.92069 15.6621C7.81304 15.6621 7.70537 15.6373 7.606 15.5959C7.50662 15.5545 7.41554 15.4965 7.33273 15.422C7.18366 15.2646 7.09256 15.0493 7.09256 14.834C7.09256 14.7843 7.10083 14.7264 7.10911 14.6767C7.11739 14.6187 7.13396 14.569 7.1588 14.5193C7.17536 14.4696 7.20023 14.4199 7.23335 14.3703C7.2582 14.3289 7.2996 14.2875 7.33273 14.246C7.41554 14.1715 7.50662 14.1135 7.606 14.0721C7.80475 13.9893 8.03663 13.9893 8.23539 14.0721C8.33476 14.1135 8.42585 14.1715 8.50866 14.246C8.54178 14.2875 8.58319 14.3289 8.60803 14.3703C8.64116 14.4199 8.66602 14.4696 8.68259 14.5193C8.70743 14.569 8.72399 14.6187 8.73227 14.6767C8.74055 14.7264 8.74882 14.7843 8.74882 14.834C8.74882 15.0493 8.65772 15.2646 8.50866 15.422C8.42585 15.4965 8.33476 15.5545 8.23539 15.5959C8.13601 15.6373 8.02835 15.6621 7.92069 15.6621Z" fill="#8E9AA0"/>
<path d="M17.8583 8.90455H3.78003C3.4405 8.90455 3.15894 8.62299 3.15894 8.28345C3.15894 7.94392 3.4405 7.66235 3.78003 7.66235H17.8583C18.1978 7.66235 18.4794 7.94392 18.4794 8.28345C18.4794 8.62299 18.1978 8.90455 17.8583 8.90455Z" fill="#8E9AA0"/>
<path d="M13.9827 19.6207C13.668 19.6207 13.3699 19.5048 13.1545 19.2894C12.8978 19.0327 12.7819 18.6601 12.8398 18.2708L12.9972 17.1528C13.0386 16.863 13.2125 16.5152 13.4195 16.3082L16.3511 13.3766C16.7486 12.9791 17.1379 12.772 17.5602 12.7306C18.0819 12.6809 18.5871 12.8962 19.0674 13.3766C19.5726 13.8817 20.2516 14.9086 19.0674 16.0928L16.1358 19.0244C15.9288 19.2315 15.581 19.4054 15.2911 19.4468L14.1731 19.6041C14.1069 19.6124 14.0489 19.6207 13.9827 19.6207ZM17.701 13.9646C17.6927 13.9646 17.6844 13.9646 17.6761 13.9646C17.5602 13.9728 17.4028 14.0805 17.2289 14.2544L14.2974 17.186C14.2725 17.2108 14.2311 17.2936 14.2311 17.3268L14.082 18.3619L15.1172 18.2129C15.1503 18.2046 15.2331 18.1632 15.258 18.1383L18.1896 15.2068C18.554 14.8424 18.6036 14.6602 18.1896 14.2461C18.0571 14.1219 17.8666 13.9646 17.701 13.9646Z" fill="#8E9AA0"/>
<path d="M18.2062 16.6974C18.1482 16.6974 18.0902 16.6892 18.0405 16.6726C16.9474 16.3662 16.0779 15.4967 15.7715 14.4035C15.6804 14.0723 15.8708 13.7327 16.2021 13.6333C16.5333 13.5422 16.8729 13.7327 16.9722 14.064C17.1627 14.743 17.701 15.2813 18.3801 15.4718C18.7113 15.5629 18.9018 15.9107 18.8107 16.242C18.7279 16.5153 18.4795 16.6974 18.2062 16.6974Z" fill="#8E9AA0"/>
<path d="M10.8192 19.5959H7.50663C4.48395 19.5959 2.74487 17.8568 2.74487 14.8341V7.79497C2.74487 4.77228 4.48395 3.0332 7.50663 3.0332H14.1317C17.1544 3.0332 18.8935 4.77228 18.8935 7.79497V10.6934C18.8935 11.033 18.6119 11.3145 18.2724 11.3145C17.9328 11.3145 17.6513 11.033 17.6513 10.6934V7.79497C17.6513 5.42651 16.5002 4.2754 14.1317 4.2754H7.50663C5.13818 4.2754 3.98707 5.42651 3.98707 7.79497V14.8341C3.98707 17.2026 5.13818 18.3537 7.50663 18.3537H10.8192C11.1587 18.3537 11.4403 18.6352 11.4403 18.9748C11.4403 19.3143 11.1587 19.5959 10.8192 19.5959Z" fill="#8E9AA0"/>
</svg>
