<svg width="20" height="21" viewBox="0 0 20 21" fill="none" xmlns="http://www.w3.org/2000/svg">
<path d="M7.59179 10.2821C7.56695 10.2821 7.55039 10.2821 7.52554 10.2821C7.48414 10.2738 7.42617 10.2738 7.37648 10.2821C4.9749 10.2075 3.16129 8.3194 3.16129 5.99234C3.16129 3.62388 5.09083 1.69434 7.45929 1.69434C9.82775 1.69434 11.7573 3.62388 11.7573 5.99234C11.749 8.3194 9.92713 10.2075 7.61664 10.2821C7.60836 10.2821 7.60008 10.2821 7.59179 10.2821ZM7.45929 2.93653C5.77818 2.93653 4.40348 4.31123 4.40348 5.99234C4.40348 7.64861 5.69537 8.9819 7.34335 9.03987C7.39304 9.03159 7.5007 9.03159 7.60836 9.03987C9.2315 8.96534 10.5068 7.63205 10.5151 5.99234C10.5151 4.31123 9.1404 2.93653 7.45929 2.93653Z" fill="#8E9AA0"/>
<path d="M13.7034 10.3897C13.6786 10.3897 13.6537 10.3897 13.6289 10.3814C13.2893 10.4146 12.9415 10.1744 12.9084 9.83486C12.8753 9.49533 13.0823 9.18892 13.4218 9.14751C13.5212 9.13923 13.6289 9.13923 13.72 9.13923C14.929 9.07298 15.8731 8.07922 15.8731 6.86187C15.8731 5.60311 14.8545 4.5845 13.5958 4.5845C13.2562 4.59278 12.9747 4.31122 12.9747 3.97169C12.9747 3.63215 13.2562 3.35059 13.5958 3.35059C15.5336 3.35059 17.1153 4.93232 17.1153 6.87015C17.1153 8.77485 15.6247 10.3152 13.7283 10.3897C13.72 10.3897 13.7117 10.3897 13.7034 10.3897Z" fill="#8E9AA0"/>
<path d="M7.60005 19.3335C5.97691 19.3335 4.34549 18.9194 3.11157 18.0913C1.96047 17.3294 1.33109 16.2859 1.33109 15.1514C1.33109 14.0169 1.96047 12.9651 3.11157 12.195C5.59597 10.547 9.62069 10.547 12.0885 12.195C13.2313 12.9569 13.869 14.0003 13.869 15.1348C13.869 16.2694 13.2396 17.3211 12.0885 18.0913C10.8463 18.9194 9.22319 19.3335 7.60005 19.3335ZM3.79892 13.2384C3.00391 13.7684 2.57328 14.4475 2.57328 15.1597C2.57328 15.8636 3.01219 16.5427 3.79892 17.0644C5.86097 18.4474 9.33913 18.4474 11.4012 17.0644C12.1962 16.5344 12.6268 15.8553 12.6268 15.1431C12.6268 14.4392 12.1879 13.7601 11.4012 13.2384C9.33913 11.8637 5.86097 11.8637 3.79892 13.2384Z" fill="#8E9AA0"/>
<path d="M15.194 17.843C14.9042 17.843 14.6475 17.6442 14.5895 17.3461C14.5232 17.0066 14.7386 16.6836 15.0698 16.6091C15.5915 16.5014 16.0718 16.2944 16.4445 16.0045C16.9165 15.6484 17.1733 15.2012 17.1733 14.7292C17.1733 14.2572 16.9165 13.81 16.4528 13.4621C16.0884 13.1806 15.6329 12.9818 15.0947 12.8576C14.7634 12.7831 14.5481 12.4518 14.6226 12.1123C14.6971 11.781 15.0284 11.5657 15.3679 11.6403C16.0801 11.7976 16.7012 12.0792 17.2064 12.4684C17.9766 13.0481 18.4155 13.8679 18.4155 14.7292C18.4155 15.5904 17.9683 16.4103 17.1981 16.9983C16.6847 17.3958 16.0387 17.6856 15.3265 17.8264C15.2768 17.843 15.2354 17.843 15.194 17.843Z" fill="#8E9AA0"/>
</svg>
