<svg width="21" height="21" viewBox="0 0 21 21" fill="none" xmlns="http://www.w3.org/2000/svg">
<path d="M7.50663 5.71048C7.16709 5.71048 6.88553 5.42892 6.88553 5.08938V2.60499C6.88553 2.26545 7.16709 1.98389 7.50663 1.98389C7.84616 1.98389 8.12773 2.26545 8.12773 2.60499V5.08938C8.12773 5.42892 7.84616 5.71048 7.50663 5.71048Z" fill="#8E9AA0"/>
<path d="M14.1317 5.71048C13.7922 5.71048 13.5106 5.42892 13.5106 5.08938V2.60499C13.5106 2.26545 13.7922 1.98389 14.1317 1.98389C14.4712 1.98389 14.7528 2.26545 14.7528 2.60499V5.08938C14.7528 5.42892 14.4712 5.71048 14.1317 5.71048Z" fill="#8E9AA0"/>
<path d="M7.92069 12.9566C7.81304 12.9566 7.70537 12.9317 7.606 12.8903C7.49834 12.8489 7.41554 12.7909 7.33273 12.7164C7.18366 12.5591 7.09256 12.3438 7.09256 12.1284C7.09256 11.9131 7.18366 11.6978 7.33273 11.5405C7.41554 11.4659 7.50662 11.408 7.606 11.3666C7.80475 11.2837 8.03663 11.2837 8.23539 11.3666C8.33476 11.408 8.42585 11.4659 8.50866 11.5405C8.54178 11.5819 8.58319 11.6233 8.60803 11.6647C8.64116 11.7144 8.66602 11.7641 8.68259 11.8138C8.70743 11.8634 8.72399 11.9131 8.73227 11.9628C8.74055 12.0208 8.74882 12.0788 8.74882 12.1284C8.74882 12.3438 8.65772 12.5591 8.50866 12.7164C8.42585 12.7909 8.33476 12.8489 8.23539 12.8903C8.13601 12.9317 8.02835 12.9566 7.92069 12.9566Z" fill="#8E9AA0"/>
<path d="M10.8192 12.9567C10.7115 12.9567 10.6038 12.9319 10.5045 12.8905C10.3968 12.8491 10.314 12.7911 10.2312 12.7165C10.0821 12.5592 9.99103 12.3439 9.99103 12.1286C9.99103 12.0789 9.9993 12.0209 10.0076 11.9629C10.0159 11.9132 10.0324 11.8636 10.0573 11.8139C10.0738 11.7642 10.0987 11.7145 10.1318 11.6648C10.1649 11.6234 10.1981 11.582 10.2312 11.5406C10.5376 11.2342 11.0924 11.2342 11.4071 11.5406C11.4403 11.582 11.4734 11.6234 11.5065 11.6648C11.5396 11.7145 11.5645 11.7642 11.5811 11.8139C11.6059 11.8636 11.6225 11.9132 11.6307 11.9629C11.639 12.0209 11.6473 12.0789 11.6473 12.1286C11.6473 12.3439 11.5562 12.5592 11.4071 12.7165C11.2498 12.8656 11.0428 12.9567 10.8192 12.9567Z" fill="#8E9AA0"/>
<path d="M7.92069 15.855C7.81304 15.855 7.70537 15.8302 7.606 15.7888C7.50662 15.7474 7.41554 15.6894 7.33273 15.6149C7.18366 15.4575 7.09256 15.2422 7.09256 15.0269C7.09256 14.9772 7.10083 14.9192 7.10911 14.8695C7.11739 14.8116 7.13396 14.7619 7.1588 14.7122C7.17536 14.6625 7.20023 14.6128 7.23335 14.5631C7.2582 14.5217 7.2996 14.4803 7.33273 14.4389C7.41554 14.3644 7.50662 14.3064 7.606 14.265C7.80475 14.1822 8.03663 14.1822 8.23539 14.265C8.33476 14.3064 8.42585 14.3644 8.50866 14.4389C8.54178 14.4803 8.58319 14.5217 8.60803 14.5631C8.64116 14.6128 8.66602 14.6625 8.68259 14.7122C8.70743 14.7619 8.72399 14.8116 8.73227 14.8695C8.74055 14.9192 8.74882 14.9772 8.74882 15.0269C8.74882 15.2422 8.65772 15.4575 8.50866 15.6149C8.42585 15.6894 8.33476 15.7474 8.23539 15.7888C8.13601 15.8302 8.02835 15.855 7.92069 15.855Z" fill="#8E9AA0"/>
<path d="M17.8583 9.09742H3.78003C3.4405 9.09742 3.15894 8.81586 3.15894 8.47632C3.15894 8.13679 3.4405 7.85522 3.78003 7.85522H17.8583C18.1978 7.85522 18.4794 8.13679 18.4794 8.47632C18.4794 8.81586 18.1978 9.09742 17.8583 9.09742Z" fill="#8E9AA0"/>
<path d="M13.9827 19.8136C13.668 19.8136 13.3699 19.6976 13.1545 19.4823C12.8978 19.2256 12.7819 18.8529 12.8398 18.4637L12.9972 17.3457C13.0386 17.0559 13.2125 16.7081 13.4195 16.501L16.3511 13.5694C16.7486 13.1719 17.1379 12.9649 17.5602 12.9235C18.0819 12.8738 18.5871 13.0891 19.0674 13.5694C19.5726 14.0746 20.2516 15.1015 19.0674 16.2857L16.1358 19.2173C15.9288 19.4243 15.581 19.5983 15.2911 19.6397L14.1731 19.797C14.1069 19.8053 14.0489 19.8136 13.9827 19.8136ZM17.701 14.1574C17.6927 14.1574 17.6844 14.1574 17.6761 14.1574C17.5602 14.1657 17.4028 14.2733 17.2289 14.4473L14.2974 17.3788C14.2725 17.4037 14.2311 17.4865 14.2311 17.5196L14.082 18.5548L15.1172 18.4057C15.1503 18.3974 15.2331 18.356 15.258 18.3312L18.1896 15.3996C18.554 15.0352 18.6036 14.8531 18.1896 14.439C18.0571 14.3148 17.8666 14.1574 17.701 14.1574Z" fill="#8E9AA0"/>
<path d="M18.2062 16.8903C18.1482 16.8903 18.0902 16.882 18.0405 16.8655C16.9474 16.5591 16.0779 15.6895 15.7715 14.5964C15.6804 14.2651 15.8708 13.9256 16.2021 13.8262C16.5333 13.7351 16.8729 13.9256 16.9722 14.2568C17.1627 14.9359 17.701 15.4742 18.3801 15.6647C18.7113 15.7558 18.9018 16.1036 18.8107 16.4348C18.7279 16.7081 18.4795 16.8903 18.2062 16.8903Z" fill="#8E9AA0"/>
<path d="M10.8192 19.7887H7.50663C4.48395 19.7887 2.74487 18.0496 2.74487 15.027V7.98784C2.74487 4.96515 4.48395 3.22607 7.50663 3.22607H14.1317C17.1544 3.22607 18.8935 4.96515 18.8935 7.98784V10.8863C18.8935 11.2258 18.6119 11.5074 18.2724 11.5074C17.9328 11.5074 17.6513 11.2258 17.6513 10.8863V7.98784C17.6513 5.61938 16.5002 4.46827 14.1317 4.46827H7.50663C5.13818 4.46827 3.98707 5.61938 3.98707 7.98784V15.027C3.98707 17.3954 5.13818 18.5465 7.50663 18.5465H10.8192C11.1587 18.5465 11.4403 18.8281 11.4403 19.1676C11.4403 19.5072 11.1587 19.7887 10.8192 19.7887Z" fill="#8E9AA0"/>
</svg>
