<svg width="21" height="21" viewBox="0 0 21 21" fill="none" xmlns="http://www.w3.org/2000/svg">
<path d="M10.1374 12.6834C8.37346 12.6834 6.93251 11.2508 6.93251 9.47857C6.93251 7.70637 8.37346 6.28198 10.1374 6.28198C11.9013 6.28198 13.3423 7.71465 13.3423 9.48686C13.3423 11.2591 11.9013 12.6834 10.1374 12.6834ZM10.1374 7.52418C9.06081 7.52418 8.17471 8.402 8.17471 9.48686C8.17471 10.5717 9.05253 11.4495 10.1374 11.4495C11.2222 11.4495 12.1001 10.5717 12.1001 9.48686C12.1001 8.402 11.214 7.52418 10.1374 7.52418Z" fill="#8E9AA0"/>
<path d="M10.1374 19.797C8.91179 19.797 7.67787 19.3333 6.71724 18.414C4.27424 16.0621 1.57453 12.3107 2.59314 7.84707C3.51236 3.7975 7.04849 1.98389 10.1374 1.98389C10.1374 1.98389 10.1374 1.98389 10.1457 1.98389C13.2346 1.98389 16.7708 3.7975 17.69 7.85535C18.7003 12.319 16.0006 16.0621 13.5576 18.414C12.597 19.3333 11.3631 19.797 10.1374 19.797ZM10.1374 3.22609C7.72756 3.22609 4.63034 4.50969 3.81049 8.12035C2.91611 12.0209 5.36738 15.3831 7.58678 17.5114C9.01944 18.8944 11.2637 18.8944 12.6964 17.5114C14.9075 15.3831 17.3587 12.0209 16.4809 8.12035C15.6528 4.50969 12.5473 3.22609 10.1374 3.22609Z" fill="#8E9AA0"/>
</svg>
