<svg width="21" height="21" viewBox="0 0 21 21" fill="none" xmlns="http://www.w3.org/2000/svg">
<path d="M8.03491 10.5716C8.01007 10.5716 7.9935 10.5716 7.96866 10.5716C7.92725 10.5633 7.86928 10.5633 7.81959 10.5716C5.41801 10.4971 3.6044 8.60895 3.6044 6.28189C3.6044 3.91344 5.53395 1.98389 7.90241 1.98389C10.2709 1.98389 12.2004 3.91344 12.2004 6.28189C12.1921 8.60895 10.3702 10.4971 8.05975 10.5716C8.05147 10.5716 8.04319 10.5716 8.03491 10.5716ZM7.90241 3.22609C6.2213 3.22609 4.8466 4.60079 4.8466 6.28189C4.8466 7.93816 6.13849 9.27145 7.78647 9.32942C7.83616 9.32114 7.94382 9.32114 8.05147 9.32942C9.67461 9.25489 10.9499 7.9216 10.9582 6.28189C10.9582 4.60079 9.58352 3.22609 7.90241 3.22609Z" fill="#8E9AA0"/>
<path d="M14.1465 10.6793C14.1217 10.6793 14.0968 10.6793 14.072 10.671C13.7325 10.7041 13.3846 10.4639 13.3515 10.1244C13.3184 9.78488 13.5254 9.47847 13.865 9.43706C13.9643 9.42878 14.072 9.42878 14.1631 9.42878C15.3722 9.36253 16.3162 8.36877 16.3162 7.15142C16.3162 5.89266 15.2976 4.87405 14.0389 4.87405C13.6993 4.88234 13.4178 4.60077 13.4178 4.26124C13.4178 3.9217 13.6993 3.64014 14.0389 3.64014C15.9767 3.64014 17.5584 5.22187 17.5584 7.1597C17.5584 9.0644 16.0678 10.6047 14.1714 10.6793C14.1631 10.6793 14.1548 10.6793 14.1465 10.6793Z" fill="#8E9AA0"/>
<path d="M8.04316 19.623C6.42002 19.623 4.7886 19.209 3.55469 18.3808C2.40358 17.6189 1.7742 16.5755 1.7742 15.441C1.7742 14.3064 2.40358 13.2547 3.55469 12.4845C6.03908 10.8365 10.0638 10.8365 12.5316 12.4845C13.6745 13.2464 14.3121 14.2899 14.3121 15.4244C14.3121 16.5589 13.6827 17.6107 12.5316 18.3808C11.2894 19.209 9.6663 19.623 8.04316 19.623ZM4.24204 13.528C3.44703 14.058 3.0164 14.737 3.0164 15.4492C3.0164 16.1532 3.45531 16.8322 4.24204 17.3539C6.30409 18.7369 9.78224 18.7369 11.8443 17.3539C12.6393 16.8239 13.0699 16.1449 13.0699 15.4327C13.0699 14.7288 12.631 14.0497 11.8443 13.528C9.78224 12.1533 6.30409 12.1533 4.24204 13.528Z" fill="#8E9AA0"/>
<path d="M15.6372 18.1325C15.3473 18.1325 15.0906 17.9338 15.0326 17.6356C14.9664 17.2961 15.1817 16.9731 15.5129 16.8986C16.0347 16.7909 16.515 16.5839 16.8876 16.2941C17.3597 15.938 17.6164 15.4908 17.6164 15.0187C17.6164 14.5467 17.3597 14.0995 16.8959 13.7517C16.5315 13.4701 16.0761 13.2714 15.5378 13.1472C15.2065 13.0726 14.9912 12.7414 15.0657 12.4018C15.1403 12.0706 15.4715 11.8553 15.8111 11.9298C16.5233 12.0872 17.1444 12.3687 17.6495 12.7579C18.4197 13.3376 18.8586 14.1575 18.8586 15.0187C18.8586 15.88 18.4114 16.6998 17.6412 17.2878C17.1278 17.6853 16.4819 17.9752 15.7697 18.116C15.72 18.1325 15.6786 18.1325 15.6372 18.1325Z" fill="#8E9AA0"/>
</svg>
