<svg width="21" height="21" viewBox="0 0 21 21" fill="none" xmlns="http://www.w3.org/2000/svg">
<path d="M10.6944 12.6832C8.93045 12.6832 7.4895 11.2505 7.4895 9.47833C7.4895 7.70613 8.93045 6.28174 10.6944 6.28174C12.4583 6.28174 13.8992 7.71441 13.8992 9.48661C13.8992 11.2588 12.4583 12.6832 10.6944 12.6832ZM10.6944 7.52394C9.6178 7.52394 8.7317 8.40176 8.7317 9.48661C8.7317 10.5715 9.60952 11.4493 10.6944 11.4493C11.7792 11.4493 12.657 10.5715 12.657 9.48661C12.657 8.40176 11.7709 7.52394 10.6944 7.52394Z" fill="#8E9AA0"/>
<path d="M10.6944 19.797C9.46873 19.797 8.23481 19.3333 7.27417 18.414C4.83118 16.0621 2.13147 12.3107 3.15007 7.84707C4.0693 3.7975 7.60543 1.98389 10.6944 1.98389C10.6944 1.98389 10.6944 1.98389 10.7026 1.98389C13.7916 1.98389 17.3277 3.7975 18.2469 7.85535C19.2573 12.319 16.5575 16.0621 14.1145 18.414C13.1539 19.3333 11.92 19.797 10.6944 19.797ZM10.6944 3.22609C8.2845 3.22609 5.18728 4.50969 4.36743 8.12035C3.47305 12.0209 5.92432 15.3831 8.14371 17.5114C9.57638 18.8944 11.8206 18.8944 13.2533 17.5114C15.4644 15.3831 17.9157 12.0209 17.0379 8.12035C16.2097 4.50969 13.1042 3.22609 10.6944 3.22609Z" fill="#8E9AA0"/>
</svg>
