<svg width="21" height="21" viewBox="0 0 21 21" fill="none" xmlns="http://www.w3.org/2000/svg">
<path d="M6.94974 5.71048C6.61021 5.71048 6.32864 5.42892 6.32864 5.08938V2.60499C6.32864 2.26545 6.61021 1.98389 6.94974 1.98389C7.28928 1.98389 7.57084 2.26545 7.57084 2.60499V5.08938C7.57084 5.42892 7.28928 5.71048 6.94974 5.71048Z" fill="#8E9AA0"/>
<path d="M13.5748 5.71048C13.2353 5.71048 12.9537 5.42892 12.9537 5.08938V2.60499C12.9537 2.26545 13.2353 1.98389 13.5748 1.98389C13.9143 1.98389 14.1959 2.26545 14.1959 2.60499V5.08938C14.1959 5.42892 13.9143 5.71048 13.5748 5.71048Z" fill="#8E9AA0"/>
<path d="M7.36381 12.9566C7.25615 12.9566 7.14849 12.9317 7.04911 12.8903C6.94146 12.8489 6.85865 12.7909 6.77584 12.7164C6.62678 12.5591 6.53568 12.3438 6.53568 12.1284C6.53568 11.9131 6.62678 11.6978 6.77584 11.5405C6.85865 11.4659 6.94974 11.408 7.04911 11.3666C7.24786 11.2837 7.47975 11.2837 7.6785 11.3666C7.77788 11.408 7.86896 11.4659 7.95177 11.5405C7.9849 11.5819 8.0263 11.6233 8.05115 11.6647C8.08427 11.7144 8.10914 11.7641 8.1257 11.8138C8.15054 11.8634 8.16711 11.9131 8.17539 11.9628C8.18367 12.0208 8.19194 12.0788 8.19194 12.1284C8.19194 12.3438 8.10084 12.5591 7.95177 12.7164C7.86896 12.7909 7.77788 12.8489 7.6785 12.8903C7.57913 12.9317 7.47146 12.9566 7.36381 12.9566Z" fill="#8E9AA0"/>
<path d="M10.2623 12.9567C10.1546 12.9567 10.047 12.9319 9.94758 12.8905C9.83992 12.8491 9.75712 12.7911 9.67431 12.7165C9.52524 12.5592 9.43414 12.3439 9.43414 12.1286C9.43414 12.0789 9.44242 12.0209 9.4507 11.9629C9.45898 11.9132 9.47554 11.8636 9.50038 11.8139C9.51695 11.7642 9.54181 11.7145 9.57494 11.6648C9.60806 11.6234 9.64118 11.582 9.67431 11.5406C9.98072 11.2342 10.5356 11.2342 10.8502 11.5406C10.8834 11.582 10.9165 11.6234 10.9496 11.6648C10.9827 11.7145 11.0076 11.7642 11.0242 11.8139C11.049 11.8636 11.0656 11.9132 11.0739 11.9629C11.0821 12.0209 11.0904 12.0789 11.0904 12.1286C11.0904 12.3439 10.9993 12.5592 10.8502 12.7165C10.6929 12.8656 10.4859 12.9567 10.2623 12.9567Z" fill="#8E9AA0"/>
<path d="M7.36381 15.855C7.25615 15.855 7.14849 15.8302 7.04911 15.7888C6.94974 15.7474 6.85865 15.6894 6.77584 15.6149C6.62678 15.4575 6.53568 15.2422 6.53568 15.0269C6.53568 14.9772 6.54395 14.9192 6.55223 14.8695C6.56051 14.8116 6.57707 14.7619 6.60191 14.7122C6.61848 14.6625 6.64334 14.6128 6.67647 14.5631C6.70131 14.5217 6.74272 14.4803 6.77584 14.4389C6.85865 14.3644 6.94974 14.3064 7.04911 14.265C7.24786 14.1822 7.47975 14.1822 7.6785 14.265C7.77788 14.3064 7.86896 14.3644 7.95177 14.4389C7.9849 14.4803 8.0263 14.5217 8.05115 14.5631C8.08427 14.6128 8.10914 14.6625 8.1257 14.7122C8.15054 14.7619 8.16711 14.8116 8.17539 14.8695C8.18367 14.9192 8.19194 14.9772 8.19194 15.0269C8.19194 15.2422 8.10084 15.4575 7.95177 15.6149C7.86896 15.6894 7.77788 15.7474 7.6785 15.7888C7.57913 15.8302 7.47146 15.855 7.36381 15.855Z" fill="#8E9AA0"/>
<path d="M17.3014 9.09742H3.22315C2.88362 9.09742 2.60205 8.81586 2.60205 8.47632C2.60205 8.13679 2.88362 7.85522 3.22315 7.85522H17.3014C17.6409 7.85522 17.9225 8.13679 17.9225 8.47632C17.9225 8.81586 17.6409 9.09742 17.3014 9.09742Z" fill="#8E9AA0"/>
<path d="M13.4258 19.8136C13.1111 19.8136 12.813 19.6976 12.5977 19.4823C12.3409 19.2256 12.225 18.8529 12.283 18.4637L12.4403 17.3457C12.4817 17.0559 12.6556 16.7081 12.8627 16.501L15.7942 13.5694C16.1917 13.1719 16.581 12.9649 17.0033 12.9235C17.525 12.8738 18.0302 13.0891 18.5105 13.5694C19.0157 14.0746 19.6947 15.1015 18.5105 16.2857L15.5789 19.2173C15.3719 19.4243 15.0241 19.5983 14.7342 19.6397L13.6162 19.797C13.55 19.8053 13.492 19.8136 13.4258 19.8136ZM17.1441 14.1574C17.1358 14.1574 17.1275 14.1574 17.1193 14.1574C17.0033 14.1657 16.846 14.2733 16.6721 14.4473L13.7405 17.3788C13.7156 17.4037 13.6742 17.4865 13.6742 17.5196L13.5252 18.5548L14.5603 18.4057C14.5934 18.3974 14.6762 18.356 14.7011 18.3312L17.6327 15.3996C17.9971 15.0352 18.0468 14.8531 17.6327 14.439C17.5002 14.3148 17.3097 14.1574 17.1441 14.1574Z" fill="#8E9AA0"/>
<path d="M17.6493 16.8903C17.5913 16.8903 17.5334 16.882 17.4837 16.8655C16.3905 16.5591 15.521 15.6895 15.2146 14.5964C15.1235 14.2651 15.314 13.9256 15.6452 13.8262C15.9765 13.7351 16.316 13.9256 16.4154 14.2568C16.6058 14.9359 17.1441 15.4742 17.8232 15.6647C18.1545 15.7558 18.3449 16.1036 18.2538 16.4348C18.171 16.7081 17.9226 16.8903 17.6493 16.8903Z" fill="#8E9AA0"/>
<path d="M10.2623 19.7887H6.94975C3.92707 19.7887 2.18799 18.0496 2.18799 15.027V7.98784C2.18799 4.96515 3.92707 3.22607 6.94975 3.22607H13.5748C16.5975 3.22607 18.3366 4.96515 18.3366 7.98784V10.8863C18.3366 11.2258 18.055 11.5074 17.7155 11.5074C17.3759 11.5074 17.0944 11.2258 17.0944 10.8863V7.98784C17.0944 5.61938 15.9433 4.46827 13.5748 4.46827H6.94975C4.58129 4.46827 3.43019 5.61938 3.43019 7.98784V15.027C3.43019 17.3954 4.58129 18.5465 6.94975 18.5465H10.2623C10.6018 18.5465 10.8834 18.8281 10.8834 19.1676C10.8834 19.5072 10.6018 19.7887 10.2623 19.7887Z" fill="#8E9AA0"/>
</svg>
