<svg width="21" height="21" viewBox="0 0 21 21" fill="none" xmlns="http://www.w3.org/2000/svg">
<path d="M8.03491 10.3787C8.01007 10.3787 7.9935 10.3787 7.96866 10.3787C7.92725 10.3705 7.86928 10.3705 7.81959 10.3787C5.41801 10.3042 3.6044 8.41608 3.6044 6.08902C3.6044 3.72056 5.53395 1.79102 7.90241 1.79102C10.2709 1.79102 12.2004 3.72056 12.2004 6.08902C12.1921 8.41608 10.3702 10.3042 8.05975 10.3787C8.05147 10.3787 8.04319 10.3787 8.03491 10.3787ZM7.90241 3.03321C6.2213 3.03321 4.8466 4.40791 4.8466 6.08902C4.8466 7.74529 6.13849 9.07858 7.78647 9.13655C7.83616 9.12827 7.94382 9.12827 8.05147 9.13655C9.67461 9.06202 10.9499 7.72873 10.9582 6.08902C10.9582 4.40791 9.58352 3.03321 7.90241 3.03321Z" fill="#8E9AA0"/>
<path d="M14.1465 10.4864C14.1217 10.4864 14.0968 10.4864 14.072 10.4781C13.7325 10.5112 13.3846 10.2711 13.3515 9.93154C13.3184 9.59201 13.5254 9.2856 13.865 9.24419C13.9643 9.23591 14.072 9.23591 14.1631 9.23591C15.3722 9.16966 16.3162 8.1759 16.3162 6.95855C16.3162 5.69979 15.2976 4.68118 14.0389 4.68118C13.6993 4.68946 13.4178 4.4079 13.4178 4.06837C13.4178 3.72883 13.6993 3.44727 14.0389 3.44727C15.9767 3.44727 17.5584 5.029 17.5584 6.96683C17.5584 8.87153 16.0678 10.4119 14.1714 10.4864C14.1631 10.4864 14.1548 10.4864 14.1465 10.4864Z" fill="#8E9AA0"/>
<path d="M8.04316 19.4302C6.42002 19.4302 4.7886 19.0161 3.55469 18.188C2.40358 17.4261 1.7742 16.3826 1.7742 15.2481C1.7742 14.1135 2.40358 13.0618 3.55469 12.2917C6.03908 10.6437 10.0638 10.6437 12.5316 12.2917C13.6745 13.0535 14.3121 14.097 14.3121 15.2315C14.3121 16.3661 13.6827 17.4178 12.5316 18.188C11.2894 19.0161 9.6663 19.4302 8.04316 19.4302ZM4.24204 13.3351C3.44703 13.8651 3.0164 14.5442 3.0164 15.2564C3.0164 15.9603 3.45531 16.6393 4.24204 17.1611C6.30409 18.5441 9.78224 18.5441 11.8443 17.1611C12.6393 16.6311 13.0699 15.952 13.0699 15.2398C13.0699 14.5359 12.631 13.8568 11.8443 13.3351C9.78224 11.9604 6.30409 11.9604 4.24204 13.3351Z" fill="#8E9AA0"/>
<path d="M15.6372 17.9396C15.3473 17.9396 15.0906 17.7409 15.0326 17.4428C14.9664 17.1032 15.1817 16.7803 15.5129 16.7057C16.0347 16.5981 16.515 16.391 16.8876 16.1012C17.3597 15.7451 17.6164 15.2979 17.6164 14.8259C17.6164 14.3538 17.3597 13.9066 16.8959 13.5588C16.5315 13.2773 16.0761 13.0785 15.5378 12.9543C15.2065 12.8798 14.9912 12.5485 15.0657 12.209C15.1403 11.8777 15.4715 11.6624 15.8111 11.7369C16.5233 11.8943 17.1444 12.1758 17.6495 12.5651C18.4197 13.1448 18.8586 13.9646 18.8586 14.8259C18.8586 15.6871 18.4114 16.507 17.6412 17.095C17.1278 17.4925 16.4819 17.7823 15.7697 17.9231C15.72 17.9396 15.6786 17.9396 15.6372 17.9396Z" fill="#8E9AA0"/>
</svg>
