<svg width="21" height="21" viewBox="0 0 21 21" fill="none" xmlns="http://www.w3.org/2000/svg">
<path d="M7.50663 5.6138C7.16709 5.6138 6.88553 5.33224 6.88553 4.9927V2.50831C6.88553 2.16877 7.16709 1.88721 7.50663 1.88721C7.84616 1.88721 8.12773 2.16877 8.12773 2.50831V4.9927C8.12773 5.33224 7.84616 5.6138 7.50663 5.6138Z" fill="#8E9AA0"/>
<path d="M14.1317 5.6138C13.7922 5.6138 13.5106 5.33224 13.5106 4.9927V2.50831C13.5106 2.16877 13.7922 1.88721 14.1317 1.88721C14.4712 1.88721 14.7528 2.16877 14.7528 2.50831V4.9927C14.7528 5.33224 14.4712 5.6138 14.1317 5.6138Z" fill="#8E9AA0"/>
<path d="M7.92069 12.8599C7.81304 12.8599 7.70537 12.8351 7.606 12.7937C7.49834 12.7523 7.41554 12.6943 7.33273 12.6197C7.18366 12.4624 7.09256 12.2471 7.09256 12.0318C7.09256 11.8165 7.18366 11.6011 7.33273 11.4438C7.41554 11.3693 7.50662 11.3113 7.606 11.2699C7.80475 11.1871 8.03663 11.1871 8.23539 11.2699C8.33476 11.3113 8.42585 11.3693 8.50866 11.4438C8.54178 11.4852 8.58319 11.5266 8.60803 11.568C8.64116 11.6177 8.66602 11.6674 8.68259 11.7171C8.70743 11.7668 8.72399 11.8164 8.73227 11.8661C8.74055 11.9241 8.74882 11.9821 8.74882 12.0318C8.74882 12.2471 8.65772 12.4624 8.50866 12.6197C8.42585 12.6943 8.33476 12.7523 8.23539 12.7937C8.13601 12.8351 8.02835 12.8599 7.92069 12.8599Z" fill="#8E9AA0"/>
<path d="M10.8192 12.86C10.7115 12.86 10.6038 12.8352 10.5045 12.7938C10.3968 12.7524 10.314 12.6944 10.2312 12.6199C10.0821 12.4625 9.99103 12.2472 9.99103 12.0319C9.99103 11.9822 9.9993 11.9242 10.0076 11.8662C10.0159 11.8166 10.0324 11.7669 10.0573 11.7172C10.0738 11.6675 10.0987 11.6178 10.1318 11.5681C10.1649 11.5267 10.1981 11.4853 10.2312 11.4439C10.5376 11.1375 11.0924 11.1375 11.4071 11.4439C11.4403 11.4853 11.4734 11.5267 11.5065 11.5681C11.5396 11.6178 11.5645 11.6675 11.5811 11.7172C11.6059 11.7669 11.6225 11.8166 11.6307 11.8662C11.639 11.9242 11.6473 11.9822 11.6473 12.0319C11.6473 12.2472 11.5562 12.4625 11.4071 12.6199C11.2498 12.7689 11.0428 12.86 10.8192 12.86Z" fill="#8E9AA0"/>
<path d="M7.92069 15.7583C7.81304 15.7583 7.70537 15.7335 7.606 15.6921C7.50662 15.6507 7.41554 15.5927 7.33273 15.5182C7.18366 15.3608 7.09256 15.1455 7.09256 14.9302C7.09256 14.8805 7.10083 14.8225 7.10911 14.7729C7.11739 14.7149 7.13396 14.6652 7.1588 14.6155C7.17536 14.5658 7.20023 14.5161 7.23335 14.4665C7.2582 14.425 7.2996 14.3836 7.33273 14.3422C7.41554 14.2677 7.50662 14.2097 7.606 14.1683C7.80475 14.0855 8.03663 14.0855 8.23539 14.1683C8.33476 14.2097 8.42585 14.2677 8.50866 14.3422C8.54178 14.3836 8.58319 14.425 8.60803 14.4665C8.64116 14.5161 8.66602 14.5658 8.68259 14.6155C8.70743 14.6652 8.72399 14.7149 8.73227 14.7729C8.74055 14.8225 8.74882 14.8805 8.74882 14.9302C8.74882 15.1455 8.65772 15.3608 8.50866 15.5182C8.42585 15.5927 8.33476 15.6507 8.23539 15.6921C8.13601 15.7335 8.02835 15.7583 7.92069 15.7583Z" fill="#8E9AA0"/>
<path d="M17.8583 9.00074H3.78003C3.4405 9.00074 3.15894 8.71918 3.15894 8.37964C3.15894 8.04011 3.4405 7.75854 3.78003 7.75854H17.8583C18.1978 7.75854 18.4794 8.04011 18.4794 8.37964C18.4794 8.71918 18.1978 9.00074 17.8583 9.00074Z" fill="#8E9AA0"/>
<path d="M13.9827 19.7169C13.668 19.7169 13.3699 19.6009 13.1545 19.3856C12.8978 19.1289 12.7819 18.7562 12.8398 18.367L12.9972 17.249C13.0386 16.9592 13.2125 16.6114 13.4195 16.4044L16.3511 13.4728C16.7486 13.0753 17.1379 12.8682 17.5602 12.8268C18.0819 12.7771 18.5871 12.9924 19.0674 13.4728C19.5726 13.9779 20.2516 15.0048 19.0674 16.189L16.1358 19.1206C15.9288 19.3277 15.581 19.5016 15.2911 19.543L14.1731 19.7003C14.1069 19.7086 14.0489 19.7169 13.9827 19.7169ZM17.701 14.0607C17.6927 14.0607 17.6844 14.0607 17.6761 14.0607C17.5602 14.069 17.4028 14.1767 17.2289 14.3506L14.2974 17.2822C14.2725 17.307 14.2311 17.3898 14.2311 17.423L14.082 18.4581L15.1172 18.309C15.1503 18.3008 15.2331 18.2594 15.258 18.2345L18.1896 15.3029C18.554 14.9386 18.6036 14.7564 18.1896 14.3423C18.0571 14.2181 17.8666 14.0607 17.701 14.0607Z" fill="#8E9AA0"/>
<path d="M18.2062 16.7936C18.1482 16.7936 18.0902 16.7853 18.0405 16.7688C16.9474 16.4624 16.0779 15.5928 15.7715 14.4997C15.6804 14.1685 15.8708 13.8289 16.2021 13.7295C16.5333 13.6384 16.8729 13.8289 16.9722 14.1602C17.1627 14.8392 17.701 15.3775 18.3801 15.568C18.7113 15.6591 18.9018 16.0069 18.8107 16.3382C18.7279 16.6114 18.4795 16.7936 18.2062 16.7936Z" fill="#8E9AA0"/>
<path d="M10.8192 19.692H7.50663C4.48395 19.692 2.74487 17.953 2.74487 14.9303V7.89116C2.74487 4.86847 4.48395 3.12939 7.50663 3.12939H14.1317C17.1544 3.12939 18.8935 4.86847 18.8935 7.89116V10.7896C18.8935 11.1292 18.6119 11.4107 18.2724 11.4107C17.9328 11.4107 17.6513 11.1292 17.6513 10.7896V7.89116C17.6513 5.5227 16.5002 4.37159 14.1317 4.37159H7.50663C5.13818 4.37159 3.98707 5.5227 3.98707 7.89116V14.9303C3.98707 17.2987 5.13818 18.4498 7.50663 18.4498H10.8192C11.1587 18.4498 11.4403 18.7314 11.4403 19.0709C11.4403 19.4105 11.1587 19.692 10.8192 19.692Z" fill="#8E9AA0"/>
</svg>
