<svg width="21" height="21" viewBox="0 0 21 21" fill="none" xmlns="http://www.w3.org/2000/svg">
<path d="M6.94974 5.6138C6.61021 5.6138 6.32864 5.33224 6.32864 4.9927V2.50831C6.32864 2.16877 6.61021 1.88721 6.94974 1.88721C7.28928 1.88721 7.57084 2.16877 7.57084 2.50831V4.9927C7.57084 5.33224 7.28928 5.6138 6.94974 5.6138Z" fill="#8E9AA0"/>
<path d="M13.5748 5.6138C13.2353 5.6138 12.9537 5.33224 12.9537 4.9927V2.50831C12.9537 2.16877 13.2353 1.88721 13.5748 1.88721C13.9143 1.88721 14.1959 2.16877 14.1959 2.50831V4.9927C14.1959 5.33224 13.9143 5.6138 13.5748 5.6138Z" fill="#8E9AA0"/>
<path d="M7.36381 12.8599C7.25615 12.8599 7.14849 12.8351 7.04911 12.7937C6.94146 12.7523 6.85865 12.6943 6.77584 12.6197C6.62678 12.4624 6.53568 12.2471 6.53568 12.0318C6.53568 11.8165 6.62678 11.6011 6.77584 11.4438C6.85865 11.3693 6.94974 11.3113 7.04911 11.2699C7.24786 11.1871 7.47975 11.1871 7.6785 11.2699C7.77788 11.3113 7.86896 11.3693 7.95177 11.4438C7.9849 11.4852 8.0263 11.5266 8.05115 11.568C8.08427 11.6177 8.10914 11.6674 8.1257 11.7171C8.15054 11.7668 8.16711 11.8164 8.17539 11.8661C8.18367 11.9241 8.19194 11.9821 8.19194 12.0318C8.19194 12.2471 8.10084 12.4624 7.95177 12.6197C7.86896 12.6943 7.77788 12.7523 7.6785 12.7937C7.57913 12.8351 7.47146 12.8599 7.36381 12.8599Z" fill="#8E9AA0"/>
<path d="M10.2623 12.86C10.1546 12.86 10.047 12.8352 9.94758 12.7938C9.83992 12.7524 9.75712 12.6944 9.67431 12.6199C9.52524 12.4625 9.43414 12.2472 9.43414 12.0319C9.43414 11.9822 9.44242 11.9242 9.4507 11.8662C9.45898 11.8166 9.47554 11.7669 9.50038 11.7172C9.51695 11.6675 9.54181 11.6178 9.57494 11.5681C9.60806 11.5267 9.64118 11.4853 9.67431 11.4439C9.98072 11.1375 10.5356 11.1375 10.8502 11.4439C10.8834 11.4853 10.9165 11.5267 10.9496 11.5681C10.9827 11.6178 11.0076 11.6675 11.0242 11.7172C11.049 11.7669 11.0656 11.8166 11.0739 11.8662C11.0821 11.9242 11.0904 11.9822 11.0904 12.0319C11.0904 12.2472 10.9993 12.4625 10.8502 12.6199C10.6929 12.7689 10.4859 12.86 10.2623 12.86Z" fill="#8E9AA0"/>
<path d="M7.36381 15.7583C7.25615 15.7583 7.14849 15.7335 7.04911 15.6921C6.94974 15.6507 6.85865 15.5927 6.77584 15.5182C6.62678 15.3608 6.53568 15.1455 6.53568 14.9302C6.53568 14.8805 6.54395 14.8225 6.55223 14.7729C6.56051 14.7149 6.57707 14.6652 6.60191 14.6155C6.61848 14.5658 6.64334 14.5161 6.67647 14.4665C6.70131 14.425 6.74272 14.3836 6.77584 14.3422C6.85865 14.2677 6.94974 14.2097 7.04911 14.1683C7.24786 14.0855 7.47975 14.0855 7.6785 14.1683C7.77788 14.2097 7.86896 14.2677 7.95177 14.3422C7.9849 14.3836 8.0263 14.425 8.05115 14.4665C8.08427 14.5161 8.10914 14.5658 8.1257 14.6155C8.15054 14.6652 8.16711 14.7149 8.17539 14.7729C8.18367 14.8225 8.19194 14.8805 8.19194 14.9302C8.19194 15.1455 8.10084 15.3608 7.95177 15.5182C7.86896 15.5927 7.77788 15.6507 7.6785 15.6921C7.57913 15.7335 7.47146 15.7583 7.36381 15.7583Z" fill="#8E9AA0"/>
<path d="M17.3014 9.00074H3.22315C2.88362 9.00074 2.60205 8.71918 2.60205 8.37964C2.60205 8.04011 2.88362 7.75854 3.22315 7.75854H17.3014C17.6409 7.75854 17.9225 8.04011 17.9225 8.37964C17.9225 8.71918 17.6409 9.00074 17.3014 9.00074Z" fill="#8E9AA0"/>
<path d="M13.4258 19.7169C13.1111 19.7169 12.813 19.6009 12.5977 19.3856C12.3409 19.1289 12.225 18.7562 12.283 18.367L12.4403 17.249C12.4817 16.9592 12.6556 16.6114 12.8627 16.4044L15.7942 13.4728C16.1917 13.0753 16.581 12.8682 17.0033 12.8268C17.525 12.7771 18.0302 12.9924 18.5105 13.4728C19.0157 13.9779 19.6947 15.0048 18.5105 16.189L15.5789 19.1206C15.3719 19.3277 15.0241 19.5016 14.7342 19.543L13.6162 19.7003C13.55 19.7086 13.492 19.7169 13.4258 19.7169ZM17.1441 14.0607C17.1358 14.0607 17.1275 14.0607 17.1193 14.0607C17.0033 14.069 16.846 14.1767 16.6721 14.3506L13.7405 17.2822C13.7156 17.307 13.6742 17.3898 13.6742 17.423L13.5252 18.4581L14.5603 18.309C14.5934 18.3008 14.6762 18.2594 14.7011 18.2345L17.6327 15.3029C17.9971 14.9386 18.0468 14.7564 17.6327 14.3423C17.5002 14.2181 17.3097 14.0607 17.1441 14.0607Z" fill="#8E9AA0"/>
<path d="M17.6493 16.7936C17.5913 16.7936 17.5334 16.7853 17.4837 16.7688C16.3905 16.4624 15.521 15.5928 15.2146 14.4997C15.1235 14.1685 15.314 13.8289 15.6452 13.7295C15.9765 13.6384 16.316 13.8289 16.4154 14.1602C16.6058 14.8392 17.1441 15.3775 17.8232 15.568C18.1545 15.6591 18.3449 16.0069 18.2538 16.3382C18.171 16.6114 17.9226 16.7936 17.6493 16.7936Z" fill="#8E9AA0"/>
<path d="M10.2623 19.692H6.94975C3.92707 19.692 2.18799 17.953 2.18799 14.9303V7.89116C2.18799 4.86847 3.92707 3.12939 6.94975 3.12939H13.5748C16.5975 3.12939 18.3366 4.86847 18.3366 7.89116V10.7896C18.3366 11.1292 18.055 11.4107 17.7155 11.4107C17.3759 11.4107 17.0944 11.1292 17.0944 10.7896V7.89116C17.0944 5.5227 15.9433 4.37159 13.5748 4.37159H6.94975C4.58129 4.37159 3.43019 5.5227 3.43019 7.89116V14.9303C3.43019 17.2987 4.58129 18.4498 6.94975 18.4498H10.2623C10.6018 18.4498 10.8834 18.7314 10.8834 19.0709C10.8834 19.4105 10.6018 19.692 10.2623 19.692Z" fill="#8E9AA0"/>
</svg>
