<svg width="20" height="21" viewBox="0 0 20 21" fill="none" xmlns="http://www.w3.org/2000/svg">
<path d="M7.59179 10.5716C7.56695 10.5716 7.55039 10.5716 7.52554 10.5716C7.48414 10.5633 7.42617 10.5633 7.37648 10.5716C4.9749 10.4971 3.16129 8.60895 3.16129 6.28189C3.16129 3.91344 5.09083 1.98389 7.45929 1.98389C9.82775 1.98389 11.7573 3.91344 11.7573 6.28189C11.749 8.60895 9.92713 10.4971 7.61664 10.5716C7.60836 10.5716 7.60008 10.5716 7.59179 10.5716ZM7.45929 3.22609C5.77818 3.22609 4.40348 4.60079 4.40348 6.28189C4.40348 7.93816 5.69537 9.27145 7.34335 9.32942C7.39304 9.32114 7.5007 9.32114 7.60836 9.32942C9.2315 9.25489 10.5068 7.9216 10.5151 6.28189C10.5151 4.60079 9.1404 3.22609 7.45929 3.22609Z" fill="#8E9AA0"/>
<path d="M13.7034 10.6793C13.6786 10.6793 13.6537 10.6793 13.6289 10.671C13.2893 10.7041 12.9415 10.4639 12.9084 10.1244C12.8753 9.78488 13.0823 9.47847 13.4218 9.43706C13.5212 9.42878 13.6289 9.42878 13.72 9.42878C14.929 9.36253 15.8731 8.36877 15.8731 7.15142C15.8731 5.89266 14.8545 4.87405 13.5958 4.87405C13.2562 4.88234 12.9747 4.60077 12.9747 4.26124C12.9747 3.9217 13.2562 3.64014 13.5958 3.64014C15.5336 3.64014 17.1153 5.22187 17.1153 7.1597C17.1153 9.0644 15.6247 10.6047 13.7283 10.6793C13.72 10.6793 13.7117 10.6793 13.7034 10.6793Z" fill="#8E9AA0"/>
<path d="M7.60005 19.623C5.97691 19.623 4.34549 19.209 3.11157 18.3808C1.96047 17.6189 1.33109 16.5755 1.33109 15.441C1.33109 14.3064 1.96047 13.2547 3.11157 12.4845C5.59597 10.8365 9.62069 10.8365 12.0885 12.4845C13.2313 13.2464 13.869 14.2899 13.869 15.4244C13.869 16.5589 13.2396 17.6107 12.0885 18.3808C10.8463 19.209 9.22319 19.623 7.60005 19.623ZM3.79892 13.528C3.00391 14.058 2.57328 14.737 2.57328 15.4492C2.57328 16.1532 3.01219 16.8322 3.79892 17.3539C5.86097 18.7369 9.33913 18.7369 11.4012 17.3539C12.1962 16.8239 12.6268 16.1449 12.6268 15.4327C12.6268 14.7288 12.1879 14.0497 11.4012 13.528C9.33913 12.1533 5.86097 12.1533 3.79892 13.528Z" fill="#8E9AA0"/>
<path d="M15.194 18.1325C14.9042 18.1325 14.6475 17.9338 14.5895 17.6356C14.5232 17.2961 14.7386 16.9731 15.0698 16.8986C15.5915 16.7909 16.0718 16.5839 16.4445 16.2941C16.9165 15.938 17.1733 15.4908 17.1733 15.0187C17.1733 14.5467 16.9165 14.0995 16.4528 13.7517C16.0884 13.4701 15.6329 13.2714 15.0947 13.1472C14.7634 13.0726 14.5481 12.7414 14.6226 12.4018C14.6971 12.0706 15.0284 11.8553 15.3679 11.9298C16.0801 12.0872 16.7012 12.3687 17.2064 12.7579C17.9766 13.3376 18.4155 14.1575 18.4155 15.0187C18.4155 15.88 17.9683 16.6998 17.1981 17.2878C16.6847 17.6853 16.0387 17.9752 15.3265 18.116C15.2768 18.1325 15.2354 18.1325 15.194 18.1325Z" fill="#8E9AA0"/>
</svg>
