<svg width="21" height="21" viewBox="0 0 21 21" fill="none" xmlns="http://www.w3.org/2000/svg">
<path d="M7.50663 5.42093C7.16709 5.42093 6.88553 5.13937 6.88553 4.79983V2.31544C6.88553 1.9759 7.16709 1.69434 7.50663 1.69434C7.84616 1.69434 8.12773 1.9759 8.12773 2.31544V4.79983C8.12773 5.13937 7.84616 5.42093 7.50663 5.42093Z" fill="#8E9AA0"/>
<path d="M14.1317 5.42093C13.7922 5.42093 13.5106 5.13937 13.5106 4.79983V2.31544C13.5106 1.9759 13.7922 1.69434 14.1317 1.69434C14.4712 1.69434 14.7528 1.9759 14.7528 2.31544V4.79983C14.7528 5.13937 14.4712 5.42093 14.1317 5.42093Z" fill="#8E9AA0"/>
<path d="M7.92069 12.667C7.81304 12.667 7.70537 12.6422 7.606 12.6008C7.49834 12.5594 7.41554 12.5014 7.33273 12.4269C7.18366 12.2695 7.09256 12.0542 7.09256 11.8389C7.09256 11.6236 7.18366 11.4083 7.33273 11.2509C7.41554 11.1764 7.50662 11.1184 7.606 11.077C7.80475 10.9942 8.03663 10.9942 8.23539 11.077C8.33476 11.1184 8.42585 11.1764 8.50866 11.2509C8.54178 11.2923 8.58319 11.3337 8.60803 11.3751C8.64116 11.4248 8.66602 11.4745 8.68259 11.5242C8.70743 11.5739 8.72399 11.6236 8.73227 11.6733C8.74055 11.7312 8.74882 11.7892 8.74882 11.8389C8.74882 12.0542 8.65772 12.2695 8.50866 12.4269C8.42585 12.5014 8.33476 12.5594 8.23539 12.6008C8.13601 12.6422 8.02835 12.667 7.92069 12.667Z" fill="#8E9AA0"/>
<path d="M10.8192 12.6671C10.7115 12.6671 10.6038 12.6423 10.5045 12.6009C10.3968 12.5595 10.314 12.5015 10.2312 12.427C10.0821 12.2696 9.99103 12.0543 9.99103 11.839C9.99103 11.7893 9.9993 11.7313 10.0076 11.6734C10.0159 11.6237 10.0324 11.574 10.0573 11.5243C10.0738 11.4746 10.0987 11.4249 10.1318 11.3753C10.1649 11.3339 10.1981 11.2925 10.2312 11.251C10.5376 10.9446 11.0924 10.9446 11.4071 11.251C11.4403 11.2925 11.4734 11.3339 11.5065 11.3753C11.5396 11.4249 11.5645 11.4746 11.5811 11.5243C11.6059 11.574 11.6225 11.6237 11.6307 11.6734C11.639 11.7313 11.6473 11.7893 11.6473 11.839C11.6473 12.0543 11.5562 12.2696 11.4071 12.427C11.2498 12.576 11.0428 12.6671 10.8192 12.6671Z" fill="#8E9AA0"/>
<path d="M7.92069 15.5655C7.81304 15.5655 7.70537 15.5406 7.606 15.4992C7.50662 15.4578 7.41554 15.3998 7.33273 15.3253C7.18366 15.168 7.09256 14.9526 7.09256 14.7373C7.09256 14.6876 7.10083 14.6297 7.10911 14.58C7.11739 14.522 7.13396 14.4723 7.1588 14.4226C7.17536 14.373 7.20023 14.3233 7.23335 14.2736C7.2582 14.2322 7.2996 14.1908 7.33273 14.1494C7.41554 14.0748 7.50662 14.0168 7.606 13.9754C7.80475 13.8926 8.03663 13.8926 8.23539 13.9754C8.33476 14.0168 8.42585 14.0748 8.50866 14.1494C8.54178 14.1908 8.58319 14.2322 8.60803 14.2736C8.64116 14.3233 8.66602 14.373 8.68259 14.4226C8.70743 14.4723 8.72399 14.522 8.73227 14.58C8.74055 14.6297 8.74882 14.6876 8.74882 14.7373C8.74882 14.9526 8.65772 15.168 8.50866 15.3253C8.42585 15.3998 8.33476 15.4578 8.23539 15.4992C8.13601 15.5406 8.02835 15.5655 7.92069 15.5655Z" fill="#8E9AA0"/>
<path d="M17.8583 8.80787H3.78003C3.4405 8.80787 3.15894 8.52631 3.15894 8.18677C3.15894 7.84724 3.4405 7.56567 3.78003 7.56567H17.8583C18.1978 7.56567 18.4794 7.84724 18.4794 8.18677C18.4794 8.52631 18.1978 8.80787 17.8583 8.80787Z" fill="#8E9AA0"/>
<path d="M13.9827 19.524C13.668 19.524 13.3699 19.4081 13.1545 19.1928C12.8978 18.936 12.7819 18.5634 12.8398 18.1741L12.9972 17.0562C13.0386 16.7663 13.2125 16.4185 13.4195 16.2115L16.3511 13.2799C16.7486 12.8824 17.1379 12.6753 17.5602 12.6339C18.0819 12.5843 18.5871 12.7996 19.0674 13.2799C19.5726 13.785 20.2516 14.8119 19.0674 15.9962L16.1358 18.9278C15.9288 19.1348 15.581 19.3087 15.2911 19.3501L14.1731 19.5075C14.1069 19.5157 14.0489 19.524 13.9827 19.524ZM17.701 13.8679C17.6927 13.8679 17.6844 13.8679 17.6761 13.8679C17.5602 13.8762 17.4028 13.9838 17.2289 14.1577L14.2974 17.0893C14.2725 17.1141 14.2311 17.197 14.2311 17.2301L14.082 18.2653L15.1172 18.1162C15.1503 18.1079 15.2331 18.0665 15.258 18.0416L18.1896 15.1101C18.554 14.7457 18.6036 14.5635 18.1896 14.1494C18.0571 14.0252 17.8666 13.8679 17.701 13.8679Z" fill="#8E9AA0"/>
<path d="M18.2062 16.6008C18.1482 16.6008 18.0902 16.5925 18.0405 16.5759C16.9474 16.2695 16.0779 15.4 15.7715 14.3068C15.6804 13.9756 15.8708 13.636 16.2021 13.5367C16.5333 13.4456 16.8729 13.636 16.9722 13.9673C17.1627 14.6464 17.701 15.1846 18.3801 15.3751C18.7113 15.4662 18.9018 15.814 18.8107 16.1453C18.7279 16.4186 18.4795 16.6008 18.2062 16.6008Z" fill="#8E9AA0"/>
<path d="M10.8192 19.4992H7.50663C4.48395 19.4992 2.74487 17.7601 2.74487 14.7374V7.69829C2.74487 4.6756 4.48395 2.93652 7.50663 2.93652H14.1317C17.1544 2.93652 18.8935 4.6756 18.8935 7.69829V10.5967C18.8935 10.9363 18.6119 11.2178 18.2724 11.2178C17.9328 11.2178 17.6513 10.9363 17.6513 10.5967V7.69829C17.6513 5.32983 16.5002 4.17872 14.1317 4.17872H7.50663C5.13818 4.17872 3.98707 5.32983 3.98707 7.69829V14.7374C3.98707 17.1059 5.13818 18.257 7.50663 18.257H10.8192C11.1587 18.257 11.4403 18.5385 11.4403 18.8781C11.4403 19.2176 11.1587 19.4992 10.8192 19.4992Z" fill="#8E9AA0"/>
</svg>
