<svg width="20" height="21" viewBox="0 0 20 21" fill="none" xmlns="http://www.w3.org/2000/svg">
<path d="M7.59179 10.3787C7.56695 10.3787 7.55039 10.3787 7.52554 10.3787C7.48414 10.3705 7.42617 10.3705 7.37648 10.3787C4.9749 10.3042 3.16129 8.41608 3.16129 6.08902C3.16129 3.72056 5.09083 1.79102 7.45929 1.79102C9.82775 1.79102 11.7573 3.72056 11.7573 6.08902C11.749 8.41608 9.92713 10.3042 7.61664 10.3787C7.60836 10.3787 7.60008 10.3787 7.59179 10.3787ZM7.45929 3.03321C5.77818 3.03321 4.40348 4.40791 4.40348 6.08902C4.40348 7.74529 5.69537 9.07858 7.34335 9.13655C7.39304 9.12827 7.5007 9.12827 7.60836 9.13655C9.2315 9.06202 10.5068 7.72873 10.5151 6.08902C10.5151 4.40791 9.1404 3.03321 7.45929 3.03321Z" fill="#8E9AA0"/>
<path d="M13.7034 10.4864C13.6786 10.4864 13.6537 10.4864 13.6289 10.4781C13.2893 10.5112 12.9415 10.2711 12.9084 9.93154C12.8753 9.59201 13.0823 9.2856 13.4218 9.24419C13.5212 9.23591 13.6289 9.23591 13.72 9.23591C14.929 9.16966 15.8731 8.1759 15.8731 6.95855C15.8731 5.69979 14.8545 4.68118 13.5958 4.68118C13.2562 4.68946 12.9747 4.4079 12.9747 4.06837C12.9747 3.72883 13.2562 3.44727 13.5958 3.44727C15.5336 3.44727 17.1153 5.029 17.1153 6.96683C17.1153 8.87153 15.6247 10.4119 13.7283 10.4864C13.72 10.4864 13.7117 10.4864 13.7034 10.4864Z" fill="#8E9AA0"/>
<path d="M7.60005 19.4302C5.97691 19.4302 4.34549 19.0161 3.11157 18.188C1.96047 17.4261 1.33109 16.3826 1.33109 15.2481C1.33109 14.1135 1.96047 13.0618 3.11157 12.2917C5.59597 10.6437 9.62069 10.6437 12.0885 12.2917C13.2313 13.0535 13.869 14.097 13.869 15.2315C13.869 16.3661 13.2396 17.4178 12.0885 18.188C10.8463 19.0161 9.22319 19.4302 7.60005 19.4302ZM3.79892 13.3351C3.00391 13.8651 2.57328 14.5442 2.57328 15.2564C2.57328 15.9603 3.01219 16.6393 3.79892 17.1611C5.86097 18.5441 9.33913 18.5441 11.4012 17.1611C12.1962 16.6311 12.6268 15.952 12.6268 15.2398C12.6268 14.5359 12.1879 13.8568 11.4012 13.3351C9.33913 11.9604 5.86097 11.9604 3.79892 13.3351Z" fill="#8E9AA0"/>
<path d="M15.194 17.9396C14.9042 17.9396 14.6475 17.7409 14.5895 17.4428C14.5232 17.1032 14.7386 16.7803 15.0698 16.7057C15.5915 16.5981 16.0718 16.391 16.4445 16.1012C16.9165 15.7451 17.1733 15.2979 17.1733 14.8259C17.1733 14.3538 16.9165 13.9066 16.4528 13.5588C16.0884 13.2773 15.6329 13.0785 15.0947 12.9543C14.7634 12.8798 14.5481 12.5485 14.6226 12.209C14.6971 11.8777 15.0284 11.6624 15.3679 11.7369C16.0801 11.8943 16.7012 12.1758 17.2064 12.5651C17.9766 13.1448 18.4155 13.9646 18.4155 14.8259C18.4155 15.6871 17.9683 16.507 17.1981 17.095C16.6847 17.4925 16.0387 17.7823 15.3265 17.9231C15.2768 17.9396 15.2354 17.9396 15.194 17.9396Z" fill="#8E9AA0"/>
</svg>
