<svg width="25" height="25" viewBox="0 0 25 25" fill="none" xmlns="http://www.w3.org/2000/svg">
<path d="M10.07 19.3201C9.88 19.3201 9.69 19.2501 9.54 19.1001L3.47 13.0301C3.18 12.7401 3.18 12.2601 3.47 11.9701L9.54 5.90012C9.83 5.61012 10.31 5.61012 10.6 5.90012C10.89 6.19012 10.89 6.67012 10.6 6.96012L5.06 12.5001L10.6 18.0401C10.89 18.3301 10.89 18.8101 10.6 19.1001C10.46 19.2501 10.26 19.3201 10.07 19.3201Z" fill="#00C3B4"/>
<path d="M21 13.25H4.17001C3.76001 13.25 3.42001 12.91 3.42001 12.5C3.42001 12.09 3.76001 11.75 4.17001 11.75H21C21.41 11.75 21.75 12.09 21.75 12.5C21.75 12.91 21.41 13.25 21 13.25Z" fill="#00C3B4"/>
</svg>
