<svg width="19" height="19" viewBox="0 0 19 19" fill="none" xmlns="http://www.w3.org/2000/svg">
<path d="M12.351 17.7237H6.20191C2.65081 17.7237 1.98979 16.0712 1.82069 14.4647L1.24421 8.30793C1.15966 7.50086 1.1366 6.30947 1.93598 5.41785C2.62775 4.64922 3.77302 4.28027 5.43328 4.28027H13.1196C14.7876 4.28027 15.9328 4.6569 16.6169 5.41785C17.4163 6.30947 17.3933 7.50086 17.3087 8.31561L16.7322 14.457C16.5631 16.0711 15.9021 17.7237 12.351 17.7237ZM5.43328 5.42554C4.13428 5.42554 3.24266 5.67919 2.78917 6.18649C2.41254 6.60155 2.28955 7.23952 2.38948 8.19263L2.96595 14.3494C3.09662 15.5639 3.42714 16.5708 6.20191 16.5708H12.351C15.1181 16.5708 15.4563 15.5639 15.587 14.3417L16.1634 8.20032C16.2634 7.23952 16.1404 6.60155 15.7637 6.18649C15.3103 5.67919 14.4186 5.42554 13.1196 5.42554H5.43328Z" fill="#8E9AA0"/>
<path d="M12.3511 5.4255C12.0359 5.4255 11.7746 5.16416 11.7746 4.84902V4.23411C11.7746 2.86594 11.7746 2.35095 9.89142 2.35095H8.6616C6.77844 2.35095 6.77844 2.86594 6.77844 4.23411V4.84902C6.77844 5.16416 6.51711 5.4255 6.20197 5.4255C5.88682 5.4255 5.62549 5.16416 5.62549 4.84902V4.23411C5.62549 2.88131 5.62549 1.198 8.6616 1.198H9.89142C12.9275 1.198 12.9275 2.88131 12.9275 4.23411V4.84902C12.9275 5.16416 12.6662 5.4255 12.3511 5.4255Z" fill="#8E9AA0"/>
<path d="M9.27635 13.1118C7.1626 13.1118 7.1626 11.8051 7.1626 11.0211V10.2294C7.1626 9.14561 7.42393 8.88428 8.50771 8.88428H10.045C11.1288 8.88428 11.3901 9.14561 11.3901 10.2294V10.998C11.3901 11.7974 11.3901 13.1118 9.27635 13.1118ZM8.31555 10.0372C8.31555 10.0987 8.31555 10.1679 8.31555 10.2294V11.0211C8.31555 11.8128 8.31555 11.9588 9.27635 11.9588C10.2371 11.9588 10.2371 11.8358 10.2371 11.0134V10.2294C10.2371 10.1679 10.2371 10.0987 10.2371 10.0372C10.1757 10.0372 10.1065 10.0372 10.045 10.0372H8.50771C8.44622 10.0372 8.37704 10.0372 8.31555 10.0372Z" fill="#8E9AA0"/>
<path d="M10.8138 11.5899C10.5294 11.5899 10.2758 11.3747 10.245 11.0826C10.2066 10.7674 10.4295 10.4754 10.7446 10.4369C12.7738 10.1833 14.7185 9.41465 16.3557 8.22326C16.6093 8.0311 16.9706 8.09259 17.1628 8.35393C17.3472 8.60758 17.2934 8.96884 17.0321 9.16099C15.2335 10.4677 13.112 11.3055 10.883 11.5899C10.8599 11.5899 10.8369 11.5899 10.8138 11.5899Z" fill="#8E9AA0"/>
<path d="M7.73911 11.5976C7.71605 11.5976 7.69299 11.5976 7.66993 11.5976C5.56387 11.3593 3.51161 10.5907 1.73606 9.37626C1.47472 9.19947 1.40554 8.83822 1.58233 8.57688C1.75912 8.31554 2.12038 8.24636 2.38171 8.42315C4.00353 9.52999 5.87132 10.2294 7.79291 10.4524C8.10805 10.4908 8.33864 10.7752 8.30021 11.0903C8.27715 11.3824 8.03119 11.5976 7.73911 11.5976Z" fill="#8E9AA0"/>
</svg>
