<svg width="25" height="25" viewBox="0 0 25 25" fill="none" xmlns="http://www.w3.org/2000/svg">
<path d="M16.8757 23.2952H8.87572C4.25572 23.2952 3.39572 21.1452 3.17572 19.0552L2.42572 11.0452C2.31572 9.99518 2.28572 8.44518 3.32572 7.28518C4.22572 6.28518 5.71572 5.80518 7.87572 5.80518H17.8757C20.0457 5.80518 21.5357 6.29518 22.4257 7.28518C23.4657 8.44518 23.4357 9.99518 23.3257 11.0552L22.5757 19.0452C22.3557 21.1452 21.4957 23.2952 16.8757 23.2952ZM7.87572 7.29518C6.18572 7.29518 5.02572 7.62518 4.43572 8.28518C3.94572 8.82518 3.78572 9.65518 3.91572 10.8952L4.66572 18.9052C4.83572 20.4852 5.26572 21.7952 8.87572 21.7952H16.8757C20.4757 21.7952 20.9157 20.4852 21.0857 18.8952L21.8357 10.9052C21.9657 9.65518 21.8057 8.82518 21.3157 8.28518C20.7257 7.62518 19.5657 7.29518 17.8757 7.29518H7.87572Z" fill="white"/>
<path d="M16.8755 7.29517C16.4655 7.29517 16.1255 6.95517 16.1255 6.54517V5.74517C16.1255 3.96517 16.1255 3.29517 13.6755 3.29517H12.0755C9.62549 3.29517 9.62549 3.96517 9.62549 5.74517V6.54517C9.62549 6.95517 9.28549 7.29517 8.87549 7.29517C8.46549 7.29517 8.12549 6.95517 8.12549 6.54517V5.74517C8.12549 3.98517 8.12549 1.79517 12.0755 1.79517H13.6755C17.6255 1.79517 17.6255 3.98517 17.6255 5.74517V6.54517C17.6255 6.95517 17.2855 7.29517 16.8755 7.29517Z" fill="white"/>
<path d="M12.8755 17.2952C10.1255 17.2952 10.1255 15.5952 10.1255 14.5752V13.5452C10.1255 12.1352 10.4655 11.7952 11.8755 11.7952H13.8755C15.2855 11.7952 15.6255 12.1352 15.6255 13.5452V14.5452C15.6255 15.5852 15.6255 17.2952 12.8755 17.2952ZM11.6255 13.2952C11.6255 13.3752 11.6255 13.4652 11.6255 13.5452V14.5752C11.6255 15.6052 11.6255 15.7952 12.8755 15.7952C14.1255 15.7952 14.1255 15.6352 14.1255 14.5652V13.5452C14.1255 13.4652 14.1255 13.3752 14.1255 13.2952C14.0455 13.2952 13.9555 13.2952 13.8755 13.2952H11.8755C11.7955 13.2952 11.7055 13.2952 11.6255 13.2952Z" fill="white"/>
<path d="M14.8755 15.3152C14.5055 15.3152 14.1755 15.0352 14.1355 14.6552C14.0855 14.2452 14.3755 13.8652 14.7855 13.8152C17.4255 13.4852 19.9555 12.4852 22.0855 10.9352C22.4155 10.6852 22.8855 10.7652 23.1355 11.1052C23.3755 11.4352 23.3055 11.9052 22.9655 12.1552C20.6255 13.8552 17.8655 14.9452 14.9655 15.3152C14.9355 15.3152 14.9055 15.3152 14.8755 15.3152Z" fill="white"/>
<path d="M10.8757 15.3252C10.8457 15.3252 10.8157 15.3252 10.7857 15.3252C8.04572 15.0152 5.37572 14.0152 3.06572 12.4352C2.72572 12.2052 2.63572 11.7352 2.86572 11.3952C3.09572 11.0552 3.56572 10.9652 3.90572 11.1952C6.01572 12.6352 8.44572 13.5452 10.9457 13.8352C11.3557 13.8852 11.6557 14.2552 11.6057 14.6652C11.5757 15.0452 11.2557 15.3252 10.8757 15.3252Z" fill="white"/>
</svg>
