<svg width="22" height="22" viewBox="0 0 22 22" fill="none" xmlns="http://www.w3.org/2000/svg">
<g id="vuesax/bold/call-calling">
<g id="vuesax/bold/call-calling_2">
<g id="call-calling">
<path id="Vector" d="M6.32993 9.86681C6.70407 9.86681 6.9999 9.56228 6.9999 9.19684C6.9999 8.87491 7.32183 8.20495 7.86128 7.62199C8.39204 7.05643 8.97499 6.7258 9.46224 6.7258C9.83638 6.7258 10.1322 6.42127 10.1322 6.05583C10.1322 5.69039 9.82768 5.38586 9.46224 5.38586C8.59216 5.38586 7.67857 5.85571 6.87809 6.6997C6.12981 7.49147 5.65126 8.47467 5.65126 9.18814C5.65126 9.56228 5.95579 9.86681 6.32993 9.86681Z" fill="#00D9C8"/>
<path id="Vector_2" d="M3.18891 9.86674C3.56305 9.86674 3.85888 9.56221 3.85888 9.19677C3.85888 6.10796 6.37343 3.60211 9.45354 3.60211C9.82768 3.60211 10.1235 3.29758 10.1235 2.93215C10.1235 2.56671 9.82767 2.25348 9.46224 2.25348C5.63386 2.25348 2.51895 5.36839 2.51895 9.19677C2.51895 9.56221 2.82348 9.86674 3.18891 9.86674Z" fill="#00D9C8"/>
<path id="Vector_3" d="M12.0464 13.5211L13.6561 15.1308C13.9954 15.4701 14.5348 15.4701 14.8829 15.1395C14.9786 15.0438 15.0743 14.9567 15.17 14.861C16.0662 13.9561 16.8754 13.0078 17.5976 12.0159C18.311 11.024 18.8853 10.0321 19.3029 9.04886C19.7119 8.05696 19.9207 7.10856 19.9207 6.20367C19.9207 5.61201 19.8163 5.04646 19.6075 4.52441C19.3986 3.99365 19.068 3.5064 18.6069 3.07136C18.05 2.52321 17.4409 2.25348 16.7971 2.25348C16.5534 2.25348 16.3098 2.30568 16.0923 2.41009C15.8661 2.51451 15.666 2.67112 15.5093 2.89734L13.4907 5.74253C13.3341 5.96005 13.221 6.16017 13.1427 6.35159C13.0644 6.53431 13.0209 6.71702 13.0209 6.88234C13.0209 7.09116 13.0818 7.29998 13.2036 7.5001C13.3167 7.70022 13.482 7.90904 13.6909 8.11786L14.3521 8.80523C14.4478 8.90094 14.4913 9.01405 14.4913 9.15327C14.4913 9.22287 14.4826 9.28378 14.4652 9.35339C14.4391 9.42299 14.413 9.4752 14.3956 9.5274C14.239 9.81453 13.9693 10.1887 13.5865 10.6411C13.1949 11.0936 12.7773 11.5547 12.3248 12.0159C12.2378 12.1029 12.1421 12.1899 12.0551 12.2769C11.7071 12.6162 11.6984 13.1731 12.0464 13.5211Z" fill="#00D9C8"/>
<path id="Vector_4" d="M2.54506 16.462C2.54506 16.7057 2.58856 16.958 2.67557 17.2016C2.70167 17.2712 2.72778 17.3408 2.76258 17.4104C2.91049 17.7237 3.10191 18.0195 3.35424 18.2979C3.78058 18.7678 4.25043 19.1071 4.78118 19.3246C4.78988 19.3246 4.79858 19.3333 4.80728 19.3333C5.32063 19.5421 5.87749 19.6553 6.47785 19.6553C7.36534 19.6553 8.31373 19.4464 9.31433 19.0201C10.3149 18.5938 11.3155 18.0195 12.3074 17.2973C12.6468 17.045 12.9861 16.7927 13.308 16.5229L10.4628 13.6778C10.2192 13.8605 10.0017 13.9997 9.81898 14.0954C9.77548 14.1128 9.72327 14.1389 9.66237 14.165C9.59276 14.1911 9.52315 14.1998 9.44484 14.1998C9.29693 14.1998 9.18382 14.1476 9.08811 14.0519L8.42684 13.3993C8.20932 13.1818 8.0005 13.0165 7.80038 12.9121C7.60026 12.7903 7.40014 12.7294 7.18262 12.7294C7.0173 12.7294 6.84329 12.7642 6.65187 12.8425C6.46045 12.9208 6.26033 13.0339 6.04281 13.1818L3.16282 15.2265C2.9366 15.3831 2.77998 15.5659 2.68427 15.7834C2.59726 16.0009 2.54506 16.2184 2.54506 16.462Z" fill="#00D9C8"/>
</g>
</g>
</g>
</svg>
