<svg width="25" height="25" viewBox="0 0 25 25" fill="none" xmlns="http://www.w3.org/2000/svg">
<path d="M19.1649 11.72H17.1649C14.7449 11.72 13.4149 10.39 13.4149 7.96997V5.96997C13.4149 3.54997 14.7449 2.21997 17.1649 2.21997H19.1649C21.5849 2.21997 22.9149 3.54997 22.9149 5.96997V7.96997C22.9149 10.39 21.5849 11.72 19.1649 11.72ZM17.1649 3.71997C15.5849 3.71997 14.9149 4.38997 14.9149 5.96997V7.96997C14.9149 9.54997 15.5849 10.22 17.1649 10.22H19.1649C20.7449 10.22 21.4149 9.54997 21.4149 7.96997V5.96997C21.4149 4.38997 20.7449 3.71997 19.1649 3.71997H17.1649Z" fill="#667372"/>
<path d="M7.16486 23.72H5.16486C2.74486 23.72 1.41486 22.39 1.41486 19.97V17.97C1.41486 15.55 2.74486 14.22 5.16486 14.22H7.16486C9.58486 14.22 10.9149 15.55 10.9149 17.97V19.97C10.9149 22.39 9.58486 23.72 7.16486 23.72ZM5.16486 15.72C3.58486 15.72 2.91486 16.39 2.91486 17.97V19.97C2.91486 21.55 3.58486 22.22 5.16486 22.22H7.16486C8.74486 22.22 9.41486 21.55 9.41486 19.97V17.97C9.41486 16.39 8.74486 15.72 7.16486 15.72H5.16486Z" fill="#667372"/>
<path d="M6.16486 11.72C3.54486 11.72 1.41486 9.58997 1.41486 6.96997C1.41486 4.34997 3.54486 2.21997 6.16486 2.21997C8.78486 2.21997 10.9149 4.34997 10.9149 6.96997C10.9149 9.58997 8.78486 11.72 6.16486 11.72ZM6.16486 3.71997C4.37486 3.71997 2.91486 5.17997 2.91486 6.96997C2.91486 8.75997 4.37486 10.22 6.16486 10.22C7.95486 10.22 9.41486 8.75997 9.41486 6.96997C9.41486 5.17997 7.95486 3.71997 6.16486 3.71997Z" fill="#667372"/>
<path d="M18.1649 23.72C15.5449 23.72 13.4149 21.59 13.4149 18.97C13.4149 16.35 15.5449 14.22 18.1649 14.22C20.7849 14.22 22.9149 16.35 22.9149 18.97C22.9149 21.59 20.7849 23.72 18.1649 23.72ZM18.1649 15.72C16.3749 15.72 14.9149 17.18 14.9149 18.97C14.9149 20.76 16.3749 22.22 18.1649 22.22C19.9549 22.22 21.4149 20.76 21.4149 18.97C21.4149 17.18 19.9549 15.72 18.1649 15.72Z" fill="#667372"/>
</svg>
