<svg width="25" height="25" viewBox="0 0 25 25" fill="none" xmlns="http://www.w3.org/2000/svg">
<g id="icon/check-circle">
<path id="Vector" d="M10.9604 14.4897L8.11458 11.6439L7.05426 12.705L10.9574 16.6081L19.9154 7.69809L19.5727 7.18517C17.9357 4.75258 15.1934 3.17334 12.0814 3.17334C7.11125 3.17334 3.08142 7.20242 3.08142 12.1733C3.08142 17.1443 7.1105 21.1733 12.0814 21.1733C17.0516 21.1733 21.0807 17.1443 21.0814 12.1748H19.5817C19.5817 12.1763 19.5817 12.1786 19.5817 12.1808C19.5817 16.3216 16.2252 19.6781 12.0844 19.6781C7.94361 19.6781 4.58717 16.3216 4.58717 12.1808C4.58717 8.04003 7.94361 4.68359 12.0844 4.68359C14.4593 4.68359 16.5762 5.78815 17.9499 7.51062L17.9619 7.52561L10.9604 14.4897Z" fill="#00D9C8"/>
</g>
</svg>
