<svg width="25" height="25" viewBox="0 0 25 25" fill="none" xmlns="http://www.w3.org/2000/svg">
<g id="asicon/outline/clock">
<g id="vuesax/outline/clock">
<g id="clock">
<path id="Vector" d="M12.8755 23.2952C6.94549 23.2952 2.12549 18.4752 2.12549 12.5452C2.12549 6.61517 6.94549 1.79517 12.8755 1.79517C18.8055 1.79517 23.6255 6.61517 23.6255 12.5452C23.6255 18.4752 18.8055 23.2952 12.8755 23.2952ZM12.8755 3.29517C7.77549 3.29517 3.62549 7.44517 3.62549 12.5452C3.62549 17.6452 7.77549 21.7952 12.8755 21.7952C17.9755 21.7952 22.1255 17.6452 22.1255 12.5452C22.1255 7.44517 17.9755 3.29517 12.8755 3.29517Z" fill="white"/>
<path id="Vector_2" d="M16.5856 16.4752C16.4556 16.4752 16.3256 16.4452 16.2056 16.3652L13.1056 14.5152C12.3356 14.0552 11.7656 13.0452 11.7656 12.1552V8.05518C11.7656 7.64518 12.1056 7.30518 12.5156 7.30518C12.9256 7.30518 13.2656 7.64518 13.2656 8.05518V12.1552C13.2656 12.5152 13.5656 13.0452 13.8756 13.2252L16.9756 15.0752C17.3356 15.2852 17.4456 15.7452 17.2356 16.1052C17.0856 16.3452 16.8356 16.4752 16.5856 16.4752Z" fill="white"/>
</g>
</g>
</g>
</svg>
