<svg width="832" height="583" viewBox="0 0 832 583" fill="none" xmlns="http://www.w3.org/2000/svg">
<g opacity="0.2" clip-path="url(#clip0_62_12412)">
<g style="mix-blend-mode:overlay">
<g opacity="0.6">
<path d="M110.761 121.893L106.872 124.138V128.629L110.761 130.874L114.65 128.629V124.138L110.761 121.893ZM110.761 121.352L115.111 123.858V128.889L110.761 131.395L106.411 128.889V123.858L110.761 121.352Z" fill="white"/>
</g>
<g style="mix-blend-mode:color-dodge">
<path d="M201.33 116.561L206.963 113.313L212.596 116.561V123.076L206.963 126.343L201.33 123.076V116.561Z" fill="white"/>
</g>
<g style="mix-blend-mode:overlay">
<path d="M78.9672 234.052L81.954 232.328L84.941 234.052V237.5L81.954 239.244L78.9672 237.5V234.052Z" fill="white"/>
</g>
<g style="mix-blend-mode:overlay">
<path d="M411.254 131.796L397.102 139.975V156.312L411.254 164.491L425.407 156.312V139.975L411.254 131.796ZM411.254 129.811L427.131 138.972V157.295L411.254 166.456L395.378 157.295V138.972L411.254 129.811Z" fill="white"/>
</g>
<g style="mix-blend-mode:overlay">
<path d="M350.113 115.057L342.536 119.427V128.167L350.113 132.538L357.691 128.167V119.427L350.113 115.057ZM350.113 113.995L358.613 118.906V128.709L350.113 133.62L341.613 128.709V118.906L350.113 113.995Z" fill="white"/>
</g>
<g style="mix-blend-mode:overlay">
<path d="M129.103 161.284L96.227 180.268V218.235L129.103 237.219L161.979 218.235V180.268L129.103 161.284ZM129.103 156.673L165.988 177.962V220.541L129.103 241.83L92.2177 220.541V177.962L129.103 156.673Z" fill="white"/>
</g>
<g style="mix-blend-mode:color-dodge" opacity="0.3">
<path d="M194.053 116.14L144.158 144.946V202.539L194.053 231.346L243.928 202.539V144.946L194.053 116.14ZM194.053 109.143L250.002 141.438V206.027L194.053 238.322L138.104 206.027V141.438L194.053 109.143Z" fill="white"/>
</g>
<g opacity="0.6">
<path d="M289.914 147.432L283.118 151.361V159.199L289.914 163.128L296.71 159.199V151.361L289.914 147.432ZM289.914 147.212L296.89 151.241V159.299L289.914 163.329L282.938 159.299V151.241L289.914 147.212Z" fill="white"/>
</g>
<g style="mix-blend-mode:overlay">
<path d="M6.35955 218.155L-0.716787 222.245V230.423L6.35955 234.513L13.4359 230.423V222.245L6.35955 218.155ZM6.35955 217.935L13.6364 222.144V230.544L6.35955 234.753L-0.917262 230.544V222.144L6.35955 217.935Z" fill="white"/>
</g>
<g style="mix-blend-mode:overlay">
<path d="M294.946 236.558L290.215 239.304V244.777L294.946 247.503L299.677 244.777V239.304L294.946 236.558ZM294.946 236.397L299.817 239.204V244.837L294.946 247.643L290.074 244.837V239.204L294.946 236.397Z" fill="white"/>
</g>
<g style="mix-blend-mode:overlay">
<path d="M27.3681 101.987L-11.5017 124.419V169.302L27.3681 191.734L66.2378 169.302V124.419L27.3681 101.987ZM27.3681 100.744L67.3203 123.817V169.944L27.3681 193.017L-12.5842 169.944V123.817L27.3681 100.744Z" fill="white"/>
</g>
<g style="mix-blend-mode:overlay">
<path d="M431.782 225.472L428.394 227.417V231.326L431.782 233.27L435.169 231.326V227.417L431.782 225.472ZM431.782 225.372L435.25 227.377V231.386L431.782 233.39L428.314 231.386V227.377L431.782 225.372Z" fill="white"/>
</g>
<g style="mix-blend-mode:overlay">
<path d="M368.556 176.619L325.677 201.377V250.891L368.556 275.648L411.435 250.891V201.377L368.556 176.619ZM368.556 175.236L412.637 200.675V251.572L368.556 277.011L324.474 251.572V200.675L368.556 175.236Z" fill="white"/>
</g>
<g style="mix-blend-mode:color-dodge">
<path d="M218.008 190.792L180.782 212.302V255.281L218.008 276.77L255.234 255.281V212.302L218.008 190.792ZM218.008 189.589L256.276 211.68V255.862L218.008 277.953L179.76 255.862V211.68L218.008 189.589Z" fill="white"/>
</g>
</g>
<g style="mix-blend-mode:overlay" opacity="0.3">
<g opacity="0.6">
<path d="M129.865 233.23L112.044 243.514V264.081L129.865 274.365L147.686 264.081V243.514L129.865 233.23ZM129.865 230.724L149.851 242.251V265.324L129.865 276.851L109.878 265.324V242.251L129.865 230.724Z" fill="white"/>
</g>
<g opacity="0.6">
<path d="M23.6194 256.965L-63.5017 307.261V407.853L23.6194 458.149L110.741 407.853V307.261L23.6194 256.965ZM23.6194 244.757L121.325 301.167V413.987L23.6194 470.397L-74.0862 413.987V301.167L23.6194 244.757Z" fill="white"/>
</g>
<g opacity="0.6">
<path d="M610.434 238.242L604.641 241.589V248.285L610.434 251.633L616.227 248.285V241.589L610.434 238.242ZM610.434 237.42L616.929 241.168V248.686L610.434 252.434L603.939 248.686V241.168L610.434 237.42Z" fill="white"/>
</g>
<g style="mix-blend-mode:color-dodge">
<path d="M745.786 230.283L754.226 225.412L762.645 230.283V240.006L754.226 244.877L745.786 240.006V230.283Z" fill="white"/>
</g>
<g style="mix-blend-mode:overlay">
<path d="M227.851 267.529L280.893 236.899L333.936 267.529V328.771L280.893 359.401L227.851 328.771V267.529Z" fill="white"/>
</g>
<g style="mix-blend-mode:overlay">
<path d="M562.904 405.869L567.375 403.283L571.845 405.869V411.041L567.375 413.627L562.904 411.041V405.869Z" fill="white"/>
</g>
<g style="mix-blend-mode:overlay">
<path d="M637.837 297.118L588.684 325.483V382.234L637.837 410.62L686.991 382.234V325.483L637.837 297.118ZM637.837 290.222L692.965 322.035V385.682L637.837 417.515L582.73 385.682V322.035L637.837 290.222Z" fill="white"/>
</g>
<g style="mix-blend-mode:overlay">
<path d="M-7.01138 227.878L-18.2172 234.353V247.282L-7.01138 253.757L4.19455 247.282V234.353L-7.01138 227.878ZM-7.01138 226.314L5.55768 233.571V248.064L-7.01138 255.321L-19.5804 248.064V233.571L-7.01138 226.314Z" fill="white"/>
</g>
<g style="mix-blend-mode:color-dodge">
<path d="M262.17 232.107L258.141 234.433V239.084L262.17 241.409L266.199 239.084V234.433L262.17 232.107ZM262.17 231.546L266.68 234.152V239.364L262.17 241.97L257.66 239.364V234.152L262.17 231.546Z" fill="white"/>
</g>
<g style="mix-blend-mode:color-dodge" opacity="0.3">
<path d="M734.921 229.622L660.349 272.661V358.74L734.921 401.779L809.473 358.74V272.661L734.921 229.622ZM734.921 219.177L818.534 267.449V363.992L734.921 412.263L651.308 363.992V267.449L734.921 219.177Z" fill="white"/>
</g>
<g style="mix-blend-mode:overlay">
<path d="M454.394 382.114L443.809 388.228V400.456L454.394 406.57L464.978 400.456V388.228L454.394 382.114ZM454.394 381.773L465.279 388.047V400.616L454.394 406.891L443.509 400.616V388.047L454.394 381.773Z" fill="white"/>
</g>
<g style="mix-blend-mode:overlay">
<path d="M485.786 208.493L427.692 242.03V309.105L485.786 342.643L543.88 309.105V242.03L485.786 208.493ZM485.786 206.629L545.504 241.108V310.047L485.786 344.527L426.088 310.047V241.108L485.786 206.629Z" fill="white"/>
</g>
<g style="mix-blend-mode:overlay">
<path d="M280.532 218.817L196.879 267.108V363.691L280.532 411.983L364.186 363.691V267.108L280.532 218.817ZM280.532 216.131L366.511 265.765V365.034L280.532 414.669L194.554 365.034V265.765L280.532 216.131Z" fill="white"/>
</g>
<g style="mix-blend-mode:color-dodge">
<path d="M770.704 341.219L715.076 373.354V437.602L770.704 469.736L826.352 437.602V373.354L770.704 341.219ZM770.704 339.435L827.896 372.472V438.504L770.704 471.52L713.532 438.504V372.472L770.704 339.435Z" fill="white"/>
</g>
<g style="mix-blend-mode:color-dodge">
<path d="M382.187 212.282L339.188 237.119V286.774L382.187 311.611L425.186 286.774V237.119L382.187 212.282ZM382.187 210.898L426.389 236.417V287.455L382.187 312.974L337.985 287.455V236.417L382.187 210.898Z" fill="white"/>
</g>
</g>
<g style="mix-blend-mode:overlay">
<g style="mix-blend-mode:overlay">
<path d="M73.8955 30.0209L50.3612 43.6122V70.7749L73.8955 84.3663L97.4298 70.7749V43.6122L73.8955 30.0209ZM73.8955 26.7333L100.276 41.9684V72.4187L73.8955 87.6539L47.5146 72.4187V41.9684L73.8955 26.7333Z" fill="white"/>
</g>
<g style="mix-blend-mode:overlay">
<path d="M107.994 185.7L102.381 188.948V195.443L107.994 198.69L113.607 195.443V188.948L107.994 185.7ZM107.994 185.52L113.767 188.847V195.523L107.994 198.851L102.221 195.523V188.847L107.994 185.52Z" fill="white"/>
</g>
<g style="mix-blend-mode:overlay">
<path d="M2.95163 104.493L-68.3129 145.628V227.918L2.95163 269.053L74.2162 227.918V145.628L2.95163 104.493ZM2.95163 102.208L76.1807 144.485V229.06L2.95163 271.338L-70.2974 229.06V144.485L2.95163 102.208Z" fill="white"/>
</g>
</g>
<g style="mix-blend-mode:overlay" opacity="0.3">
<g opacity="0.6">
<path d="M404.88 206.909L395.237 212.482V223.608L404.88 229.161L414.522 223.608V212.482L404.88 206.909ZM404.88 205.566L415.684 211.801V224.29L404.88 230.524L394.075 224.29V211.801L404.88 205.566Z" fill="white"/>
</g>
<g style="mix-blend-mode:color-dodge">
<path d="M629.799 193.679L643.811 185.6L657.823 193.679V209.856L643.811 217.955L629.799 209.856V193.679Z" fill="white"/>
</g>
<g style="mix-blend-mode:overlay">
<path d="M-152.427 171.929L-64.2834 121.031L23.8801 171.929V273.724L-64.2834 324.601L-152.427 273.724V171.929Z" fill="white"/>
</g>
<g style="mix-blend-mode:overlay">
<path d="M333.435 352.044L340.872 347.754L348.309 352.044V360.624L340.872 364.934L333.435 360.624V352.044Z" fill="white"/>
</g>
<g style="mix-blend-mode:overlay">
<path d="M450.425 304.735L368.756 351.884V446.182L450.425 493.351L532.093 446.182V351.884L450.425 304.735ZM450.425 293.289L542.016 346.171V451.915L450.425 504.817L358.833 451.915V346.171L450.425 293.289Z" fill="white"/>
</g>
<g style="mix-blend-mode:color-dodge" opacity="0.3">
<path d="M611.737 192.596L487.831 264.121V407.172L611.737 478.697L735.643 407.172V264.121L611.737 192.596ZM611.737 175.236L750.678 255.441V415.852L611.737 496.057L472.796 415.852V255.441L611.737 175.236Z" fill="white"/>
</g>
<g style="mix-blend-mode:overlay">
<path d="M145.561 445.981L127.98 456.145V476.451L145.561 486.615L163.162 476.451V456.145L145.561 445.981ZM145.561 445.42L163.643 455.864V476.732L145.561 487.176L127.479 476.732V455.864L145.561 445.42Z" fill="white"/>
</g>
<g style="mix-blend-mode:overlay">
<path d="M197.741 157.455L101.219 213.184V324.661L197.741 380.39L294.284 324.661V213.184L197.741 157.455ZM197.741 154.348L296.97 211.62V326.185L197.741 383.457L98.5323 326.185V211.62L197.741 154.348Z" fill="white"/>
</g>
<g style="mix-blend-mode:color-dodge">
<path d="M667.225 363.651L574.792 417.055V523.821L667.225 577.204L759.699 523.821V417.055L667.225 363.651ZM667.225 360.684L762.265 415.571V525.304L667.225 580.171L572.226 525.304V415.571L667.225 360.684Z" fill="white"/>
</g>
<g style="mix-blend-mode:color-dodge">
<path d="M25.584 163.77L-45.8609 205.045V287.576L25.584 328.831L97.0489 287.576V205.045L25.584 163.77ZM25.584 161.464L99.0336 203.882V288.698L25.584 331.096L-47.8655 288.698V203.882L25.584 161.464Z" fill="white"/>
</g>
</g>
<g style="mix-blend-mode:overlay">
<path d="M4.77591 464.704L61.2864 432.089V366.838L4.77591 334.223L-51.7345 366.838V432.089L4.77591 464.704ZM4.77591 467.29L-53.9596 433.372V365.555L4.77591 331.637L63.5115 365.555V433.372L4.77591 467.29Z" fill="white"/>
</g>
<g style="mix-blend-mode:overlay" opacity="0.6">
<path d="M454.935 271.919L449.142 275.267V281.962L454.935 285.31L460.728 281.962V275.267L454.935 271.919ZM454.935 271.097L461.43 274.846V282.363L454.935 286.112L448.44 282.363V274.846L454.935 271.097Z" fill="white"/>
</g>
<g style="mix-blend-mode:overlay">
<path d="M590.288 263.961L598.727 259.09L607.146 263.961V273.703L598.727 278.555L590.288 273.703V263.961Z" fill="white"/>
</g>
<g style="mix-blend-mode:overlay">
<path d="M407.405 439.546L411.876 436.96L416.366 439.546V444.718L411.876 447.304L407.405 444.718V439.546Z" fill="white"/>
</g>
<g style="mix-blend-mode:overlay">
<path d="M812.681 261.696L801.355 268.231V281.301L812.681 287.836L824.007 281.301V268.231L812.681 261.696ZM812.681 260.112L825.37 267.449V282.103L812.681 289.44L799.992 282.103V267.449L812.681 260.112Z" fill="white"/>
</g>
<g style="mix-blend-mode:overlay" opacity="0.4">
<path d="M482.338 330.795L433.185 359.161V415.912L482.338 444.297L531.492 415.912V359.161L482.338 330.795ZM482.338 323.899L537.466 355.713V419.36L482.338 451.193L427.231 419.36V355.713L482.338 323.899Z" fill="white"/>
</g>
<g style="mix-blend-mode:overlay">
<path d="M106.691 265.785L102.662 268.11V272.761L106.691 275.087L110.72 272.761V268.11L106.691 265.785ZM106.691 265.224L111.202 267.83V273.042L106.691 275.648L102.181 273.042V267.83L106.691 265.224Z" fill="white"/>
</g>
<g style="mix-blend-mode:overlay" opacity="0.3">
<path d="M579.422 263.299L504.85 306.339V392.418L579.422 435.457L653.975 392.418V306.339L579.422 263.299ZM579.422 252.855L663.035 301.127V397.67L579.422 445.941L495.809 397.67V301.127L579.422 252.855Z" fill="white"/>
</g>
<g style="mix-blend-mode:overlay" opacity="0.6">
<path d="M722.693 310.108L712.53 315.961V327.688L722.693 333.562L732.837 327.688V315.961L722.693 310.108ZM722.693 309.787L733.117 315.821V327.869L722.693 333.903L712.249 327.869V315.821L722.693 309.787Z" fill="white"/>
</g>
<g style="mix-blend-mode:overlay">
<path d="M298.895 415.791L288.31 421.906V434.134L298.895 440.248L309.479 434.134V421.906L298.895 415.791ZM298.895 415.451L309.78 421.725V434.294L298.895 440.569L288.01 434.294V421.725L298.895 415.451Z" fill="white"/>
</g>
<g style="mix-blend-mode:overlay">
<path d="M730.231 443.295L723.154 447.384V455.563L730.231 459.653L737.327 455.563V447.384L730.231 443.295ZM730.231 443.074L737.507 447.284V455.684L730.231 459.893L722.954 455.684V447.284L730.231 443.074Z" fill="white"/>
</g>
<g style="mix-blend-mode:overlay">
<path d="M330.287 242.171L272.193 275.708V342.783L330.287 376.32L388.381 342.783V275.708L330.287 242.171ZM330.287 240.306L390.005 274.786V343.725L330.287 378.205L270.59 343.725V274.786L330.287 240.306Z" fill="white"/>
</g>
<g style="mix-blend-mode:overlay">
<path d="M125.054 252.515L41.4005 300.806V397.389L125.054 445.68L208.707 397.389V300.806L125.054 252.515ZM125.054 249.828L211.032 299.463V398.732L125.054 448.367L39.0751 398.732V299.463L125.054 249.828Z" fill="white"/>
</g>
<g style="mix-blend-mode:overlay">
<path d="M831.825 496.838L776.157 464.704V390.693L831.825 358.559V356.515L774.372 389.671V465.747L831.825 498.903V496.838Z" fill="white"/>
</g>
<g style="mix-blend-mode:overlay">
<path d="M615.205 374.917L559.577 407.051V471.3L615.205 503.434L670.853 471.3V407.051L615.205 374.917ZM615.205 373.133L672.397 406.169V472.202L615.205 505.218L558.033 472.202V406.169L615.205 373.133Z" fill="white"/>
</g>
<g style="mix-blend-mode:overlay">
<path d="M226.688 245.959L183.689 270.797V320.451L226.688 345.289L269.687 320.451V270.797L226.688 245.959ZM226.688 244.576L270.89 270.095V321.133L226.688 346.652L182.486 321.133V270.095L226.688 244.576Z" fill="white"/>
</g>
</g>
<defs>
<clipPath id="clip0_62_12412">
<rect width="1093.83" height="582.324" fill="white" transform="matrix(-1 0 0 1 831.825 0.452637)"/>
</clipPath>
</defs>
</svg>
