<svg width="39" height="38" viewBox="0 0 39 38" fill="none" xmlns="http://www.w3.org/2000/svg">
<rect x="0.768738" width="38" height="38" rx="19" fill="#F4F4F4"/>
<path d="M19.7687 19.5625C17.3912 19.5625 15.4562 17.6275 15.4562 15.25C15.4562 12.8725 17.3912 10.9375 19.7687 10.9375C22.1462 10.9375 24.0812 12.8725 24.0812 15.25C24.0812 17.6275 22.1462 19.5625 19.7687 19.5625ZM19.7687 12.0625C18.0137 12.0625 16.5812 13.495 16.5812 15.25C16.5812 17.005 18.0137 18.4375 19.7687 18.4375C21.5237 18.4375 22.9562 17.005 22.9562 15.25C22.9562 13.495 21.5237 12.0625 19.7687 12.0625Z" fill="#292D32"/>
<path d="M26.2113 27.0625C25.9038 27.0625 25.6488 26.8075 25.6488 26.5C25.6488 23.9125 23.0089 21.8125 19.7689 21.8125C16.5289 21.8125 13.8889 23.9125 13.8889 26.5C13.8889 26.8075 13.6339 27.0625 13.3264 27.0625C13.0189 27.0625 12.7639 26.8075 12.7639 26.5C12.7639 23.2975 15.9064 20.6875 19.7689 20.6875C23.6314 20.6875 26.7738 23.2975 26.7738 26.5C26.7738 26.8075 26.5188 27.0625 26.2113 27.0625Z" fill="#292D32"/>
</svg>
