<svg width="943" height="238" viewBox="0 0 943 238" fill="none" xmlns="http://www.w3.org/2000/svg">
<g opacity="0.2" clip-path="url(#clip0_62_12211)">
<g style="mix-blend-mode:overlay">
<g style="mix-blend-mode:overlay">
<path d="M189.967 88.5539L192.954 86.8299L195.941 88.5539V92.0018L192.954 93.7459L189.967 92.0018V88.5539Z" fill="white"/>
</g>
<g style="mix-blend-mode:overlay">
<path d="M522.254 -13.7023L508.102 -5.52337V10.8143L522.254 18.9932L536.407 10.8143V-5.52337L522.254 -13.7023ZM522.254 -15.6868L538.131 -6.52568V11.7966L522.254 20.9578L506.378 11.7966V-6.52568L522.254 -15.6868Z" fill="white"/>
</g>
<g style="mix-blend-mode:overlay">
<path d="M240.103 15.7859L207.227 34.7697V72.7373L240.103 91.7212L272.979 72.7373V34.7697L240.103 15.7859ZM240.103 11.1752L276.988 32.4644V75.0427L240.103 96.3318L203.218 75.0427V32.4644L240.103 11.1752Z" fill="white"/>
</g>
<g style="mix-blend-mode:color-dodge" opacity="0.3">
<path d="M305.053 -29.3585L255.158 -0.551962V57.041L305.053 85.8475L354.928 57.041V-0.551962L305.053 -29.3585ZM305.053 -36.3546L361.002 -4.06006V60.529L305.053 92.8236L249.104 60.529V-4.06006L305.053 -36.3546Z" fill="white"/>
</g>
<g opacity="0.6">
<path d="M400.914 1.93401L394.118 5.86308V13.7012L400.914 17.6302L407.71 13.7012V5.86308L400.914 1.93401ZM400.914 1.7135L407.89 5.74281V13.8014L400.914 17.8307L393.938 13.8014V5.74281L400.914 1.7135Z" fill="white"/>
</g>
<g style="mix-blend-mode:overlay">
<path d="M117.36 72.657L110.283 76.7465V84.9254L117.36 89.0148L124.436 84.9254V76.7465L117.36 72.657ZM117.36 72.4365L124.636 76.6462V85.0456L117.36 89.2553L110.083 85.0456V76.6462L117.36 72.4365Z" fill="white"/>
</g>
<g style="mix-blend-mode:overlay">
<path d="M405.946 91.0597L401.215 93.8061V99.2787L405.946 102.005L410.677 99.2787V93.8061L405.946 91.0597ZM405.946 90.8994L410.817 93.7058V99.3388L405.946 102.145L401.074 99.3388V93.7058L405.946 90.8994Z" fill="white"/>
</g>
<g style="mix-blend-mode:overlay">
<path d="M138.368 -43.511L99.4983 -21.0793V23.8044L138.368 46.2361L177.238 23.8044V-21.0793L138.368 -43.511ZM138.368 -44.7539L178.32 -21.6806V24.4458L138.368 47.5191L98.4158 24.4458V-21.6806L138.368 -44.7539Z" fill="white"/>
</g>
<g style="mix-blend-mode:overlay">
<path d="M1.031 -36.595L-54.9382 -4.28041V60.3287L1.031 92.6433L57.0002 60.3287V-4.28041L1.031 -36.595ZM1.031 -38.3992L58.5438 -5.1825V61.2308L1.031 94.4475L-56.4818 61.2308V-5.1825L1.031 -38.3992Z" fill="white"/>
</g>
<g style="mix-blend-mode:overlay">
<path d="M542.782 79.9741L539.394 81.9186V85.8276L542.782 87.7721L546.169 85.8276V81.9186L542.782 79.9741ZM542.782 79.8739L546.25 81.8785V85.8878L542.782 87.8924L539.314 85.8878V81.8785L542.782 79.8739Z" fill="white"/>
</g>
<g style="mix-blend-mode:overlay">
<path d="M479.556 31.1213L436.677 55.8785V105.393L479.556 130.15L522.435 105.393V55.8785L479.556 31.1213ZM479.556 29.7382L523.637 55.1769V106.074L479.556 131.513L435.474 106.074V55.1769L479.556 29.7382Z" fill="white"/>
</g>
<g style="mix-blend-mode:color-dodge">
<path d="M329.008 45.2938L291.782 66.8035V109.783L329.008 131.272L366.234 109.783V66.8035L329.008 45.2938ZM329.008 44.0911L367.276 66.1821V110.364L329.008 132.455L290.76 110.364V66.1821L329.008 44.0911Z" fill="white"/>
</g>
<g style="mix-blend-mode:color-dodge">
<path d="M69.048 -40.9851L40.2816 -24.3667V8.86998L69.048 25.4883L97.8144 8.86998V-24.3667L69.048 -40.9851ZM69.048 -41.9072L98.6162 -24.8278V9.33105L69.048 26.4105L39.4797 9.33105V-24.8278L69.048 -41.9072Z" fill="white"/>
</g>
</g>
<g style="mix-blend-mode:overlay" opacity="0.3">
<path opacity="0.6" d="M-58.6067 -7.80852L20.095 -53.2534L98.7967 -7.80852V83.0612L20.095 128.486L-58.6067 83.0612V-7.80852Z" fill="white"/>
<path opacity="0.6" d="M-22.0423 222.142L28.7349 192.835L79.492 222.142V280.778L28.7349 310.085L-22.0423 280.778V222.142Z" fill="white"/>
<g opacity="0.6">
<path d="M240.865 87.7319L223.043 98.0157V118.583L240.865 128.867L258.686 118.583V98.0157L240.865 87.7319ZM240.865 85.2261L260.851 96.7527V119.826L240.865 131.353L220.878 119.826V96.7527L240.865 85.2261Z" fill="white"/>
</g>
<g opacity="0.6">
<path d="M134.619 111.467L47.4982 161.763V262.355L134.619 312.651L221.74 262.355V161.763L134.619 111.467ZM134.619 99.2585L232.325 155.669V268.489L134.619 324.899L36.9138 268.489V155.669L134.619 99.2585Z" fill="white"/>
</g>
<g opacity="0.6">
<path d="M721.434 92.7437L715.641 96.0914V102.787L721.434 106.135L727.227 102.787V96.0914L721.434 92.7437ZM721.434 91.9218L727.929 95.6704V103.188L721.434 106.936L714.939 103.188V95.6704L721.434 91.9218Z" fill="white"/>
</g>
<g style="mix-blend-mode:color-dodge">
<path d="M856.786 84.7853L865.226 79.9141L873.645 84.7853V94.5077L865.226 99.379L856.786 94.5077V84.7853Z" fill="white"/>
</g>
<g style="mix-blend-mode:overlay">
<path d="M338.851 122.031L391.893 91.4005L444.936 122.031V183.273L391.893 213.903L338.851 183.273V122.031Z" fill="white"/>
</g>
<g style="mix-blend-mode:overlay">
<path d="M748.837 151.619L699.684 179.985V236.736L748.837 265.121L797.991 236.736V179.985L748.837 151.619ZM748.837 144.724L803.964 176.537V240.184L748.837 272.017L693.73 240.184V176.537L748.837 144.724Z" fill="white"/>
</g>
<g style="mix-blend-mode:overlay">
<path d="M103.989 82.3796L92.7827 88.8546V101.784L103.989 108.259L115.195 101.784V88.8546L103.989 82.3796ZM103.989 80.816L116.558 88.0728V102.566L103.989 109.823L91.4196 102.566V88.0728L103.989 80.816Z" fill="white"/>
</g>
<g style="mix-blend-mode:color-dodge">
<path d="M373.17 86.6094L369.141 88.9348V93.5855L373.17 95.9109L377.199 93.5855V88.9348L373.17 86.6094ZM373.17 86.0481L377.68 88.6541V93.8661L373.17 96.4722L368.66 93.8661V88.6541L373.17 86.0481Z" fill="white"/>
</g>
<g style="mix-blend-mode:color-dodge" opacity="0.3">
<path d="M845.921 84.1236L771.349 127.163V213.242L845.921 256.281L920.473 213.242V127.163L845.921 84.1236ZM845.921 73.6794L929.534 121.951V218.494L845.921 266.765L762.308 218.494V121.951L845.921 73.6794Z" fill="white"/>
</g>
<g style="mix-blend-mode:overlay">
<path d="M565.394 236.616L554.809 242.73V254.958L565.394 261.072L575.978 254.958V242.73L565.394 236.616ZM565.394 236.275L576.279 242.549V255.118L565.394 261.393L554.509 255.118V242.549L565.394 236.275Z" fill="white"/>
</g>
<g style="mix-blend-mode:overlay">
<path d="M596.786 62.995L538.692 96.5325V163.607L596.786 197.145L654.88 163.607V96.5325L596.786 62.995ZM596.786 61.1307L656.504 95.6103V164.549L596.786 199.029L537.088 164.549V95.6103L596.786 61.1307Z" fill="white"/>
</g>
<g style="mix-blend-mode:overlay">
<path d="M391.532 73.3188L307.879 121.61V218.193L391.532 266.485L475.186 218.193V121.61L391.532 73.3188ZM391.532 70.6326L477.511 120.267V219.536L391.532 269.171L305.554 219.536V120.267L391.532 70.6326Z" fill="white"/>
</g>
<g style="mix-blend-mode:color-dodge">
<path d="M881.704 195.721L826.076 227.856V292.104L881.704 324.238L937.352 292.104V227.856L881.704 195.721ZM881.704 193.937L938.896 226.974V293.006L881.704 326.022L824.532 293.006V226.974L881.704 193.937Z" fill="white"/>
</g>
<g style="mix-blend-mode:color-dodge">
<path d="M493.187 66.7835L450.188 91.6208V141.275L493.187 166.113L536.186 141.275V91.6208L493.187 66.7835ZM493.187 65.4003L537.389 90.9192V141.957L493.187 167.476L448.985 141.957V90.9192L493.187 65.4003Z" fill="white"/>
</g>
</g>
<g style="mix-blend-mode:overlay">
<g style="mix-blend-mode:overlay">
<path d="M218.994 40.2022L213.381 43.4496V49.9446L218.994 53.1921L224.607 49.9446V43.4496L218.994 40.2022ZM218.994 40.0217L224.767 43.3494V50.0248L218.994 53.3525L213.221 50.0248V43.3494L218.994 40.0217Z" fill="white"/>
</g>
<g style="mix-blend-mode:overlay">
<path d="M113.952 -41.0052L42.6871 0.129703V82.4197L113.952 123.555L185.216 82.4197V0.129703L113.952 -41.0052ZM113.952 -43.2905L187.181 -1.01293V83.5623L113.952 125.84L40.7026 83.5623V-1.01293L113.952 -43.2905Z" fill="white"/>
</g>
</g>
<g style="mix-blend-mode:overlay" opacity="0.3">
<g opacity="0.6">
<path d="M515.879 61.4113L506.237 66.9842V78.1099L515.879 83.6627L525.522 78.1099V66.9842L515.879 61.4113ZM515.879 60.0682L526.684 66.3026V78.7915L515.879 85.0258L505.075 78.7915V66.3026L515.879 60.0682Z" fill="white"/>
</g>
<g style="mix-blend-mode:color-dodge">
<path d="M740.799 48.1806L754.811 40.1019L768.823 48.1806V64.3579L754.811 72.4566L740.799 64.3579V48.1806Z" fill="white"/>
</g>
<g style="mix-blend-mode:overlay">
<path d="M-41.4269 26.4304L46.7165 -24.467L134.88 26.4304V128.225L46.7165 179.103L-41.4269 128.225V26.4304Z" fill="white"/>
</g>
<g style="mix-blend-mode:overlay">
<path d="M444.435 206.546L451.872 202.256L459.309 206.546V215.126L451.872 219.436L444.435 215.126V206.546Z" fill="white"/>
</g>
<g style="mix-blend-mode:overlay">
<path d="M561.425 159.237L479.756 206.386V300.684L561.425 347.853L643.093 300.684V206.386L561.425 159.237ZM561.425 147.791L653.016 200.673V306.417L561.425 359.319L469.833 306.417V200.673L561.425 147.791Z" fill="white"/>
</g>
<g style="mix-blend-mode:color-dodge" opacity="0.3">
<path d="M722.737 47.0982L598.831 118.623V261.674L722.737 333.199L846.643 261.674V118.623L722.737 47.0982ZM722.737 29.7382L861.678 109.943V270.354L722.737 350.559L583.796 270.354V109.943L722.737 29.7382Z" fill="white"/>
</g>
<g style="mix-blend-mode:overlay">
<path d="M308.741 11.957L212.219 67.6857V179.163L308.741 234.892L405.284 179.163V67.6857L308.741 11.957ZM308.741 8.84985L407.97 66.1221V180.687L308.741 237.959L209.532 180.687V66.1221L308.741 8.84985Z" fill="white"/>
</g>
<g style="mix-blend-mode:overlay">
<path d="M-32.326 24.6865L-151 93.2046V97.675L-32.326 29.1568L106.675 109.402V269.872L-32.326 350.118L-151 281.62V286.07L-32.326 354.588L110.544 272.118V107.157L-32.326 24.6865Z" fill="white"/>
</g>
<g style="mix-blend-mode:color-dodge">
<path d="M778.225 218.153L685.792 271.556V378.323L778.225 431.706L870.699 378.323V271.556L778.225 218.153ZM778.225 215.186L873.264 270.073V379.806L778.225 434.673L683.226 379.806V270.073L778.225 215.186Z" fill="white"/>
</g>
<g style="mix-blend-mode:color-dodge">
<path d="M136.584 18.2718L65.139 59.547V142.078L136.584 183.333L208.049 142.078V59.547L136.584 18.2718ZM136.584 15.9664L210.034 58.3844V143.2L136.584 185.598L63.1344 143.2V58.3844L136.584 15.9664Z" fill="white"/>
</g>
</g>
<g style="mix-blend-mode:overlay">
<path d="M115.776 319.206L172.286 286.591V221.34L115.776 188.725L59.2654 221.34V286.591L115.776 319.206ZM115.776 321.792L57.0403 287.874V220.057L115.776 186.139L174.512 220.057V287.874L115.776 321.792Z" fill="white"/>
</g>
<g style="mix-blend-mode:overlay" opacity="0.6">
<path d="M85.3657 121.41L67.5445 131.694V152.261L85.3657 162.545L103.187 152.261V131.694L85.3657 121.41ZM85.3657 118.904L105.352 130.431V153.504L85.3657 165.03L65.3796 153.504V130.431L85.3657 118.904Z" fill="white"/>
</g>
<g style="mix-blend-mode:overlay" opacity="0.3">
<path d="M-20.8796 145.145L-108.001 195.441V296.033L-20.8796 346.329L66.2415 296.033V195.441L-20.8796 145.145ZM-20.8796 132.936L76.826 189.347V302.167L-20.8796 358.577L-118.585 302.167V189.347L-20.8796 132.936Z" fill="white"/>
</g>
<g style="mix-blend-mode:overlay" opacity="0.6">
<path d="M565.935 126.421L560.142 129.769V136.464L565.935 139.812L571.728 136.464V129.769L565.935 126.421ZM565.935 125.599L572.43 129.348V136.865L565.935 140.614L559.44 136.865V129.348L565.935 125.599Z" fill="white"/>
</g>
<g style="mix-blend-mode:overlay">
<path d="M701.287 118.463L709.727 113.592L718.146 118.463V128.205L709.727 133.057L701.287 128.205V118.463Z" fill="white"/>
</g>
<g style="mix-blend-mode:overlay" opacity="0.5">
<path d="M-75.205 -27.3536L-22.1826 -57.9843L30.8799 -27.3536V33.9078L-22.1826 64.5385L-75.205 33.9078V-27.3536Z" fill="white"/>
</g>
<g style="mix-blend-mode:overlay">
<path d="M923.681 116.198L912.355 122.733V135.803L923.681 142.338L935.007 135.803V122.733L923.681 116.198ZM923.681 114.614L936.37 121.951V136.605L923.681 143.942L910.992 136.605V121.951L923.681 114.614Z" fill="white"/>
</g>
<g style="mix-blend-mode:overlay" opacity="0.4">
<path d="M593.338 185.297L544.185 213.663V270.414L593.338 298.799L642.492 270.414V213.663L593.338 185.297ZM593.338 178.401L648.466 210.215V273.862L593.338 305.695L538.231 273.862V210.215L593.338 178.401Z" fill="white"/>
</g>
<g style="mix-blend-mode:overlay">
<path d="M217.691 120.287L213.662 122.612V127.263L217.691 129.588L221.72 127.263V122.612L217.691 120.287ZM217.691 119.726L222.202 122.332V127.544L217.691 130.15L213.181 127.544V122.332L217.691 119.726Z" fill="white"/>
</g>
<g style="mix-blend-mode:overlay" opacity="0.3">
<path d="M690.422 117.801L615.85 160.841V246.919L690.422 289.959L764.974 246.919V160.841L690.422 117.801ZM690.422 107.357L774.035 155.629V252.172L690.422 300.443L606.809 252.172V155.629L690.422 107.357Z" fill="white"/>
</g>
<g style="mix-blend-mode:overlay" opacity="0.6">
<path d="M833.693 164.61L823.53 170.463V182.19L833.693 188.064L843.837 182.19V170.463L833.693 164.61ZM833.693 164.289L844.117 170.323V182.371L833.693 188.404L823.249 182.371V170.323L833.693 164.289Z" fill="white"/>
</g>
<g style="mix-blend-mode:overlay">
<path d="M441.287 96.6727L383.193 130.21V197.285L441.287 230.822L499.381 197.285V130.21L441.287 96.6727ZM441.287 94.8083L501.005 129.288V198.227L441.287 232.707L381.589 198.227V129.288L441.287 94.8083Z" fill="white"/>
</g>
<g style="mix-blend-mode:overlay">
<path d="M236.054 107.017L152.4 155.308V251.891L236.054 300.182L319.707 251.891V155.308L236.054 107.017ZM236.054 104.33L322.032 153.965V253.234L236.054 302.869L150.075 253.234V153.965L236.054 104.33Z" fill="white"/>
</g>
<g style="mix-blend-mode:overlay">
<path d="M942.825 351.34L887.157 319.206V245.195L942.825 213.061V211.016L885.372 244.173V320.249L942.825 353.405V351.34Z" fill="white"/>
</g>
<g style="mix-blend-mode:overlay">
<path d="M726.205 229.419L670.577 261.553V325.802L726.205 357.936L781.853 325.802V261.553L726.205 229.419ZM726.205 227.635L783.397 260.671V326.704L726.205 359.72L669.033 326.704V260.671L726.205 227.635Z" fill="white"/>
</g>
<g style="mix-blend-mode:overlay">
<path d="M337.688 100.461L294.689 125.299V174.953L337.688 199.791L380.687 174.953V125.299L337.688 100.461ZM337.688 99.0782L381.89 124.597V175.635L337.688 201.154L293.486 175.635V124.597L337.688 99.0782Z" fill="white"/>
</g>
</g>
<defs>
<clipPath id="clip0_62_12211">
<rect width="1093.83" height="582.324" fill="white" transform="matrix(-1 0 0 1 942.825 -145.045)"/>
</clipPath>
</defs>
</svg>
