<svg width="1084" height="583" viewBox="0 0 1084 583" fill="none" xmlns="http://www.w3.org/2000/svg">
<g opacity="0.2" clip-path="url(#clip0_123_22805)">
<g style="mix-blend-mode:overlay">
<g opacity="0.6">
<path d="M40.5014 118.093L28.5738 124.968V138.74L40.5014 145.616L52.4288 138.74V124.968L40.5014 118.093ZM40.5014 116.429L53.8722 124.147V139.582L40.5014 147.3L27.1304 139.582V124.147L40.5014 116.429Z" fill="white"/>
</g>
<g opacity="0.6">
<path d="M-10.717 137.257V145.436L27.7118 167.627V234.922L-10.717 257.113V265.292L34.7881 239.012V163.538L-10.717 137.257Z" fill="white"/>
</g>
<g opacity="0.6">
<path d="M362.043 121.44L358.155 123.685V128.176L362.043 130.421L365.932 128.176V123.685L362.043 121.44ZM362.043 120.899L366.394 123.405V128.436L362.043 130.942L357.693 128.436V123.405L362.043 120.899Z" fill="white"/>
</g>
<g style="mix-blend-mode:color-dodge">
<path d="M452.613 116.108L458.246 112.86L463.879 116.108V122.623L458.246 125.89L452.613 122.623V116.108Z" fill="white"/>
</g>
<g style="mix-blend-mode:overlay">
<path d="M330.25 233.599L333.237 231.875L336.224 233.599V237.047L333.237 238.791L330.25 237.047V233.599Z" fill="white"/>
</g>
<g style="mix-blend-mode:overlay">
<path d="M662.537 131.343L648.385 139.522V155.86L662.537 164.038L676.69 155.86V139.522L662.537 131.343ZM662.537 129.358L678.414 138.52V156.842L662.537 166.003L646.661 156.842V138.52L662.537 129.358Z" fill="white"/>
</g>
<g style="mix-blend-mode:overlay">
<path d="M601.396 114.604L593.819 118.975V127.715L601.396 132.085L608.974 127.715V118.975L601.396 114.604ZM601.396 113.542L609.896 118.453V128.256L601.396 133.167L592.896 128.256V118.453L601.396 113.542Z" fill="white"/>
</g>
<g style="mix-blend-mode:overlay">
<path d="M380.386 160.831L347.51 179.815V217.783L380.386 236.767L413.262 217.783V179.815L380.386 160.831ZM380.386 156.221L417.271 177.51V220.088L380.386 241.377L343.501 220.088V177.51L380.386 156.221Z" fill="white"/>
</g>
<g style="mix-blend-mode:color-dodge">
<path d="M129.046 117.331L126.36 118.875V121.982L129.046 123.525L131.732 121.982V118.875L129.046 117.331ZM129.046 116.95L132.053 118.694V122.182L129.046 123.926L126.039 122.182V118.694L129.046 116.95Z" fill="white"/>
</g>
<g style="mix-blend-mode:color-dodge" opacity="0.3">
<path d="M445.336 115.687L395.441 144.494V202.087L445.336 230.893L495.211 202.087V144.494L445.336 115.687ZM445.336 108.691L501.285 140.985V205.575L445.336 237.869L389.387 205.575V140.985L445.336 108.691Z" fill="white"/>
</g>
<g opacity="0.6">
<path d="M541.197 146.979L534.401 150.908V158.746L541.197 162.676L547.993 158.746V150.908L541.197 146.979ZM541.197 146.759L548.173 150.788V158.847L541.197 162.876L534.221 158.847V150.788L541.197 146.759Z" fill="white"/>
</g>
<g style="mix-blend-mode:overlay">
<path d="M257.643 217.702L250.566 221.792V229.971L257.643 234.06L264.719 229.971V221.792L257.643 217.702ZM257.643 217.482L264.919 221.692V230.091L257.643 234.301L250.366 230.091V221.692L257.643 217.482Z" fill="white"/>
</g>
<g style="mix-blend-mode:overlay">
<path d="M546.229 236.105L541.498 238.852V244.324L546.229 247.05L550.96 244.324V238.852L546.229 236.105ZM546.229 235.945L551.1 238.751V244.384L546.229 247.191L541.357 244.384V238.751L546.229 235.945Z" fill="white"/>
</g>
<g style="mix-blend-mode:overlay">
<path d="M278.651 101.534L239.781 123.966V168.85L278.651 191.282L317.521 168.85V123.966L278.651 101.534ZM278.651 100.292L318.603 123.365V169.491L278.651 192.565L238.699 169.491V123.365L278.651 100.292Z" fill="white"/>
</g>
<g style="mix-blend-mode:overlay">
<path d="M141.314 108.45L85.3448 140.765V205.374L141.314 237.688L197.283 205.374V140.765L141.314 108.45ZM141.314 106.646L198.827 139.863V206.276L141.314 239.493L83.8012 206.276V139.863L141.314 106.646Z" fill="white"/>
</g>
<g style="mix-blend-mode:overlay">
<path d="M683.065 225.02L679.677 226.964V230.873L683.065 232.818L686.452 230.873V226.964L683.065 225.02ZM683.065 224.919L686.533 226.924V230.933L683.065 232.938L679.597 230.933V226.924L683.065 224.919Z" fill="white"/>
</g>
<g style="mix-blend-mode:overlay">
<path d="M619.839 176.167L576.96 200.924V250.438L619.839 275.195L662.718 250.438V200.924L619.839 176.167ZM619.839 174.784L663.92 200.222V251.12L619.839 276.559L575.757 251.12V200.222L619.839 174.784Z" fill="white"/>
</g>
<g style="mix-blend-mode:color-dodge">
<path d="M469.291 190.339L432.065 211.849V254.828L469.291 276.317L506.517 254.828V211.849L469.291 190.339ZM469.291 189.136L507.559 211.227V255.409L469.291 277.5L431.043 255.409V211.227L469.291 189.136Z" fill="white"/>
</g>
<g style="mix-blend-mode:color-dodge">
<path d="M209.331 104.06L180.565 120.679V153.915L209.331 170.534L238.097 153.915V120.679L209.331 104.06ZM209.331 103.138L238.899 120.218V154.376L209.331 171.456L179.763 154.376V120.218L209.331 103.138Z" fill="white"/>
</g>
</g>
<g style="mix-blend-mode:overlay" opacity="0.3">
<path opacity="0.6" d="M81.6763 137.237L160.378 91.792L239.08 137.237V228.107L160.378 273.532L81.6763 228.107V137.237Z" fill="white"/>
<path opacity="0.6" d="M118.241 367.188L169.018 337.88L219.775 367.188V425.823L169.018 455.131L118.241 425.823V367.188Z" fill="white"/>
<g opacity="0.6">
<path d="M381.148 232.777L363.326 243.061V263.628L381.148 273.912L398.969 263.628V243.061L381.148 232.777ZM381.148 230.271L401.134 241.798V264.871L381.148 276.398L361.161 264.871V241.798L381.148 230.271Z" fill="white"/>
</g>
<g opacity="0.6">
<path d="M274.902 256.512L187.781 306.808V407.4L274.902 457.696L362.023 407.4V306.808L274.902 256.512ZM274.902 244.304L372.608 300.714V413.534L274.902 469.945L177.197 413.534V300.714L274.902 244.304Z" fill="white"/>
</g>
<g opacity="0.6">
<path d="M861.717 237.789L855.924 241.137V247.832L861.717 251.18L867.51 247.832V241.137L861.717 237.789ZM861.717 236.967L868.212 240.716V248.233L861.717 251.982L855.222 248.233V240.716L861.717 236.967Z" fill="white"/>
</g>
<g style="mix-blend-mode:color-dodge">
<path d="M997.069 229.831L1005.51 224.959L1013.93 229.831V239.553L1005.51 244.424L997.069 239.553V229.831Z" fill="white"/>
</g>
<g style="mix-blend-mode:color-dodge">
<path d="M-10.7169 229.59V350.569L37.9956 322.444V257.715L-10.7169 229.59Z" fill="white"/>
</g>
<g style="mix-blend-mode:overlay">
<path d="M9.52985 224.077L23.502 216.019L37.4744 224.077V240.214L23.502 248.293L9.52985 240.214V224.077Z" fill="white"/>
</g>
<g style="mix-blend-mode:overlay">
<path d="M479.134 267.077L532.176 236.446L585.219 267.077V328.318L532.176 358.949L479.134 328.318V267.077Z" fill="white"/>
</g>
<g style="mix-blend-mode:overlay">
<path d="M814.187 405.416L818.658 402.83L823.128 405.416V410.588L818.658 413.174L814.187 410.588V405.416Z" fill="white"/>
</g>
<g style="mix-blend-mode:overlay">
<path d="M-3.40009 365.023L48.4997 335.054L100.379 365.023V424.941L48.4997 454.89L-3.40009 424.941V365.023Z" fill="white"/>
</g>
<g style="mix-blend-mode:overlay">
<path d="M889.12 296.665L839.967 325.03V381.781L889.12 410.167L938.274 381.781V325.03L889.12 296.665ZM889.12 289.769L944.247 321.582V385.229L889.12 417.063L834.013 385.229V321.582L889.12 289.769Z" fill="white"/>
</g>
<g style="mix-blend-mode:overlay">
<path d="M244.272 227.425L233.066 233.9V246.83L244.272 253.305L255.478 246.83V233.9L244.272 227.425ZM244.272 225.861L256.841 233.118V247.612L244.272 254.868L231.703 247.612V233.118L244.272 225.861Z" fill="white"/>
</g>
<g style="mix-blend-mode:color-dodge">
<path d="M513.453 231.655L509.424 233.98V238.631L513.453 240.957L517.482 238.631V233.98L513.453 231.655ZM513.453 231.094L517.963 233.7V238.912L513.453 241.518L508.943 238.912V233.7L513.453 231.094Z" fill="white"/>
</g>
<g style="mix-blend-mode:color-dodge" opacity="0.3">
<path d="M986.204 229.169L911.632 272.209V358.287L986.204 401.327L1060.76 358.287V272.209L986.204 229.169ZM986.204 218.725L1069.82 266.997V363.539L986.204 411.811L902.591 363.539V266.997L986.204 218.725Z" fill="white"/>
</g>
<g style="mix-blend-mode:overlay">
<path d="M705.677 381.661L695.092 387.775V400.003L705.677 406.118L716.261 400.003V387.775L705.677 381.661ZM705.677 381.32L716.562 387.595V400.164L705.677 406.438L694.792 400.164V387.595L705.677 381.32Z" fill="white"/>
</g>
<g style="mix-blend-mode:overlay">
<path d="M737.069 208.041L678.975 241.578V308.653L737.069 342.19L795.163 308.653V241.578L737.069 208.041ZM737.069 206.176L796.787 240.656V309.595L737.069 344.075L677.371 309.595V240.656L737.069 206.176Z" fill="white"/>
</g>
<g style="mix-blend-mode:overlay">
<path d="M531.815 218.364L448.162 266.656V363.239L531.815 411.53L615.469 363.239V266.656L531.815 218.364ZM531.815 215.678L617.794 265.313V364.582L531.815 414.217L445.837 364.582V265.313L531.815 215.678Z" fill="white"/>
</g>
<g style="mix-blend-mode:color-dodge">
<path d="M1021.99 340.767L966.359 372.901V437.15L1021.99 469.284L1077.64 437.15V372.901L1021.99 340.767ZM1021.99 338.983L1079.18 372.019V438.052L1021.99 471.068L964.815 438.052V372.019L1021.99 338.983Z" fill="white"/>
</g>
<g style="mix-blend-mode:color-dodge">
<path d="M633.47 211.829L590.471 236.666V286.321L633.47 311.158L676.469 286.321V236.666L633.47 211.829ZM633.47 210.446L677.672 235.965V287.003L633.47 312.521L589.268 287.003V235.965L633.47 210.446Z" fill="white"/>
</g>
<g style="mix-blend-mode:color-dodge" opacity="0.3">
<path d="M126.981 260.562L121.729 263.589V269.663L126.981 272.69L132.253 269.663V263.589L126.981 260.562ZM126.981 260.401L132.393 263.529V269.763L126.981 272.89L121.568 269.763V263.529L126.981 260.401Z" fill="white"/>
</g>
</g>
<g style="mix-blend-mode:overlay">
<g style="mix-blend-mode:overlay">
<path d="M325.178 29.5684L301.644 43.1597V70.3224L325.178 83.9138L348.713 70.3224V43.1597L325.178 29.5684ZM325.178 26.2808L351.559 41.5159V71.9662L325.178 87.2014L298.797 71.9662V41.5159L325.178 26.2808Z" fill="white"/>
</g>
<g style="mix-blend-mode:overlay">
<path d="M223.584 1.76407L210.995 9.04087V23.5744L223.584 30.8512L236.173 23.5744V9.04087L223.584 1.76407ZM223.584 0L237.696 8.13879V24.4364L223.584 32.5952L209.471 24.4364V8.13879L223.584 0Z" fill="white"/>
</g>
<g style="mix-blend-mode:color-dodge" opacity="0.3">
<path d="M-10.717 6.375V18.0018L47.1566 51.3989V147.12L-10.717 180.517V192.144L57.2198 152.933V45.5855L-10.717 6.375Z" fill="white"/>
</g>
<g opacity="0.6">
<path d="M123.533 55.5683L112.247 62.0834V75.1135L123.533 81.6285L134.819 75.1135V62.0834L123.533 55.5683ZM123.533 55.2075L135.14 61.903V75.2939L123.533 81.9893L111.926 75.2939V61.903L123.533 55.2075Z" fill="white"/>
</g>
<g style="mix-blend-mode:overlay">
<path d="M131.912 203.67L124.034 208.221V217.322L131.912 221.872L139.79 217.322V208.221L131.912 203.67ZM131.912 203.41L140.011 208.08V217.422L131.912 222.093L123.814 217.422V208.08L131.912 203.41Z" fill="white"/>
</g>
<g style="mix-blend-mode:overlay">
<path d="M359.277 185.247L353.664 188.495V194.99L359.277 198.237L364.89 194.99V188.495L359.277 185.247ZM359.277 185.067L365.05 188.395V195.07L359.277 198.398L353.504 195.07V188.395L359.277 185.067Z" fill="white"/>
</g>
<g style="mix-blend-mode:overlay">
<path d="M254.235 104.04L182.97 145.175V227.465L254.235 268.6L325.499 227.465V145.175L254.235 104.04ZM254.235 101.755L327.464 144.032V228.608L254.235 270.885L180.986 228.608V144.032L254.235 101.755Z" fill="white"/>
</g>
<g style="mix-blend-mode:color-dodge">
<path d="M4.03713 125.65L-10.717 134.17V136.155L4.03713 127.635L65.9199 163.357V234.782L4.03713 270.505L-10.717 261.985V263.97L4.03713 272.489L67.6439 235.785V162.355L4.03713 125.65Z" fill="white"/>
</g>
</g>
<g style="mix-blend-mode:overlay" opacity="0.3">
<path opacity="0.6" d="M-10.7169 352.554V560.815L38.8777 532.189V381.18L-10.7169 352.554Z" fill="white"/>
<g opacity="0.6">
<path d="M656.162 206.457L646.52 212.03V223.155L656.162 228.708L665.805 223.155V212.03L656.162 206.457ZM656.162 205.114L666.967 211.348V223.837L656.162 230.071L645.358 223.837V211.348L656.162 205.114Z" fill="white"/>
</g>
<g style="mix-blend-mode:color-dodge">
<path d="M881.082 193.226L895.094 185.147L909.106 193.226V209.403L895.094 217.502L881.082 209.403V193.226Z" fill="white"/>
</g>
<g style="mix-blend-mode:overlay">
<path d="M98.856 171.476L186.999 120.579L275.163 171.476V273.271L186.999 324.149L98.856 273.271V171.476Z" fill="white"/>
</g>
<g style="mix-blend-mode:overlay">
<path d="M584.718 351.592L592.155 347.302L599.592 351.592V360.171L592.155 364.481L584.718 360.171V351.592Z" fill="white"/>
</g>
<g style="mix-blend-mode:overlay">
<path d="M701.708 304.283L620.039 351.432V445.729L701.708 492.898L783.376 445.729V351.432L701.708 304.283ZM701.708 292.836L793.299 345.719V451.463L701.708 504.365L610.116 451.463V345.719L701.708 292.836Z" fill="white"/>
</g>
<g style="mix-blend-mode:color-dodge">
<path d="M77.4666 196.253L70.7912 200.102V207.82L77.4666 211.669L84.142 207.82V200.102L77.4666 196.253ZM77.4666 195.311L84.9639 199.641V208.301L77.4666 212.631L69.9693 208.301V199.641L77.4666 195.311Z" fill="white"/>
</g>
<g style="mix-blend-mode:color-dodge" opacity="0.3">
<path d="M863.02 192.144L739.114 263.669V406.719L863.02 478.244L986.926 406.719V263.669L863.02 192.144ZM863.02 174.784L1001.96 254.989V415.399L863.02 495.604L724.079 415.399V254.989L863.02 174.784Z" fill="white"/>
</g>
<g style="mix-blend-mode:overlay">
<path d="M396.844 445.529L379.263 455.692V475.999L396.844 486.162L414.445 475.999V455.692L396.844 445.529ZM396.844 444.967L414.926 455.411V476.28L396.844 486.724L378.762 476.28V455.411L396.844 444.967Z" fill="white"/>
</g>
<g style="mix-blend-mode:overlay">
<path d="M449.024 157.003L352.501 212.731V324.209L449.024 379.937L545.567 324.209V212.731L449.024 157.003ZM449.024 153.896L548.253 211.168V325.732L449.024 383.004L349.815 325.732V211.168L449.024 153.896Z" fill="white"/>
</g>
<g style="mix-blend-mode:overlay">
<path d="M107.957 169.732L-10.717 238.25V242.72L107.957 174.202L246.958 254.447V414.918L107.957 495.163L-10.717 426.665V431.115L107.957 499.633L250.827 417.163V252.202L107.957 169.732Z" fill="white"/>
</g>
<g style="mix-blend-mode:color-dodge">
<path d="M918.508 363.199L826.075 416.602V523.368L918.508 576.752L1010.98 523.368V416.602L918.508 363.199ZM918.508 360.232L1013.55 415.119V524.852L918.508 579.719L823.509 524.852V415.119L918.508 360.232Z" fill="white"/>
</g>
<g style="mix-blend-mode:color-dodge">
<path d="M276.867 163.318L205.422 204.593V287.123L276.867 328.379L348.332 287.123V204.593L276.867 163.318ZM276.867 161.012L350.316 203.43V288.246L276.867 330.644L203.417 288.246V203.43L276.867 161.012Z" fill="white"/>
</g>
</g>
<g style="mix-blend-mode:overlay">
<path d="M256.059 464.252L312.569 431.636V366.386L256.059 333.771L199.548 366.386V431.636L256.059 464.252ZM256.059 466.838L197.323 432.919V365.103L256.059 331.185L314.794 365.103V432.919L256.059 466.838Z" fill="white"/>
</g>
<g style="mix-blend-mode:overlay" opacity="0.6">
<path d="M225.649 266.455L207.828 276.739V297.306L225.649 307.59L243.47 297.306V276.739L225.649 266.455ZM225.649 263.949L245.635 275.476V298.549L225.649 310.076L205.663 298.549V275.476L225.649 263.949Z" fill="white"/>
</g>
<g style="mix-blend-mode:overlay" opacity="0.3">
<path d="M119.403 290.19L32.2823 340.486V441.078L119.403 491.375L206.525 441.078V340.486L119.403 290.19ZM119.403 277.982L217.109 334.392V447.213L119.403 503.623L21.6979 447.213V334.392L119.403 277.982Z" fill="white"/>
</g>
<g style="mix-blend-mode:overlay" opacity="0.6">
<path d="M706.218 271.466L700.425 274.814V281.51L706.218 284.857L712.011 281.51V274.814L706.218 271.466ZM706.218 270.645L712.713 274.393V281.911L706.218 285.659L699.723 281.911V274.393L706.218 270.645Z" fill="white"/>
</g>
<g style="mix-blend-mode:overlay">
<path d="M841.57 263.508L850.01 258.637L858.429 263.508V273.251L850.01 278.102L841.57 273.251V263.508Z" fill="white"/>
</g>
<g style="mix-blend-mode:overlay" opacity="0.5">
<path d="M65.078 117.692L118.1 87.061L171.163 117.692V178.953L118.1 209.584L65.078 178.953V117.692Z" fill="white"/>
</g>
<g style="mix-blend-mode:overlay">
<path d="M658.688 439.094L663.159 436.508L667.649 439.094V444.265L663.159 446.851L658.688 444.265V439.094Z" fill="white"/>
</g>
<g style="mix-blend-mode:overlay">
<path d="M1063.96 261.243L1052.64 267.778V280.849L1063.96 287.384L1075.29 280.849V267.778L1063.96 261.243ZM1063.96 259.66L1076.65 266.997V281.65L1063.96 288.987L1051.27 281.65V266.997L1063.96 259.66Z" fill="white"/>
</g>
<g style="mix-blend-mode:overlay" opacity="0.4">
<path d="M733.621 330.343L684.468 358.708V415.459L733.621 443.845L782.775 415.459V358.708L733.621 330.343ZM733.621 323.447L788.749 355.26V418.907L733.621 450.741L678.514 418.907V355.26L733.621 323.447Z" fill="white"/>
</g>
<g style="mix-blend-mode:overlay">
<path d="M88.7727 261.103L77.5669 267.578V280.507L88.7727 286.982L99.9786 280.507V267.578L88.7727 261.103ZM88.7727 259.539L101.342 266.796V281.289L88.7727 288.546L76.2037 281.289V266.796L88.7727 259.539Z" fill="white"/>
</g>
<g style="mix-blend-mode:overlay">
<path d="M357.974 265.332L353.945 267.658V272.308L357.974 274.634L362.003 272.308V267.658L357.974 265.332ZM357.974 264.771L362.484 267.377V272.589L357.974 275.195L353.464 272.589V267.377L357.974 264.771Z" fill="white"/>
</g>
<g style="mix-blend-mode:overlay" opacity="0.3">
<path d="M830.705 262.847L756.133 305.886V391.965L830.705 435.004L905.257 391.965V305.886L830.705 262.847ZM830.705 252.403L914.318 300.674V397.217L830.705 445.489L747.092 397.217V300.674L830.705 252.403Z" fill="white"/>
</g>
<g style="mix-blend-mode:overlay" opacity="0.6">
<path d="M973.976 309.655L963.813 315.508V327.235L973.976 333.109L984.12 327.235V315.508L973.976 309.655ZM973.976 309.334L984.4 315.368V327.416L973.976 333.45L963.532 327.416V315.368L973.976 309.334Z" fill="white"/>
</g>
<g style="mix-blend-mode:overlay">
<path d="M550.178 415.339L539.593 421.453V433.681L550.178 439.795L560.762 433.681V421.453L550.178 415.339ZM550.178 414.998L561.063 421.273V433.842L550.178 440.116L539.293 433.842V421.273L550.178 414.998Z" fill="white"/>
</g>
<g style="mix-blend-mode:overlay">
<path d="M981.514 442.842L974.437 446.932V455.111L981.514 459.2L988.61 455.111V446.932L981.514 442.842ZM981.514 442.622L988.79 446.832V455.231L981.514 459.441L974.237 455.231V446.832L981.514 442.622Z" fill="white"/>
</g>
<g style="mix-blend-mode:overlay">
<path d="M581.57 241.718L523.476 275.255V342.33L581.57 375.867L639.664 342.33V275.255L581.57 241.718ZM581.57 239.854L641.288 274.333V343.272L581.57 377.752L521.872 343.272V274.333L581.57 239.854Z" fill="white"/>
</g>
<g style="mix-blend-mode:overlay">
<path d="M376.337 252.062L292.683 300.353V396.936L376.337 445.228L459.99 396.936V300.353L376.337 252.062ZM376.337 249.375L462.315 299.01V398.279L376.337 447.914L290.358 398.279V299.01L376.337 249.375Z" fill="white"/>
</g>
<g style="mix-blend-mode:overlay">
<path d="M1083.11 496.386L1027.44 464.252V390.241L1083.11 358.107V356.062L1025.66 389.219V465.294L1083.11 498.451V496.386Z" fill="white"/>
</g>
<g style="mix-blend-mode:overlay">
<path d="M866.488 374.465L810.86 406.599V470.847L866.488 502.981L922.136 470.847V406.599L866.488 374.465ZM866.488 372.68L923.68 405.717V471.749L866.488 504.765L809.316 471.749V405.717L866.488 372.68Z" fill="white"/>
</g>
<g style="mix-blend-mode:overlay">
<path d="M477.971 245.507L434.972 270.344V319.999L477.971 344.836L520.97 319.999V270.344L477.971 245.507ZM477.971 244.124L522.173 269.642V320.68L477.971 346.199L433.769 320.68V269.642L477.971 244.124Z" fill="white"/>
</g>
</g>
<defs>
<clipPath id="clip0_123_22805">
<rect width="1093.83" height="582.324" fill="white" transform="matrix(-1 0 0 1 1083.11 0)"/>
</clipPath>
</defs>
</svg>
