<svg width="146" height="49" viewBox="0 0 146 49" fill="none" xmlns="http://www.w3.org/2000/svg">
<g clip-path="url(#clip0_62_12592)">
<path fill-rule="evenodd" clip-rule="evenodd" d="M140.569 48.5649H5.43078C2.43765 48.5649 0 45.8597 0 42.5649V6.56494C0 3.25821 2.43765 0.564941 5.43078 0.564941H140.569C143.56 0.564941 146 3.25821 146 6.56494V42.5649C146 45.8597 143.56 48.5649 140.569 48.5649Z" fill="#212329"/>
<path d="M68.164 25.8465C65.812 25.8465 63.895 27.6345 63.895 30.0995C63.895 32.5485 65.812 34.3525 68.164 34.3525C70.516 34.3525 72.433 32.5485 72.433 30.0995C72.433 27.6345 70.516 25.8465 68.164 25.8465ZM68.164 32.6775C66.875 32.6775 65.763 31.6145 65.763 30.0995C65.763 28.5685 66.875 27.5215 68.164 27.5215C69.453 27.5215 70.564 28.5685 70.564 30.0995C70.564 31.6135 69.453 32.6775 68.164 32.6775ZM58.85 25.8465C56.498 25.8465 54.581 27.6345 54.581 30.0995C54.581 32.5485 56.498 34.3525 58.85 34.3525C61.202 34.3525 63.119 32.5485 63.119 30.0995C63.12 27.6345 61.202 25.8465 58.85 25.8465ZM58.85 32.6775C57.561 32.6775 56.45 31.6145 56.45 30.0995C56.45 28.5685 57.562 27.5215 58.85 27.5215C60.139 27.5215 61.25 28.5685 61.25 30.0995C61.251 31.6135 60.139 32.6775 58.85 32.6775ZM47.772 27.1515V28.9555H52.09C51.961 29.9705 51.623 30.7115 51.107 31.2275C50.479 31.8555 49.496 32.5485 47.772 32.5485C45.114 32.5485 43.036 30.4055 43.036 27.7475C43.036 25.0895 45.114 22.9465 47.772 22.9465C49.206 22.9465 50.253 23.5105 51.026 24.2355L52.299 22.9625C51.22 21.9315 49.786 21.1415 47.772 21.1415C44.131 21.1415 41.07 24.1055 41.07 27.7465C41.07 31.3875 44.131 34.3515 47.772 34.3515C49.737 34.3515 51.22 33.7075 52.38 32.4985C53.572 31.3065 53.943 29.6305 53.943 28.2775C53.943 27.8585 53.911 27.4715 53.846 27.1495H47.772V27.1515ZM93.08 28.5525C92.726 27.6015 91.646 25.8455 89.439 25.8455C87.248 25.8455 85.428 27.5695 85.428 30.0985C85.428 32.4825 87.232 34.3515 89.649 34.3515C91.598 34.3515 92.726 33.1595 93.193 32.4665L91.743 31.4995C91.26 32.2085 90.599 32.6755 89.649 32.6755C88.698 32.6755 88.022 32.2405 87.587 31.3865L93.274 29.0345L93.08 28.5525ZM87.28 29.9705C87.232 28.3275 88.553 27.4895 89.503 27.4895C90.244 27.4895 90.872 27.8595 91.082 28.3915L87.28 29.9705ZM82.656 34.0945H84.525V21.5935H82.656V34.0945ZM79.595 26.7965H79.531C79.112 26.2975 78.307 25.8455 77.292 25.8455C75.165 25.8455 73.216 27.7145 73.216 30.1145C73.216 32.4985 75.165 34.3515 77.292 34.3515C78.307 34.3515 79.112 33.9005 79.531 33.3845H79.595V33.9965C79.595 35.6235 78.725 36.4935 77.323 36.4935C76.179 36.4935 75.47 35.6715 75.18 34.9795L73.553 35.6565C74.02 36.7845 75.261 38.1695 77.323 38.1695C79.514 38.1695 81.367 36.8805 81.367 33.7395V26.1035H79.595V26.7965V26.7965ZM77.453 32.6775C76.164 32.6775 75.085 31.5985 75.085 30.1155C75.085 28.6175 76.164 27.5215 77.453 27.5215C78.726 27.5215 79.724 28.6165 79.724 30.1155C79.724 31.5975 78.726 32.6775 77.453 32.6775ZM101.834 21.5935H97.363V34.0945H99.228V29.3585H101.833C103.901 29.3585 105.934 27.8615 105.934 25.4765C105.934 23.0915 103.902 21.5935 101.834 21.5935ZM101.882 27.6185H99.228V23.3335H101.882C103.277 23.3335 104.069 24.4885 104.069 25.4765C104.069 26.4445 103.277 27.6185 101.882 27.6185ZM113.414 25.8235C112.063 25.8235 110.664 26.4185 110.085 27.7375L111.742 28.4295C112.096 27.7375 112.755 27.5125 113.447 27.5125C114.412 27.5125 115.393 28.0915 115.409 29.1205V29.2495C115.071 29.0565 114.347 28.7665 113.463 28.7665C111.678 28.7665 109.86 29.7475 109.86 31.5815C109.86 33.2545 111.324 34.3315 112.964 34.3315C114.219 34.3315 114.91 33.7685 115.344 33.1095H115.408V34.0745H117.209V29.2815C117.209 27.0615 115.553 25.8235 113.414 25.8235ZM113.188 32.6745C112.577 32.6745 111.724 32.3685 111.724 31.6135C111.724 30.6485 112.786 30.2785 113.702 30.2785C114.522 30.2785 114.908 30.4555 115.407 30.6965C115.263 31.8545 114.266 32.6745 113.188 32.6745ZM123.771 26.0965L121.632 31.5165H121.568L119.349 26.0965H117.339L120.668 33.6715L118.77 37.8855H120.716L125.847 26.0965H123.771V26.0965ZM106.964 34.0945H108.83V21.5935H106.964V34.0945Z" fill="white"/>
<path d="M20.745 23.5187L10.098 34.8187C10.099 34.8207 10.099 34.8227 10.1 34.8247C10.426 36.0527 11.547 36.9557 12.877 36.9557C13.409 36.9557 13.908 36.8117 14.336 36.5597L14.37 36.5397L26.354 29.6247L20.745 23.5187Z" fill="#EB4335"/>
<path d="M31.5161 21.5948L31.5061 21.5878L26.3321 18.5878L20.5031 23.7748L26.3521 29.6228L31.4991 26.6538C32.4011 26.1668 33.0131 25.2158 33.0131 24.1188C33.0131 23.0298 32.4091 22.0828 31.5161 21.5948Z" fill="#FABC13"/>
<path d="M10.098 13.3718C10.034 13.6078 10 13.8548 10 14.1118V34.0788C10 34.3358 10.033 34.5838 10.098 34.8188L21.111 23.8078L10.098 13.3718Z" fill="#547DBF"/>
<path d="M20.823 24.0947L26.334 18.5857L14.363 11.6457C13.928 11.3847 13.421 11.2347 12.877 11.2347C11.547 11.2347 10.425 12.1397 10.098 13.3687V13.3717L20.823 24.0947Z" fill="#30A851"/>
<path d="M47.4031 13.8853H44.495V14.6063H46.674C46.615 15.1923 46.38 15.6533 45.987 15.9883C45.593 16.3233 45.09 16.4913 44.495 16.4913C43.841 16.4913 43.288 16.2653 42.836 15.8123C42.392 15.3513 42.1651 14.7823 42.1651 14.0943C42.1651 13.4073 42.392 12.8373 42.836 12.3763C43.288 11.9243 43.841 11.6983 44.495 11.6983C44.83 11.6983 45.1491 11.7563 45.4421 11.8823C45.7351 12.0083 45.97 12.1843 46.154 12.4103L46.7071 11.8573C46.4561 11.5723 46.137 11.3543 45.744 11.1953C45.35 11.0363 44.939 10.9603 44.495 10.9603C43.623 10.9603 42.8861 11.2623 42.2831 11.8653C41.6791 12.4693 41.3781 13.2143 41.3781 14.0943C41.3781 14.9743 41.6791 15.7203 42.2831 16.3233C42.8861 16.9273 43.623 17.2283 44.495 17.2283C45.408 17.2283 46.1371 16.9353 46.6991 16.3403C47.1931 15.8463 47.4451 15.1753 47.4451 14.3373C47.4451 14.1953 47.4281 14.0443 47.4031 13.8853Z" fill="white"/>
<path d="M48.5511 11.0943V17.0943H52.0541V16.3573H49.3221V14.4553H51.7851V13.7343H49.3221V11.8323H52.0541V11.0943H48.5511Z" fill="white"/>
<path d="M56.9801 11.8323V11.0943H52.8571V11.8323H54.5331V17.0943H55.3041V11.8323H56.9801Z" fill="white"/>
<path d="M60.735 11.0943H59.964V17.0943H60.735V11.0943Z" fill="white"/>
<path d="M65.83 11.8323V11.0943H61.707V11.8323H63.383V17.0943H64.154V11.8323H65.83Z" fill="white"/>
<path d="M73.6321 11.8743C73.0371 11.2623 72.3081 10.9603 71.4361 10.9603C70.5651 10.9603 69.8351 11.2623 69.2401 11.8653C68.6451 12.4603 68.3521 13.2063 68.3521 14.0943C68.3521 14.9833 68.6451 15.7283 69.2401 16.3233C69.8351 16.9273 70.5651 17.2283 71.4361 17.2283C72.2991 17.2283 73.0371 16.9273 73.6321 16.3233C74.2271 15.7283 74.5201 14.9833 74.5201 14.0943C74.5201 13.2143 74.2271 12.4693 73.6321 11.8743ZM69.7941 12.3763C70.2381 11.9243 70.7821 11.6983 71.4361 11.6983C72.0901 11.6983 72.6341 11.9243 73.0701 12.3763C73.5141 12.8213 73.7321 13.3993 73.7321 14.0943C73.7321 14.7903 73.5141 15.3683 73.0701 15.8123C72.6341 16.2653 72.0901 16.4913 71.4361 16.4913C70.7821 16.4913 70.2381 16.2653 69.7941 15.8123C69.3581 15.3603 69.1401 14.7903 69.1401 14.0943C69.1401 13.3993 69.3581 12.8293 69.7941 12.3763Z" fill="white"/>
<path d="M76.3721 13.3573L76.3391 12.2003H76.3721L79.4231 17.0943H80.2271V11.0943H79.4561V14.6063L79.4901 15.7623H79.4561L76.5401 11.0943H75.6021V17.0943H76.3721V13.3573Z" fill="white"/>
</g>
<defs>
<clipPath id="clip0_62_12592">
<rect width="146" height="48" fill="white" transform="translate(0 0.564941)"/>
</clipPath>
</defs>
</svg>
