<svg width="29" height="32" viewBox="0 0 29 32" fill="none" xmlns="http://www.w3.org/2000/svg">
<path d="M27.2427 0.748943C26.9752 0.748943 26.7114 0.748943 26.4438 0.748943C25.7256 0.748943 25.0073 0.748943 24.289 0.748943C23.2336 0.748943 22.1781 0.748943 21.1264 0.748943C19.8657 0.748943 18.6014 0.748943 17.3407 0.748943C15.9885 0.748943 14.6362 0.748943 13.2839 0.748943C11.961 0.748943 10.638 0.748943 9.3114 0.748943C8.13137 0.748943 6.95134 0.748943 5.77498 0.748943C4.8698 0.748943 3.96828 0.748943 3.0631 0.748943C2.55005 0.748943 2.03699 0.748943 1.52027 0.748943C1.44697 0.748943 1.37368 0.745279 1.30039 0.748943C0.622418 0.770931 0.131349 1.30231 0.124019 1.97295C0.120355 2.33209 0.124019 2.69123 0.124019 3.05037C0.124019 3.8053 0.124019 4.55656 0.124019 5.31149C0.124019 6.35959 0.124019 7.40769 0.124019 8.45946C0.124019 9.70545 0.124019 10.9514 0.124019 12.1974C0.124019 13.5424 0.124019 14.8873 0.124019 16.2323C0.124019 17.5809 0.124019 18.9331 0.124019 20.2818C0.124019 21.5277 0.124019 22.7737 0.124019 24.0161C0.124019 25.0642 0.124019 26.1123 0.124019 27.1604C0.124019 27.9116 0.124019 28.6629 0.124019 29.4142C0.124019 29.7696 0.120355 30.1288 0.124019 30.4843C0.127684 31.1549 0.618753 31.6863 1.30039 31.7083C1.37368 31.7119 1.45064 31.7083 1.52393 31.7083C2.04065 31.7083 2.55738 31.7083 3.07043 31.7083C3.97561 31.7083 4.88079 31.7083 5.78597 31.7083C6.95867 31.7083 8.13504 31.7083 9.30774 31.7083C10.6307 31.7083 11.9536 31.7083 13.2803 31.7083C14.6399 31.7083 15.9958 31.7083 17.3554 31.7083C18.6161 31.7083 19.8767 31.7083 21.1374 31.7083C22.1855 31.7083 23.2372 31.7083 24.2853 31.7083C25.0036 31.7083 25.7219 31.7083 26.4402 31.7083C26.715 31.7083 26.9899 31.7229 27.2647 31.7083C27.939 31.6716 28.4081 31.1439 28.4118 30.4806C28.4118 30.3523 28.4118 30.2241 28.4118 30.0958C28.4118 29.5204 28.4118 28.9451 28.4118 28.3734C28.4118 27.4536 28.4118 26.5374 28.4118 25.6175C28.4118 24.4558 28.4118 23.2905 28.4118 22.1288C28.4118 20.8131 28.4118 19.4975 28.4118 18.1819C28.4118 16.8259 28.4118 15.4663 28.4118 14.1104C28.4118 12.8058 28.4118 11.4975 28.4118 10.1929C28.4118 9.03848 28.4118 7.88043 28.4118 6.72606C28.4118 5.81355 28.4118 4.9047 28.4118 3.9922C28.4118 3.43516 28.4118 2.87446 28.4118 2.31743C28.4118 2.20016 28.4118 2.08656 28.4118 1.96929C28.4118 1.29865 27.9207 0.774596 27.2427 0.748943C26.9569 0.737949 26.6784 1.00914 26.693 1.29865C26.7077 1.60648 26.9349 1.83736 27.2427 1.84835C27.2501 1.84835 27.3344 1.85568 27.2721 1.84835C27.1914 1.84102 27.3454 1.885 27.2757 1.85202C27.2171 1.8227 27.2977 1.86301 27.2977 1.86667C27.2977 1.85935 27.2318 1.8117 27.2831 1.85202C27.2941 1.86301 27.3637 1.9363 27.3197 1.885C27.2757 1.83736 27.3344 1.90332 27.3307 1.91065C27.349 1.88866 27.2757 1.85202 27.3197 1.89233C27.3307 1.93264 27.3307 1.92531 27.3234 1.87034C27.3234 1.88866 27.3234 1.90332 27.327 1.92164C27.327 1.92531 27.327 1.92897 27.327 1.93264C27.327 1.96196 27.327 1.99494 27.327 2.02426C27.327 2.17451 27.327 2.3211 27.327 2.47135C27.327 3.07602 27.327 3.6807 27.327 4.28537C27.327 5.21987 27.327 6.1507 27.327 7.0852C27.327 8.25057 27.327 9.41594 27.327 10.585C27.327 11.8823 27.327 13.1796 27.327 14.4769C27.327 15.8218 27.327 17.1668 27.327 18.5117C27.327 19.8017 27.327 21.0917 27.327 22.3816C27.327 23.5213 27.327 24.6611 27.327 25.8008C27.327 26.695 27.327 27.5892 27.327 28.4833C27.327 29.0367 27.327 29.5864 27.327 30.1398C27.327 30.257 27.327 30.3743 27.327 30.4916C27.327 30.5246 27.327 30.5539 27.3234 30.5869C27.338 30.4586 27.3197 30.5869 27.3124 30.5869C27.3124 30.5869 27.3527 30.5062 27.3197 30.5649C27.2904 30.6162 27.3307 30.5612 27.338 30.5539C27.3197 30.5759 27.2941 30.6015 27.2721 30.6199C27.2904 30.6052 27.3307 30.5942 27.2831 30.6015C27.2208 30.6162 27.3014 30.6089 27.305 30.5942C27.3014 30.6089 27.2208 30.6125 27.305 30.6052L27.2537 30.6089C27.2501 30.6089 27.2427 30.6089 27.2391 30.6089C26.9093 30.6089 26.5831 30.6089 26.2533 30.6089C25.4984 30.6089 24.7471 30.6089 23.9922 30.6089C22.9221 30.6089 21.8556 30.6089 20.7856 30.6089C19.5212 30.6089 18.2569 30.6089 16.9926 30.6089C15.6513 30.6089 14.3064 30.6089 12.9651 30.6089C11.6605 30.6089 10.3558 30.6089 9.05121 30.6089C7.9005 30.6089 6.74978 30.6089 5.60273 30.6089C4.72321 30.6089 3.84735 30.6089 2.96782 30.6089C2.47675 30.6089 1.98935 30.6089 1.49828 30.6089C1.45064 30.6089 1.403 30.6089 1.35536 30.6089C1.34436 30.6089 1.33337 30.6089 1.32237 30.6089C1.31871 30.6089 1.31871 30.6089 1.31504 30.6089C1.23442 30.6089 1.29306 30.6272 1.30772 30.6089C1.30039 30.6125 1.22343 30.5759 1.28206 30.6052C1.35169 30.6382 1.21976 30.5502 1.2784 30.6052C1.33337 30.6565 1.18312 30.5209 1.24175 30.5685C1.28939 30.6089 1.22343 30.5539 1.23076 30.5429C1.23809 30.5576 1.24175 30.5722 1.24908 30.5832C1.24542 30.5685 1.24175 30.5502 1.23442 30.5356C1.21976 30.5539 1.23442 30.6125 1.23442 30.5319C1.23442 30.5282 1.23442 30.5209 1.23442 30.5172C1.23442 30.4843 1.23442 30.4513 1.23442 30.4183C1.23442 30.0078 1.23442 29.5974 1.23442 29.187C1.23442 28.4027 1.23442 27.6148 1.23442 26.8306C1.23442 25.7641 1.23442 24.7014 1.23442 23.6349C1.23442 22.3853 1.23442 21.1356 1.23442 19.8896C1.23442 18.552 1.23442 17.2181 1.23442 15.8805C1.23442 14.5538 1.23442 13.2236 1.23442 11.8969C1.23442 10.6766 1.23442 9.45992 1.23442 8.23957C1.23442 7.21346 1.23442 6.19101 1.23442 5.1649C1.23442 4.43562 1.23442 3.70635 1.23442 2.97708C1.23442 2.63992 1.23076 2.29911 1.23442 1.96196C1.23442 1.95096 1.23442 1.94363 1.23442 1.93264C1.23442 1.92897 1.23442 1.92897 1.23442 1.92531L1.23809 1.874C1.22709 1.96562 1.23442 1.874 1.24908 1.874C1.24542 1.88133 1.24175 1.88866 1.24175 1.89599C1.22709 1.93264 1.23076 1.92531 1.25641 1.874C1.24908 1.874 1.20144 1.93997 1.24175 1.88866C1.25641 1.87034 1.27473 1.85202 1.29306 1.83736C1.23076 1.88866 1.28939 1.83369 1.30039 1.84102C1.28573 1.83003 1.23076 1.88866 1.28206 1.85202C1.31871 1.82636 1.28573 1.84469 1.26007 1.84835C1.27107 1.84835 1.30039 1.84469 1.31138 1.84469C1.31871 1.84469 1.32237 1.84469 1.3297 1.84469C1.43598 1.84469 1.54592 1.84469 1.6522 1.84469C2.21656 1.84469 2.78092 1.84469 3.34528 1.84469C4.27978 1.84469 5.21061 1.84469 6.14511 1.84469C7.32881 1.84469 8.51617 1.84469 9.69986 1.84469C11.0192 1.84469 12.3384 1.84469 13.6577 1.84469C14.988 1.84469 16.322 1.84469 17.6522 1.84469C18.8909 1.84469 20.1296 1.84469 21.3719 1.84469C22.3944 1.84469 23.4205 1.84469 24.4429 1.84469C25.1355 1.84469 25.8282 1.84469 26.5208 1.84469C26.7627 1.84469 27.0082 1.84469 27.2501 1.84469C27.5359 1.84469 27.8144 1.59182 27.7998 1.29498C27.7778 1.00181 27.5506 0.748943 27.2427 0.748943Z" fill="#00AEA0"/>
<path d="M22.9257 31.1585C22.8634 30.3633 22.8928 29.557 22.966 28.7654C23.0137 28.2231 23.0687 27.82 23.1676 27.2812C23.2702 26.7242 23.3948 26.1745 23.5561 25.6321C23.8786 24.5437 24.245 23.47 24.5492 22.3779C24.8021 21.469 25.0366 20.5492 25.2382 19.6257C25.5313 18.2918 25.7622 16.9358 25.8685 15.5726C25.9271 14.8469 25.9491 14.114 25.8758 13.3921C25.8465 13.1062 25.8282 12.7837 25.7256 12.5089C25.7256 12.5052 25.7256 12.5015 25.7219 12.5015C25.4544 12.7068 25.1832 12.9157 24.9157 13.1209C25.1026 13.2528 25.3224 13.3481 25.5313 13.4397C26.235 13.7475 26.9679 13.9711 27.7155 14.1507C27.994 14.2166 28.3238 14.0627 28.3935 13.7659C28.4594 13.4837 28.3092 13.1612 28.0087 13.0879C27.5946 12.9889 27.1841 12.8753 26.7773 12.7434C26.6271 12.6921 26.4768 12.6408 26.3266 12.5858C26.2569 12.5602 26.1873 12.5309 26.1177 12.5052C26.0957 12.4942 26.07 12.4869 26.0481 12.4759C26.1946 12.5345 26.081 12.4906 26.0517 12.4759C25.8538 12.3879 25.6449 12.2963 25.4654 12.1717C25.0842 11.9005 24.4979 12.3513 24.6591 12.7911C24.6738 12.835 24.6884 12.8827 24.6994 12.9303C24.7141 12.9926 24.7251 13.0549 24.7361 13.1135C24.7434 13.1539 24.7507 13.1942 24.7544 13.2345C24.7581 13.2565 24.7617 13.2785 24.7654 13.3004C24.7581 13.2601 24.7434 13.1282 24.7581 13.2418C24.835 13.9051 24.8277 14.5721 24.7874 15.2354C24.7727 15.4883 24.7507 15.7448 24.7251 15.9977C24.7104 16.1369 24.6958 16.2762 24.6811 16.4118C24.6738 16.4814 24.6628 16.551 24.6555 16.6207C24.6518 16.6573 24.6445 16.6903 24.6408 16.7269C24.6298 16.8222 24.6555 16.6133 24.6371 16.7453C24.5382 17.4489 24.4136 18.1525 24.2707 18.8488C23.8639 20.8167 23.3179 22.7554 22.6985 24.6647C22.0719 26.5996 21.7274 28.6409 21.7933 30.6784C21.797 30.836 21.808 30.9899 21.819 31.1475C21.841 31.4333 22.0572 31.7119 22.3687 31.6972C22.6545 31.6972 22.9514 31.4663 22.9257 31.1585Z" fill="#00AEA0"/>
<path d="M17.0512 1.4453C17.2748 2.8672 18.4255 3.75772 19.6825 4.27078C20.4301 4.57495 21.2217 4.75085 22.0169 4.87545C22.5153 4.95607 23.0174 4.99272 23.4718 5.08067C23.9738 5.17229 24.4649 5.31521 24.9413 5.49112C25.8428 5.82461 26.759 6.334 27.5909 6.8947C27.8364 7.05961 28.1992 6.94234 28.3422 6.6968C28.4997 6.42562 28.3898 6.11045 28.1443 5.94554C27.3967 5.43981 26.6051 5.00005 25.7732 4.64457C25.3151 4.45035 24.8497 4.28177 24.3696 4.15351C23.8602 4.01791 23.3399 3.94828 22.8158 3.88598C22.6252 3.86399 22.508 3.84567 22.2771 3.80902C22.0609 3.77604 21.8447 3.73573 21.6321 3.69175C21.24 3.61113 20.8479 3.51218 20.4667 3.38759C20.3018 3.33261 20.1369 3.27031 19.972 3.20801C19.95 3.20069 19.8767 3.16404 19.9757 3.21168C19.9354 3.19336 19.8914 3.17503 19.8511 3.15671C19.7704 3.12006 19.6898 3.07975 19.6129 3.03944C19.4773 2.96981 19.3417 2.89285 19.2134 2.80856C19.1438 2.76459 19.0815 2.71695 19.0155 2.66931C18.9935 2.65465 18.9349 2.60334 19.0338 2.68396C18.9935 2.65098 18.9532 2.618 18.9129 2.58502C18.7883 2.47874 18.6747 2.36147 18.5684 2.23687C18.5538 2.21855 18.5391 2.20022 18.5208 2.17824C18.6234 2.29917 18.5171 2.17091 18.4988 2.14159C18.4585 2.08295 18.4182 2.02065 18.3815 1.95835C18.3412 1.88873 18.3082 1.8191 18.2716 1.74947C18.2569 1.71649 18.2276 1.6322 18.2753 1.76413C18.2569 1.71649 18.2386 1.67251 18.2239 1.62487C18.1726 1.47095 18.136 1.3097 18.1103 1.14846C18.0627 0.855282 17.6962 0.694036 17.4324 0.763665C17.1245 0.855282 17.0073 1.14846 17.0512 1.4453Z" fill="#00AEA0"/>
<path d="M0.82399 14.1543C1.57159 13.9748 2.30453 13.7512 3.00815 13.4434C3.21703 13.3518 3.43692 13.2565 3.62382 13.1245C3.35629 12.9193 3.08511 12.7104 2.81758 12.5052C2.75528 12.7507 2.71131 12.9926 2.68199 13.2455C2.60137 13.9015 2.6087 14.5721 2.64901 15.2281C2.72597 16.5107 2.92752 17.786 3.18405 19.043C3.57984 20.989 4.11855 22.9093 4.72689 24.8003C5.06404 25.8557 5.36088 26.9661 5.5038 28.0288C5.61741 28.8644 5.67604 29.8099 5.65039 30.6931C5.64673 30.8507 5.63573 31.0046 5.62474 31.1622C5.60275 31.448 5.89226 31.7229 6.17444 31.7119C6.49327 31.6972 6.69849 31.47 6.72415 31.1622C6.78645 30.3669 6.75713 29.5607 6.68383 28.7691C6.58489 27.6697 6.40532 26.5703 6.10115 25.5075C5.78965 24.4118 5.41219 23.338 5.10069 22.2423C4.84416 21.3335 4.60595 20.4136 4.40073 19.4901C4.23582 18.7535 4.08923 18.0096 3.97563 17.262C3.94997 17.0971 3.92432 16.9322 3.90233 16.7672C3.906 16.8002 3.88767 16.6536 3.90233 16.7672C3.89867 16.7306 3.89134 16.694 3.88767 16.661C3.87668 16.584 3.86935 16.5107 3.85836 16.4338C3.82537 16.1662 3.79972 15.8987 3.77773 15.6312C3.7191 14.9019 3.69344 14.158 3.76307 13.4287C3.76674 13.3737 3.77407 13.3188 3.7814 13.2638C3.7814 13.2528 3.78506 13.2381 3.78506 13.2272C3.79239 13.1465 3.7704 13.3261 3.7704 13.3261C3.77407 13.3041 3.77773 13.2785 3.7814 13.2565C3.79239 13.1795 3.80705 13.1062 3.82171 13.0293C3.83637 12.956 3.85836 12.8827 3.87668 12.8094C3.87668 12.8057 3.88034 12.8021 3.88034 12.7984C3.93531 12.5858 3.86202 12.3513 3.68245 12.2194C3.51754 12.0948 3.25368 12.0508 3.07045 12.1754C2.89088 12.3 2.68199 12.3916 2.4841 12.4796C2.46577 12.4869 2.37416 12.5272 2.45478 12.4942C2.54273 12.4576 2.42546 12.5052 2.41813 12.5089C2.35583 12.5345 2.29353 12.5602 2.23123 12.5822C2.08464 12.6371 1.93439 12.6921 1.7878 12.7398C1.37369 12.8753 0.95592 12.9926 0.53448 13.0916C0.244969 13.1612 0.0727284 13.4873 0.149687 13.7695C0.23031 14.0627 0.53448 14.224 0.82399 14.1543Z" fill="#00AEA0"/>
<path d="M0.956043 6.89466C1.68898 6.39992 2.53186 5.91618 3.30511 5.60468C3.7632 5.41778 4.23594 5.26387 4.71968 5.15393C5.22541 5.03666 5.65418 5.00001 6.17456 4.93038C7.67709 4.72149 9.34452 4.35136 10.4916 3.2886C11.0156 2.80486 11.3784 2.15254 11.492 1.44526C11.536 1.16308 11.4187 0.840584 11.1072 0.76729C10.8434 0.708655 10.4769 0.847913 10.4293 1.15208C10.4073 1.29134 10.378 1.42693 10.3377 1.55886C10.3157 1.62849 10.2864 1.69812 10.2644 1.76775C10.3193 1.61383 10.235 1.82639 10.2131 1.8667C10.1508 1.98763 10.0738 2.09391 10.0005 2.20385C9.93454 2.3028 10.0628 2.13788 10.0078 2.19286C9.98585 2.21484 9.96752 2.2405 9.9492 2.26248C9.89789 2.32478 9.83926 2.38342 9.78429 2.43839C9.73298 2.48603 9.68168 2.53367 9.63037 2.58131C9.59739 2.61063 9.44714 2.72424 9.56074 2.64361C9.42881 2.73889 9.29322 2.83051 9.15396 2.9148C9.01837 2.99542 8.87544 3.06872 8.73252 3.13468C8.69954 3.14934 8.50164 3.23729 8.61525 3.18965C8.51264 3.22996 8.41003 3.27027 8.30742 3.30692C7.54516 3.58177 6.74626 3.73936 5.94369 3.85663C5.89238 3.86395 5.84108 3.87128 5.72747 3.88594C5.60287 3.9006 5.47461 3.91526 5.35001 3.92992C5.08249 3.9629 4.81863 4.00321 4.55844 4.06185C4.0747 4.16812 3.59829 4.31471 3.13654 4.49428C2.17272 4.87175 1.26021 5.36281 0.406339 5.94184C0.160805 6.10675 0.0508637 6.42558 0.208446 6.6931C0.347704 6.9423 0.710509 7.06323 0.956043 6.89466Z" fill="#00AEA0"/>
<path d="M14.1268 18.2589C15.0027 18.4861 15.9042 18.6254 16.8057 18.6987C17.7329 18.7756 18.7773 18.8086 19.6605 18.4678C20.1113 18.2919 20.551 18.017 20.7636 17.5626C20.8882 17.2914 20.8406 16.9689 20.5657 16.8114C20.3275 16.6721 19.939 16.7381 19.8144 17.0092C19.8071 17.0276 19.7008 17.1961 19.7045 17.1998C19.6972 17.1888 19.8034 17.0972 19.7375 17.1522C19.7228 17.1632 19.7118 17.1815 19.7008 17.1925C19.6752 17.2181 19.6459 17.2438 19.6202 17.2694C19.5726 17.3171 19.7228 17.2035 19.6165 17.2731C19.5836 17.2951 19.5506 17.3171 19.5139 17.3354C19.4773 17.3574 19.4406 17.3757 19.404 17.394C19.3893 17.4014 19.3747 17.4087 19.36 17.416C19.2794 17.4563 19.36 17.4307 19.3857 17.405C19.327 17.4527 19.1988 17.471 19.1255 17.493C19.0339 17.5186 18.9386 17.5406 18.8433 17.5626C18.792 17.5736 18.7443 17.5809 18.693 17.5883C18.6381 17.5956 18.5208 17.6103 18.6454 17.5956C18.5318 17.6066 18.4182 17.6212 18.3009 17.6286C17.8392 17.6616 17.3737 17.6469 16.9157 17.6139C16.6811 17.5956 16.4466 17.5736 16.2157 17.5443C16.1937 17.5406 16.0215 17.5186 16.0948 17.5296C16.1681 17.5406 16.0251 17.5186 15.9995 17.515C15.8822 17.4966 15.7686 17.4783 15.6513 17.46C15.2372 17.3904 14.8231 17.3097 14.4163 17.2035C14.1378 17.1302 13.808 17.2951 13.7384 17.5883C13.6797 17.8704 13.83 18.1819 14.1268 18.2589Z" fill="#00AEA0"/>
<path d="M14.1268 10.6327C15.0027 10.8599 15.9042 10.9992 16.8057 11.0724C17.7329 11.1494 18.7773 11.1824 19.6605 10.8416C20.1113 10.6657 20.551 10.3908 20.7636 9.93639C20.8882 9.6652 20.8406 9.34271 20.5657 9.18513C20.3275 9.04587 19.939 9.11184 19.8144 9.38302C19.8071 9.40135 19.7008 9.56992 19.7045 9.57359C19.6972 9.56259 19.8034 9.47098 19.7375 9.52595C19.7228 9.53694 19.7118 9.55526 19.7008 9.56626C19.6752 9.59191 19.6459 9.61756 19.6202 9.64322C19.5726 9.69086 19.7228 9.57725 19.6165 9.64688C19.5836 9.66887 19.5506 9.69086 19.5139 9.70918C19.4773 9.73117 19.4406 9.74949 19.404 9.76782C19.3893 9.77515 19.3747 9.78247 19.36 9.7898C19.2794 9.83012 19.36 9.80446 19.3857 9.77881C19.327 9.82645 19.1988 9.84477 19.1255 9.86676C19.0339 9.89242 18.9386 9.9144 18.8433 9.93639C18.792 9.94739 18.7443 9.95472 18.693 9.96205C18.6381 9.96937 18.5208 9.98403 18.6454 9.96938C18.5318 9.98037 18.4182 9.99503 18.3009 10.0024C17.8392 10.0353 17.3737 10.0207 16.9157 9.9877C16.6811 9.96938 16.4466 9.94739 16.2157 9.91807C16.1937 9.9144 16.0215 9.89242 16.0948 9.90341C16.1681 9.9144 16.0251 9.89242 15.9995 9.88875C15.8822 9.87043 15.7686 9.8521 15.6513 9.83378C15.2372 9.76415 14.8231 9.68353 14.4163 9.57725C14.1378 9.50396 13.808 9.66887 13.7384 9.96205C13.6797 10.2442 13.83 10.5557 14.1268 10.6327Z" fill="#00AEA0"/>
<path d="M7.78324 9.9364C8.1717 10.7793 9.23079 11.0028 10.059 11.0834C11.0705 11.1824 12.1039 11.0651 13.1044 10.9039C13.5478 10.8306 13.9876 10.7463 14.42 10.6327C14.7058 10.5594 14.8817 10.2406 14.8048 9.95472C14.7242 9.66521 14.4163 9.49663 14.1268 9.56993C13.7787 9.66154 13.4232 9.73484 13.0677 9.79714C12.8515 9.83379 12.6353 9.86677 12.4191 9.89975C12.562 9.87776 12.3898 9.90342 12.3531 9.90708C12.2945 9.91441 12.2395 9.92174 12.1809 9.92907C12.0563 9.94373 11.9317 9.95472 11.8071 9.96572C11.3417 10.006 10.8762 10.0244 10.4108 10.006C10.3082 10.0024 10.2056 9.99503 10.0993 9.98404C10.0444 9.98037 9.99305 9.97304 9.93808 9.96572C9.90876 9.96205 9.8318 9.95106 9.9674 9.96938C9.93441 9.96572 9.9051 9.95839 9.87211 9.95472C9.68155 9.9254 9.49099 9.88143 9.30409 9.81913C9.27843 9.8118 9.17582 9.78981 9.16116 9.76782C9.16849 9.78248 9.2711 9.81913 9.20147 9.78615C9.17949 9.77515 9.15383 9.76416 9.12818 9.75316C9.04756 9.71285 8.97426 9.65788 8.89364 9.6139C8.83867 9.58092 8.97793 9.69453 8.93762 9.64689C8.92296 9.62856 8.90097 9.6139 8.88265 9.59925C8.85699 9.57359 8.82768 9.52962 8.79469 9.50763C8.74339 9.47465 8.85699 9.61024 8.82768 9.55527C8.81668 9.53695 8.80202 9.51862 8.79103 9.49663C8.76538 9.45632 8.74705 9.41601 8.72506 9.3757C8.60047 9.10451 8.21201 9.03855 7.9738 9.17781C7.70628 9.34638 7.65864 9.66521 7.78324 9.9364Z" fill="#00AEA0"/>
<path d="M7.78324 17.559C8.1717 18.4018 9.23079 18.6254 10.059 18.706C11.0705 18.805 12.1039 18.6877 13.1044 18.5264C13.5478 18.4531 13.9876 18.3689 14.42 18.2552C14.7058 18.182 14.8817 17.8631 14.8048 17.5773C14.7242 17.2878 14.4163 17.1192 14.1268 17.1925C13.7787 17.2841 13.4232 17.3574 13.0677 17.4197C12.8515 17.4563 12.6353 17.4893 12.4191 17.5223C12.562 17.5003 12.3898 17.526 12.3531 17.5296C12.2945 17.537 12.2395 17.5443 12.1809 17.5516C12.0563 17.5663 11.9317 17.5773 11.8071 17.5883C11.3417 17.6286 10.8762 17.6469 10.4108 17.6286C10.3082 17.6249 10.2056 17.6176 10.0993 17.6066C10.0444 17.6029 9.99305 17.5956 9.93808 17.5883C9.90876 17.5846 9.8318 17.5736 9.9674 17.5919C9.93441 17.5883 9.9051 17.5809 9.87211 17.5773C9.68155 17.548 9.49099 17.504 9.30409 17.4417C9.27843 17.4344 9.17582 17.4124 9.16116 17.3904C9.16849 17.405 9.2711 17.4417 9.20147 17.4087C9.17949 17.3977 9.15383 17.3867 9.12818 17.3757C9.04756 17.3354 8.97426 17.2804 8.89364 17.2365C8.83867 17.2035 8.97793 17.3171 8.93762 17.2694C8.92296 17.2511 8.90097 17.2365 8.88265 17.2218C8.85699 17.1962 8.82768 17.1522 8.79469 17.1302C8.74339 17.0972 8.85699 17.2328 8.82768 17.1778C8.81668 17.1595 8.80202 17.1412 8.79103 17.1192C8.76538 17.0789 8.74705 17.0386 8.72506 16.9983C8.60047 16.7271 8.21201 16.6611 7.9738 16.8004C7.70628 16.9689 7.65864 17.2914 7.78324 17.559Z" fill="#00AEA0"/>
<path d="M14.1268 22.1068C14.8781 22.2937 15.6587 22.4036 16.4319 22.4549C17.2052 22.5062 18.0737 22.5209 18.8066 22.235C19.1988 22.0811 19.5872 21.8466 19.7705 21.4471C19.8951 21.1796 19.8474 20.8535 19.5726 20.6959C19.3344 20.5566 18.9459 20.6226 18.8213 20.8938C18.8066 20.9267 18.7187 21.0843 18.7663 21C18.8103 20.9231 18.77 20.9964 18.748 21.0184C18.726 21.0404 18.7004 21.0623 18.6784 21.0843C18.6234 21.143 18.7847 21.0184 18.6857 21.077C18.6601 21.0917 18.6344 21.11 18.6087 21.1246C18.5758 21.143 18.5464 21.1576 18.5135 21.1759C18.4988 21.1833 18.4841 21.1869 18.4695 21.1979C18.4109 21.2309 18.5758 21.1613 18.5098 21.1796C18.3632 21.2236 18.2203 21.2749 18.07 21.3079C17.9894 21.3262 17.9051 21.3372 17.8245 21.3519C17.9198 21.3372 17.8758 21.3445 17.8135 21.3519C17.7585 21.3592 17.7036 21.3628 17.6486 21.3665C17.2638 21.3958 16.879 21.3922 16.4942 21.3665C16.3037 21.3555 16.1094 21.3372 15.9189 21.3189C15.8272 21.3079 15.732 21.2969 15.6403 21.2859C15.5304 21.2712 15.7283 21.3005 15.6184 21.2822C15.5634 21.2749 15.5084 21.2676 15.4534 21.2566C15.1053 21.2016 14.7572 21.1393 14.4127 21.0513C14.1342 20.9817 13.8043 21.1393 13.7347 21.4361C13.6797 21.7147 13.83 22.0298 14.1268 22.1068Z" fill="#00AEA0"/>
<path d="M8.77639 21.447C9.11354 22.169 10.0187 22.3669 10.7333 22.4438C11.5799 22.5355 12.4411 22.4475 13.2803 22.3266C13.6651 22.2716 14.0462 22.202 14.42 22.1067C14.7095 22.0334 14.8818 21.7109 14.8048 21.4287C14.7242 21.1355 14.4164 20.9743 14.1268 21.0439C13.83 21.1172 13.5295 21.1759 13.229 21.2272C13.141 21.2418 13.0531 21.2565 12.9651 21.2675C12.9102 21.2748 12.8479 21.2821 12.9431 21.2711C12.8918 21.2785 12.8442 21.2821 12.7929 21.2895C12.595 21.3114 12.4008 21.3334 12.2029 21.3481C11.8144 21.3774 11.426 21.3884 11.0412 21.3664C10.9496 21.3628 10.8616 21.3554 10.7736 21.3444C10.7333 21.3408 10.693 21.3334 10.6527 21.3298C10.7663 21.3408 10.682 21.3334 10.6234 21.3224C10.4621 21.2968 10.3009 21.2601 10.1433 21.2088C10.1067 21.1978 10.07 21.1795 10.0334 21.1685C9.97841 21.1502 10.092 21.1868 10.0884 21.1942C10.0847 21.1978 10.0224 21.1612 10.0151 21.1612C9.95276 21.1282 9.89412 21.0879 9.83549 21.0549C9.77685 21.0256 9.91978 21.1392 9.87946 21.0879C9.86847 21.0732 9.85015 21.0622 9.83549 21.0513C9.8135 21.0293 9.79151 21.0036 9.76952 20.9816C9.72188 20.9376 9.83182 21.0916 9.77685 20.9853C9.75853 20.9523 9.74021 20.923 9.72555 20.89C9.60095 20.6225 9.21249 20.5529 8.97428 20.6921C8.69577 20.857 8.64813 21.1759 8.77639 21.447Z" fill="#00AEA0"/>
<path d="M14.1268 14.3998C15.1713 14.6783 16.2524 14.8579 17.3298 14.9605C17.9161 15.0155 18.5061 15.0411 19.0925 15.0118C19.6459 14.9825 20.2212 14.9165 20.7416 14.7186C21.273 14.5171 21.7897 14.1909 22.0352 13.6522C22.1598 13.381 22.1122 13.0585 21.8374 12.901C21.5991 12.7617 21.2107 12.8277 21.0861 13.0988C21.0751 13.1208 20.9468 13.3407 20.9468 13.3407C20.9248 13.3151 21.0348 13.2418 20.9798 13.2931C20.9615 13.3077 20.9505 13.3297 20.9322 13.3444C20.8955 13.381 20.8589 13.4177 20.8186 13.4507C20.7123 13.5459 20.9139 13.392 20.7893 13.469C20.7453 13.4946 20.705 13.5239 20.661 13.5496C20.6207 13.5716 20.5804 13.5936 20.5364 13.6156C20.5144 13.6266 20.4887 13.6376 20.4631 13.6485C20.3715 13.6925 20.5804 13.6082 20.4741 13.6449C20.2505 13.7218 20.0307 13.7878 19.7998 13.8318C19.7448 13.8428 19.6898 13.8501 19.6312 13.8611C19.5982 13.8648 19.5689 13.8721 19.5359 13.8758C19.6752 13.8538 19.5982 13.8684 19.5652 13.8721C19.4187 13.8868 19.2721 13.9014 19.1255 13.9087C18.5684 13.9417 18.0077 13.9197 17.4544 13.8721C17.3078 13.8611 17.1649 13.8464 17.0183 13.8281C16.945 13.8208 16.8754 13.8098 16.8021 13.8025C16.7727 13.7988 16.7434 13.7951 16.7178 13.7915C16.5895 13.7768 16.8131 13.8061 16.6958 13.7878C16.4246 13.7475 16.1534 13.7072 15.8822 13.6595C15.3875 13.5716 14.8964 13.4653 14.4127 13.337C14.1342 13.2638 13.8043 13.4287 13.7347 13.7218C13.6761 14.0114 13.83 14.3192 14.1268 14.3998Z" fill="#00AEA0"/>
<path d="M6.51159 13.6522C6.97334 14.6637 8.25965 14.9202 9.25278 14.9972C10.4585 15.0924 11.6861 14.9422 12.8735 14.7333C13.3939 14.6417 13.9106 14.5354 14.42 14.3962C14.7058 14.3192 14.8817 14.004 14.8048 13.7182C14.7242 13.4287 14.4163 13.2564 14.1268 13.3334C13.7054 13.447 13.2803 13.5386 12.8515 13.6192C12.5876 13.6705 12.3201 13.7145 12.0563 13.7548C11.994 13.7658 11.9317 13.7732 11.8694 13.7805C11.8364 13.7841 11.7374 13.7988 11.8657 13.7805C11.8364 13.7841 11.8107 13.7878 11.7814 13.7915C11.6238 13.8098 11.4663 13.8281 11.3087 13.8464C10.7516 13.9014 10.1873 13.9307 9.62658 13.9124C9.49098 13.9087 9.35172 13.9014 9.21613 13.8904C9.15017 13.8831 9.0842 13.8794 9.01824 13.8721C8.99258 13.8684 8.96693 13.8648 8.94128 13.8611C9.09153 13.8794 8.9706 13.8648 8.93395 13.8611C8.69574 13.8245 8.45754 13.7732 8.23033 13.6962C8.17169 13.6779 8.09107 13.6595 8.04343 13.6266C8.04709 13.6302 8.16803 13.6852 8.08374 13.6449C8.05442 13.6302 8.0251 13.6192 7.99945 13.6046C7.95548 13.5826 7.72094 13.4836 7.71361 13.4323C7.71727 13.4543 7.81622 13.524 7.73559 13.447C7.71361 13.4287 7.69162 13.4103 7.67329 13.3884C7.64031 13.3554 7.61099 13.3187 7.57801 13.2857C7.50472 13.2125 7.64764 13.3994 7.59634 13.3077C7.58168 13.2857 7.56335 13.2638 7.5487 13.2381C7.51938 13.1905 7.49372 13.1392 7.47174 13.0915C7.34714 12.8203 6.95868 12.7544 6.72047 12.8936C6.43096 13.0622 6.38699 13.381 6.51159 13.6522Z" fill="#00AEA0"/>
<path d="M11.1548 27.461C12.1955 27.461 13.2327 27.461 14.2734 27.461C14.5593 27.461 14.8378 27.2081 14.8231 26.9113C14.8085 26.6144 14.5813 26.3616 14.2734 26.3616C13.2327 26.3616 12.1955 26.3616 11.1548 26.3616C10.8689 26.3616 10.5904 26.6144 10.6051 26.9113C10.6161 27.2081 10.8469 27.461 11.1548 27.461Z" fill="#00AEA0"/>
<path d="M13.7237 7.95748C13.7237 8.59148 13.7237 9.2218 13.7237 9.8558C13.7237 11.362 13.7237 12.8645 13.7237 14.3707C13.7237 16.1957 13.7237 18.0207 13.7237 19.8457C13.7237 21.4252 13.7237 23.001 13.7237 24.5805C13.7237 25.3465 13.7017 26.1124 13.7237 26.8783C13.7237 26.8893 13.7237 26.9003 13.7237 26.9113C13.7237 27.2081 13.9766 27.461 14.2734 27.461C15.1896 27.461 16.1094 27.461 17.0256 27.461C17.1575 27.461 17.2858 27.461 17.4177 27.461C17.7036 27.461 17.9821 27.2081 17.9674 26.9113C17.9528 26.6144 17.7256 26.3616 17.4177 26.3616C16.5015 26.3616 15.5817 26.3616 14.6655 26.3616C14.5336 26.3616 14.4053 26.3616 14.2734 26.3616C14.4566 26.5448 14.6399 26.728 14.8231 26.9113C14.8231 26.2773 14.8231 25.647 14.8231 25.013C14.8231 23.5068 14.8231 22.0043 14.8231 20.4981C14.8231 18.673 14.8231 16.848 14.8231 15.023C14.8231 13.4435 14.8231 11.8677 14.8231 10.2882C14.8231 9.52231 14.8451 8.75639 14.8231 7.99047C14.8231 7.97947 14.8231 7.96848 14.8231 7.95748C14.8231 7.67164 14.5703 7.39312 14.2734 7.40778C13.9766 7.41877 13.7237 7.64965 13.7237 7.95748Z" fill="#00AEA0"/>
</svg>
