<svg width="25" height="25" viewBox="0 0 25 25" fill="none" xmlns="http://www.w3.org/2000/svg">
<path d="M19.5001 17.4847C19.5001 18.5769 18.5274 19.5603 17.5697 19.9522C15.3609 20.8711 12.8393 19.4891 11.0725 18.2047C9.32842 16.9327 7.78517 15.3967 6.51314 13.6522C5.23834 11.8826 3.88357 9.40874 4.77053 7.19468C5.15304 6.22391 6.09031 5.23718 7.19667 5.23718C8.80893 5.23718 11.2749 8.8976 9.87819 10.2922C9.50873 10.6756 9.079 10.9357 9.26978 11.5072C9.70959 12.3123 10.4204 13.0038 11.0575 13.6522C11.713 14.2946 12.4005 15.0111 13.2207 15.4447C13.7781 15.6673 14.0578 15.204 14.4225 14.8447C15.6777 13.5914 19.5001 15.7218 19.5001 17.4847Z" stroke="#8E9AA0" stroke-miterlimit="10"/>
<path d="M13.5 8.23718C13.5 6.30419 15.067 4.73718 17 4.73718V4.73718C18.933 4.73718 20.5 6.30419 20.5 8.23718V8.23718C20.5 10.1702 18.933 11.7372 17 11.7372H13.8333C13.6492 11.7372 13.5 11.5879 13.5 11.4038V8.23718Z" stroke="#8E9AA0"/>
<path d="M17 6.73718V9.73718M15.5 8.23718L18.5 8.23718" stroke="#8E9AA0" stroke-linecap="round"/>
</svg>
