<svg width="17" height="17" viewBox="0 0 17 17" fill="none" xmlns="http://www.w3.org/2000/svg">
<path d="M15.3537 6.19162L11.0367 5.56362L9.1097 1.65262C8.92335 1.33203 8.58052 1.13477 8.2097 1.13477C7.83888 1.13477 7.49606 1.33203 7.3097 1.65262L5.3827 5.56462L1.0657 6.19162C0.688575 6.24571 0.374946 6.50939 0.256891 6.87162C0.138836 7.23386 0.236867 7.6317 0.509703 7.89762L3.6327 10.9426L2.8957 15.2426C2.83142 15.6178 2.98568 15.9969 3.29363 16.2206C3.60158 16.4443 4.00981 16.4737 4.3467 16.2966L8.2097 14.2656L12.0707 16.2946C12.4076 16.4717 12.8158 16.4423 13.1238 16.2186C13.4317 15.9949 13.586 15.6158 13.5217 15.2406L12.7847 10.9406L15.9097 7.89762C16.1818 7.63191 16.2797 7.23482 16.1622 6.87309C16.0446 6.51136 15.7321 6.24762 15.3557 6.19262L15.3537 6.19162Z" fill="#FFDD40"/>
</svg>
