<svg width="17" height="17" viewBox="0 0 17 17" fill="none" xmlns="http://www.w3.org/2000/svg">
<path d="M15.5373 6.19162L11.2203 5.56362L9.2933 1.65262C9.10694 1.33203 8.76412 1.13477 8.3933 1.13477C8.02247 1.13477 7.67965 1.33203 7.4933 1.65262L5.5663 5.56462L1.2493 6.19162C0.872169 6.24571 0.55854 6.50939 0.440485 6.87162C0.322429 7.23386 0.420461 7.6317 0.693296 7.89762L3.8163 10.9426L3.0793 15.2426C3.01502 15.6178 3.16928 15.9969 3.47723 16.2206C3.78517 16.4443 4.19341 16.4737 4.5303 16.2966L8.3933 14.2656L12.2543 16.2946C12.5912 16.4717 12.9994 16.4423 13.3074 16.2186C13.6153 15.9949 13.7696 15.6158 13.7053 15.2406L12.9683 10.9406L16.0933 7.89762C16.3654 7.63191 16.4633 7.23482 16.3457 6.87309C16.2282 6.51136 15.9156 6.24762 15.5393 6.19262L15.5373 6.19162Z" fill="#FFDD40"/>
</svg>
