<svg width="19" height="19" viewBox="0 0 19 19" fill="none" xmlns="http://www.w3.org/2000/svg">
<path d="M18.9485 5.97269C18.9043 4.99279 18.746 4.32233 18.5215 3.7366C18.2858 3.13245 17.9729 2.61671 17.4612 2.10834C16.9494 1.59998 16.4377 1.27948 15.8339 1.0474C15.2485 0.819004 14.5784 0.664283 13.5991 0.620077C12.6161 0.575871 12.3032 0.564819 9.80706 0.564819C7.30724 0.564819 6.9943 0.575871 6.01499 0.620077C5.03568 0.664283 4.36562 0.822688 3.78025 1.0474C3.17278 1.28317 2.65735 1.59629 2.14929 2.10834C1.64123 2.6204 1.32092 3.13245 1.08898 3.7366C0.864403 4.32233 0.706093 4.99279 0.661914 5.97269C0.617734 6.95627 0.606689 7.26939 0.606689 9.76703C0.606689 12.2684 0.617734 12.5815 0.661914 13.5614C0.706093 14.5413 0.864403 15.2117 1.08898 15.7975C1.32461 16.4016 1.63754 16.9174 2.14929 17.4257C2.65735 17.9378 3.17278 18.2546 3.77657 18.4867C4.36194 18.7151 5.032 18.8698 6.01131 18.914C6.9943 18.9582 7.30724 18.9692 9.80338 18.9692C12.3032 18.9692 12.6161 18.9582 13.5955 18.914C14.5748 18.8698 15.2448 18.7114 15.8302 18.4867C16.434 18.2509 16.9494 17.9378 17.4575 17.4257C17.9655 16.9137 18.2858 16.4016 18.5178 15.7975C18.746 15.2117 18.9007 14.5413 18.9448 13.5614C18.989 12.5778 19.0001 12.2647 19.0001 9.76703C19.0001 7.26939 18.9927 6.95258 18.9485 5.97269ZM17.2955 13.4877C17.255 14.3866 17.104 14.8765 16.9789 15.197C16.8132 15.6243 16.6107 15.9338 16.2867 16.2579C15.9627 16.5821 15.6572 16.7774 15.2264 16.9505C14.9024 17.0758 14.4128 17.2268 13.5181 17.2673C12.5499 17.3115 12.259 17.3226 9.7997 17.3226C7.34037 17.3226 7.04953 17.3115 6.08126 17.2673C5.18294 17.2268 4.69329 17.0758 4.37299 16.9505C3.94592 16.7847 3.63666 16.5821 3.31268 16.2579C2.9887 15.9338 2.79357 15.628 2.62054 15.197C2.49536 14.8728 2.34441 14.3829 2.30392 13.4877C2.25974 12.5189 2.24869 12.2278 2.24869 9.76703C2.24869 7.30623 2.25974 7.01521 2.30392 6.04636C2.34441 5.14751 2.49536 4.65756 2.62054 4.33706C2.78621 3.90974 2.9887 3.6003 3.31268 3.27612C3.63666 2.95194 3.94224 2.7567 4.37299 2.58356C4.69697 2.45831 5.18663 2.30727 6.08126 2.26675C7.04953 2.22254 7.34037 2.21149 9.7997 2.21149C12.259 2.21149 12.5499 2.22254 13.5181 2.26675C14.4165 2.30727 14.9061 2.45831 15.2264 2.58356C15.6535 2.74933 15.9627 2.95194 16.2867 3.27612C16.6107 3.6003 16.8058 3.90606 16.9789 4.33706C17.104 4.66124 17.255 5.15119 17.2955 6.04636C17.3397 7.01521 17.3507 7.30623 17.3507 9.76703C17.3507 12.2278 17.336 12.5189 17.2955 13.4877Z" fill="#6F6F6F"/>
<path d="M9.79965 5.03687C7.1857 5.03687 5.07245 7.15507 5.07245 9.76691C5.07245 12.3824 7.18938 14.4969 9.79965 14.4969C12.4099 14.4969 14.5269 12.3751 14.5269 9.76691C14.5269 7.15138 12.4136 5.03687 9.79965 5.03687ZM9.79965 12.8355C8.1061 12.8355 6.73286 11.4615 6.73286 9.76691C6.73286 8.07234 8.1061 6.69827 9.79965 6.69827C11.4932 6.69827 12.8664 8.07234 12.8664 9.76691C12.8664 11.4615 11.4932 12.8355 9.79965 12.8355Z" fill="#6F6F6F"/>
<path d="M14.7109 5.95798C15.3209 5.95798 15.8154 5.46319 15.8154 4.85283C15.8154 4.24247 15.3209 3.74768 14.7109 3.74768C14.1009 3.74768 13.6064 4.24247 13.6064 4.85283C13.6064 5.46319 14.1009 5.95798 14.7109 5.95798Z" fill="#6F6F6F"/>
<path d="M0.595581 9.76709C0.595581 12.2684 0.606626 12.5815 0.650805 13.5614C0.694985 14.5413 0.853295 15.2118 1.07787 15.7975C1.3135 16.4017 1.62644 16.9174 2.13818 17.4258C2.64624 17.9341 3.16167 18.2546 3.76546 18.4867C4.35083 18.7151 5.02089 18.8698 6.0002 18.914C6.98319 18.9583 7.29613 18.9693 9.79227 18.9693C12.2921 18.9693 12.605 18.9583 13.5843 18.914C14.5637 18.8698 15.2337 18.7114 15.8191 18.4867C16.4229 18.251 16.9383 17.9378 17.4464 17.4258C17.9544 16.9174 18.2747 16.4017 18.5067 15.7975C18.7349 15.2118 18.8896 14.5413 18.9337 13.5614C18.9779 12.5779 18.989 12.2647 18.989 9.76709C18.989 7.26577 18.9779 6.95265 18.9337 5.97275C18.8896 4.99285 18.7312 4.32239 18.5067 3.73666C18.271 3.13251 17.9581 2.61677 17.4464 2.10841C16.942 1.59635 16.4266 1.27954 15.8228 1.04746C15.2374 0.819065 14.5673 0.664344 13.588 0.620138C12.605 0.575932 12.2921 0.56488 9.79595 0.56488C7.29613 0.56488 6.98319 0.575932 6.00388 0.620138C5.02457 0.664344 4.35452 0.822749 3.76914 1.04746C3.16535 1.28323 2.64993 1.59635 2.14186 2.10841C1.6338 2.62046 1.3135 3.13251 1.08156 3.73666C0.853295 4.32239 0.694985 4.99285 0.650805 5.97275C0.606626 6.95265 0.595581 7.26577 0.595581 9.76709ZM2.25599 9.76709C2.25599 7.30998 2.26704 7.01527 2.31122 6.04642C2.35171 5.14757 2.50266 4.65762 2.62784 4.33712C2.79351 3.9098 2.996 3.60036 3.31998 3.27618C3.64396 2.952 3.94954 2.75676 4.38029 2.58362C4.70427 2.45837 5.19393 2.30733 6.08856 2.26681C7.05683 2.2226 7.34767 2.21155 9.807 2.21155C12.2663 2.21155 12.5572 2.2226 13.5254 2.26681C14.4238 2.30733 14.9134 2.45837 15.2337 2.58362C15.6608 2.74939 15.97 2.952 16.294 3.27618C16.618 3.60036 16.8131 3.90612 16.9862 4.33712C17.1113 4.6613 17.2623 5.15125 17.3028 6.04642C17.347 7.01527 17.358 7.30629 17.358 9.76709C17.358 12.2279 17.347 12.5189 17.3028 13.4878C17.2623 14.3866 17.1113 14.8766 16.9862 15.1971C16.8205 15.6244 16.618 15.9338 16.294 16.258C15.97 16.5822 15.6645 16.7774 15.2337 16.9506C14.9097 17.0758 14.4201 17.2269 13.5254 17.2674C12.5572 17.3116 12.2663 17.3226 9.807 17.3226C7.34767 17.3226 7.05683 17.3116 6.08856 17.2674C5.19024 17.2269 4.70059 17.0758 4.38029 16.9506C3.95322 16.7848 3.64396 16.5822 3.31998 16.258C2.996 15.9338 2.80087 15.6281 2.62784 15.1971C2.50266 14.8729 2.35171 14.3829 2.31122 13.4878C2.26336 12.5189 2.25599 12.2242 2.25599 9.76709Z" fill="#6F6F6F"/>
</svg>
