<svg width="19" height="19" viewBox="0 0 19 19" fill="none" xmlns="http://www.w3.org/2000/svg">
<g clip-path="url(#clip0_62_12636)">
<path d="M0.418823 3.02004C0.418823 2.42787 0.626086 1.93933 1.04059 1.55444C1.4551 1.16953 1.99398 0.977081 2.6572 0.977081C3.30858 0.977081 3.8356 1.16656 4.23827 1.54556C4.65278 1.93639 4.86005 2.44563 4.86005 3.07334C4.86005 3.64181 4.65872 4.11553 4.25604 4.49453C3.84153 4.88536 3.29674 5.08077 2.62167 5.08077H2.6039C1.95252 5.08077 1.42551 4.88536 1.02283 4.49453C0.620153 4.1037 0.418823 3.6122 0.418823 3.02004ZM0.649767 18.5643V6.69738H4.59357V18.5643H0.649767ZM6.77865 18.5643H10.7225V11.938C10.7225 11.5235 10.7698 11.2037 10.8646 10.9787C11.0304 10.576 11.2821 10.2355 11.6196 9.95723C11.9571 9.67891 12.3805 9.53976 12.8898 9.53976C14.2162 9.53976 14.8794 10.4339 14.8794 12.2223V18.5643H18.8232V11.7604C18.8232 10.0076 18.4087 8.67816 17.5797 7.77215C16.7507 6.86614 15.6552 6.41314 14.2932 6.41314C12.7654 6.41314 11.5752 7.07044 10.7225 8.38504V8.42057H10.7047L10.7225 8.38504V6.69738H6.77865C6.80233 7.07635 6.81418 8.25475 6.81418 10.2326C6.81418 12.2104 6.80233 14.9876 6.77865 18.5643Z" fill="#6F6F6F"/>
</g>
<defs>
<clipPath id="clip0_62_12636">
<rect width="18.4044" height="18.4044" fill="white" transform="translate(0.418823 0.56488)"/>
</clipPath>
</defs>
</svg>
