<svg width="25" height="25" viewBox="0 0 25 25" fill="none" xmlns="http://www.w3.org/2000/svg">
<path d="M12.4999 15.1399C14.6299 15.1399 16.3699 13.4099 16.3699 11.2699C16.3699 9.12991 14.6299 7.40991 12.4999 7.40991C10.3699 7.40991 8.62987 9.13991 8.62987 11.2799C8.62987 13.4199 10.3699 15.1399 12.4999 15.1399ZM12.4999 8.90991C13.7999 8.90991 14.8699 9.96991 14.8699 11.2799C14.8699 12.5899 13.8099 13.6499 12.4999 13.6499C11.1899 13.6499 10.1299 12.5899 10.1299 11.2799C10.1299 9.96991 11.1999 8.90991 12.4999 8.90991Z" fill="#667372"/>
<path d="M12.4999 23.73C13.9799 23.73 15.4699 23.17 16.6299 22.06C19.5799 19.22 22.8399 14.69 21.6099 9.29997C20.4999 4.40997 16.2299 2.21997 12.4999 2.21997C12.4999 2.21997 12.4999 2.21997 12.4899 2.21997C8.75988 2.21997 4.48988 4.40997 3.37988 9.30997C2.15988 14.7 5.41989 19.22 8.36989 22.06C9.52989 23.17 11.0199 23.73 12.4999 23.73ZM12.4999 3.71997C15.4099 3.71997 19.1499 5.26997 20.1399 9.62997C21.2199 14.34 18.2599 18.4 15.5799 20.97C13.8499 22.64 11.1399 22.64 9.40988 20.97C6.73988 18.4 3.77989 14.34 4.83989 9.62997C5.83989 5.26997 9.58988 3.71997 12.4999 3.71997Z" fill="#667372"/>
</svg>
