<svg width="41" height="41" viewBox="0 0 41 41" fill="none" xmlns="http://www.w3.org/2000/svg">
<path d="M28.9644 11.2788L31.9107 14.225M28.9644 11.2788L26.0181 8.33249M28.9644 11.2788L31.9107 8.33249M24.8396 7.15397C25.2999 7.61421 26.0181 8.33249 26.0181 8.33249M33.0892 15.4036C32.629 14.9433 31.9107 14.225 31.9107 14.225M31.9107 14.225L26.0181 20.1176M26.0181 8.33249L20.1256 14.225M17.1793 26.5994L17.6507 27.0708C18.0412 27.4613 18.6744 27.4613 19.0649 27.0708L26.0181 20.1176M17.1793 26.5994L16.59 27.1887C15.6137 28.165 14.0308 28.165 13.0545 27.1887V27.1887V27.1887C12.0782 26.2124 12.0782 24.6294 13.0545 23.6531L13.6438 23.0639M17.1793 26.5994L13.6438 23.0639M13.6438 23.0639L13.1724 22.5925C12.7818 22.2019 12.7818 21.5688 13.1724 21.1783L20.1256 14.225M20.1256 14.225L26.0181 20.1176M31.9107 8.33249L30.7645 7.18633C30.7435 7.16534 30.73 7.13806 30.7259 7.10866C30.7223 7.08279 30.7537 7.06721 30.7721 7.08567L33.1575 9.47102C33.1759 9.48948 33.1604 9.52083 33.1345 9.51726C33.1051 9.5132 33.0778 9.49964 33.0568 9.47865L31.9107 8.33249Z" stroke="#00AEA0" stroke-linecap="round"/>
<path d="M8.21482 32.0284L13.0545 27.1887" stroke="#00AEA0" stroke-linecap="round"/>
<path d="M20.1255 24.8316L18.947 23.6531" stroke="#00AEA0" stroke-linecap="round"/>
<path d="M21.8933 23.064L20.7148 21.8855" stroke="#00AEA0" stroke-linecap="round"/>
<path d="M23.6611 21.2962L22.4826 20.1177" stroke="#00AEA0" stroke-linecap="round"/>
</svg>
