<svg width="41" height="43" viewBox="0 0 41 43" fill="none" xmlns="http://www.w3.org/2000/svg">
<path d="M34.4354 13.0111C34.4344 12.6893 34.2577 12.378 33.9813 12.2112L27.879 8.62725C27.5694 8.44546 27.1874 8.44615 26.8688 8.61162C22.7705 10.7403 17.7773 10.7392 13.6799 8.60824C13.3649 8.44442 12.9875 8.44167 12.6794 8.6181L6.55645 12.1242C6.28004 12.2911 6.10332 12.6024 6.10228 12.9242C6.06862 22.5781 11.3649 31.7117 19.7274 36.5221C20.0566 36.7114 20.4811 36.7114 20.8104 36.5221C29.1463 31.7268 34.4381 22.6345 34.4354 13.0111Z" stroke="#00AEA0" stroke-miterlimit="10"/>
<path d="M18.1925 15.9003C18.0815 16.1683 18.0815 16.508 18.0815 17.1875V18.5758C18.0815 18.6088 18.0815 18.6253 18.0712 18.6356C18.061 18.6458 18.0445 18.6458 18.0115 18.6458H16.6231C15.9437 18.6458 15.6039 18.6458 15.3359 18.7568C14.9786 18.9049 14.6947 19.1888 14.5467 19.5461C14.4356 19.8141 14.4356 20.1538 14.4356 20.8333C14.4356 21.5128 14.4356 21.8526 14.5467 22.1206C14.6947 22.4779 14.9786 22.7618 15.3359 22.9098C15.6039 23.0208 15.9437 23.0208 16.6231 23.0208H18.0115C18.0445 23.0208 18.061 23.0208 18.0712 23.0311C18.0815 23.0413 18.0815 23.0578 18.0815 23.0908V24.4792C18.0815 25.1587 18.0815 25.4984 18.1925 25.7664C18.3405 26.1237 18.6244 26.4076 18.9817 26.5557C19.2497 26.6667 19.5895 26.6667 20.269 26.6667C20.9485 26.6667 21.2882 26.6667 21.5562 26.5557C21.9136 26.4076 22.1975 26.1237 22.3455 25.7664C22.4565 25.4984 22.4565 25.1587 22.4565 24.4792V23.0908C22.4565 23.0578 22.4565 23.0413 22.4667 23.0311C22.477 23.0208 22.4935 23.0208 22.5265 23.0208H23.9148C24.5943 23.0208 24.9341 23.0208 25.2021 22.9098C25.5594 22.7618 25.8433 22.4779 25.9913 22.1206C26.1023 21.8526 26.1023 21.5128 26.1023 20.8333C26.1023 20.1538 26.1023 19.8141 25.9913 19.5461C25.8433 19.1888 25.5594 18.9049 25.2021 18.7568C24.9341 18.6458 24.5943 18.6458 23.9148 18.6458H22.5265C22.4935 18.6458 22.477 18.6458 22.4667 18.6356C22.4565 18.6253 22.4565 18.6088 22.4565 18.5758V17.1875C22.4565 16.508 22.4565 16.1683 22.3455 15.9003C22.1975 15.5429 21.9136 15.259 21.5562 15.111C21.2882 15 20.9485 15 20.269 15C19.5895 15 19.2497 15 18.9817 15.111C18.6244 15.259 18.3405 15.5429 18.1925 15.9003Z" stroke="#00AEA0"/>
</svg>
