<svg width="78" height="78" viewBox="0 0 78 78" fill="none" xmlns="http://www.w3.org/2000/svg">
<path d="M27.6673 50.462C24.4294 50.462 17.9536 53.6999 17.9536 61.7947" stroke="#00413C" stroke-width="3.23791" stroke-linecap="round"/>
<path d="M50.3327 50.462C53.5706 50.462 60.0464 53.6999 60.0464 61.7947" stroke="#00413C" stroke-width="3.23791" stroke-linecap="round"/>
<path d="M45.4758 50.462L39.5887 57.5266M37.381 60.1758L39.5887 57.5266M32.5242 50.462L39.5887 57.5266" stroke="#00413C" stroke-width="3.23791" stroke-linecap="round"/>
<path d="M27.6673 18.0829C22.8104 21.3208 17.9535 38.4817 30.9052 42.3672" stroke="#00413C" stroke-width="3.23791" stroke-linecap="round"/>
<path d="M50.3327 18.0829C55.1896 21.3208 60.0464 38.4817 47.0948 42.3672" stroke="#00413C" stroke-width="3.23791" stroke-linecap="round"/>
<path d="M29.6885 31.0345C29.4267 32.0605 29.2862 33.1473 29.2862 34.2725C29.2862 40.5313 33.6352 47.2241 38.9999 47.2241C44.3647 47.2241 48.7137 40.5313 48.7137 34.2725C48.7137 33.1473 48.5731 32.0605 48.3114 31.0345" stroke="#00413C" stroke-width="3.23791" stroke-linecap="round"/>
<path d="M42.2379 24.5587C40.8144 25.9822 36.8875 29.9091 28.2562 30.8364" stroke="#00413C" stroke-width="3.23791" stroke-linecap="round"/>
<path d="M40.6189 27.7966C42.2379 29.4156 43.8568 31.0345 48.7137 31.0345" stroke="#00413C" stroke-width="3.23791" stroke-linecap="round"/>
<path d="M51.4659 13.1456C51.7341 12.681 51.5757 12.0852 51.1014 11.8346C47.3764 9.86631 43.2227 8.83401 38.9999 8.83401C34.7771 8.83401 30.6235 9.86631 26.8985 11.8346C26.4241 12.0852 26.2657 12.681 26.534 13.1456L30.9965 20.875C31.2648 21.3396 31.8576 21.4957 32.3386 21.258C34.406 20.2363 36.6851 19.7019 38.9999 19.7019C41.3148 19.7019 43.5938 20.2363 45.6613 21.258C46.1423 21.4957 46.7351 21.3396 47.0033 20.875L51.4659 13.1456Z" stroke="#00413C" stroke-width="3.23791"/>
<path d="M26.8578 56.1284V60.9853M24.4294 58.5569H29.2863" stroke="#00413C" stroke-width="3.23791" stroke-linecap="round"/>
</svg>
