<svg width="41" height="41" viewBox="0 0 41 41" fill="none" xmlns="http://www.w3.org/2000/svg">
<path d="M11.9356 33.0642C11.9356 31.9596 12.8311 31.0642 13.9356 31.0642H26.6023C27.7069 31.0642 28.6023 31.9596 28.6023 33.0642V33.8975C28.6023 34.1737 28.3784 34.3975 28.1023 34.3975H12.4356C12.1595 34.3975 11.9356 34.1737 11.9356 33.8975V33.0642Z" stroke="#00AEA0"/>
<path d="M15.1837 25.231C15.1837 25.231 17.4555 26.9338 18.8316 27.2169C20.0579 27.4692 21.329 27.3943 22.5171 26.9996C23.7053 26.605 24.7686 25.9046 25.6002 24.9687C26.4319 24.0329 27.0025 22.8946 27.2548 21.6684C27.5072 20.4421 27.4322 19.171 27.0376 17.9829C26.8485 17.4137 26.5893 16.8732 26.2677 16.3731L26.1023 16.0643M11.6089 25.231C11.6089 25.231 12.8222 26.9914 13.6263 27.706C14.9384 28.872 16.5343 29.6721 18.2537 30.0259C19.973 30.3796 21.7552 30.2745 23.4211 29.7212C25.087 29.1679 26.5779 28.1858 27.7439 26.8737C28.9099 25.5616 29.71 23.9657 30.0638 22.2463C30.4175 20.527 30.3125 18.7448 29.7592 17.0789C29.4688 16.2047 29.0604 15.3788 28.5482 14.6226L28.4255 14.4897M26.1023 16.0643C27.1561 16.0643 28.0576 15.4123 28.4255 14.4897M26.1023 16.0643C25.2217 16.0643 24.4474 15.609 24.0021 14.921M28.4255 14.4897C28.5396 14.2035 28.6023 13.8912 28.6023 13.5643C28.6023 12.9203 28.3588 12.3331 27.9587 11.8899M28.7353 8.72776L28.6023 8.83122M28.7353 8.72776C29.0568 9.14743 29.6096 9.15558 29.9991 8.84169C30.5804 8.37326 30.6386 7.53789 30.1955 6.95951L29.7952 6.43691C29.3521 5.85854 28.5304 5.69727 27.9267 6.13656C27.5254 6.42865 27.3919 6.97422 27.7077 7.38647M28.7353 8.72776L28.2215 8.05711L27.7077 7.38647M27.7077 7.38647L27.5769 7.49265M27.5769 7.49265L28.6023 8.83122M27.5769 7.49265C26.9734 6.705 26.6717 6.31118 26.2604 6.18685C26.1224 6.14514 25.9785 6.12609 25.8344 6.13043C25.4049 6.14339 25.0111 6.44509 24.2234 7.0485L15.9016 13.4238C15.6778 13.5952 15.5659 13.6809 15.4855 13.7693C15.1109 14.1808 15.0314 14.7816 15.2858 15.2765C15.3405 15.3827 15.4262 15.4946 15.5976 15.7184M28.6023 8.83122C29.0011 9.35171 29.2004 9.61196 29.2669 9.88417C29.346 10.2084 29.3007 10.5505 29.1399 10.8429C29.0049 11.0884 28.7446 11.2878 28.2241 11.6865L27.9587 11.8899M15.5976 15.7184L17.6756 18.4309M15.5976 15.7184L13.8916 17.0265C13.4916 17.333 13.2916 17.4863 13.1788 17.6691C13.0042 17.9521 12.9586 18.2961 13.0536 18.6148C13.1149 18.8207 13.2682 19.0207 13.5747 19.4207C13.8812 19.8207 14.0344 20.0207 14.2173 20.1336C14.5003 20.3081 14.8443 20.3537 15.163 20.2587C15.3689 20.1974 15.5689 20.0441 15.9689 19.7376L17.6756 18.4309M17.6756 18.4309C18.032 18.8961 18.6981 18.9843 19.1633 18.6279L24.0021 14.921M24.0021 14.921C23.7492 14.5302 23.6023 14.0644 23.6023 13.5643C23.6023 12.1836 24.7216 11.0643 26.1023 11.0643C26.839 11.0643 27.5012 11.3829 27.9587 11.8899" stroke="#00AEA0"/>
<path d="M11.1023 25.231H17.769" stroke="#00AEA0" stroke-linecap="round"/>
</svg>
