<svg width="78" height="78" viewBox="0 0 78 78" fill="none" xmlns="http://www.w3.org/2000/svg">
<path d="M48.8114 65.4975H29.1886C15.0848 65.4975 15.0848 58.0163 15.0848 51.3936V48.9408C15.0848 43.471 15.0848 37.2898 26.7358 37.2898C29.6547 37.2898 30.7339 38.0011 32.2547 39.1294C32.3283 39.203 32.4264 39.2521 32.5 39.3502L35.0019 41.9993C37.1113 44.2313 40.9377 44.2313 43.0472 41.9993L45.5491 39.3502C45.6227 39.2766 45.6963 39.203 45.7944 39.1294C47.3151 37.9766 48.3944 37.2898 51.3133 37.2898C62.9643 37.2898 62.9643 43.471 62.9643 48.9408V51.3936C62.9152 60.7635 58.1812 65.4975 48.8114 65.4975ZM26.7358 40.9691C18.764 40.9691 18.764 43.471 18.764 48.9408V51.3936C18.764 58.1144 18.764 61.8182 29.1886 61.8182H48.8114C56.1208 61.8182 59.236 58.7031 59.236 51.3936V48.9408C59.236 43.471 59.236 40.9691 51.2642 40.9691C49.4982 40.9691 49.1302 41.1898 48.0755 41.9747L45.6963 44.5012C43.9302 46.3653 41.551 47.3955 39 47.3955C36.449 47.3955 34.0698 46.3653 32.3037 44.5012L29.9245 41.9747C28.8698 41.1898 28.5018 40.9691 26.7358 40.9691Z" fill="#00413C"/>
<path d="M56.1699 40.969C55.1642 40.969 54.3303 40.1351 54.3303 39.1294V24.4124C54.3303 18.9425 54.3303 16.4406 46.3585 16.4406H31.6415C23.6697 16.4406 23.6697 18.9425 23.6697 24.4124V39.1294C23.6697 40.1351 22.8358 40.969 21.8301 40.969C20.8244 40.969 19.9905 40.1351 19.9905 39.1294V24.4124C19.9905 18.9425 19.9905 12.7614 31.6415 12.7614H46.3585C58.0095 12.7614 58.0095 18.9425 58.0095 24.4124V39.1294C58.0095 40.1351 57.1756 40.969 56.1699 40.969Z" fill="#00413C"/>
<path d="M43.6114 34.1746H35.4434C34.4377 34.1746 33.6038 33.3407 33.6038 32.335C33.6038 31.3293 34.4377 30.4954 35.4434 30.4954H43.6114C44.617 30.4954 45.451 31.3293 45.451 32.335C45.451 33.3407 44.6415 34.1746 43.6114 34.1746Z" fill="#00413C"/>
<path d="M45.6717 26.8162H33.4075C32.4019 26.8162 31.5679 25.9823 31.5679 24.9766C31.5679 23.9709 32.4019 23.137 33.4075 23.137H45.6717C46.6774 23.137 47.5114 23.9709 47.5114 24.9766C47.5114 25.9823 46.7019 26.8162 45.6717 26.8162Z" fill="#00413C"/>
</svg>
