<svg width="41" height="41" viewBox="0 0 41 41" fill="none" xmlns="http://www.w3.org/2000/svg">
<path d="M14.4356 26.0642C12.769 26.0642 9.43564 27.7309 9.43564 31.8975" stroke="#00AEA0" stroke-linecap="round"/>
<path d="M26.1023 26.0642C27.769 26.0642 31.1023 27.7309 31.1023 31.8975" stroke="#00AEA0" stroke-linecap="round"/>
<path d="M23.6023 26.0642L20.572 29.7006M19.4356 31.0642L20.572 29.7006M16.9356 26.0642L20.572 29.7006" stroke="#00AEA0" stroke-linecap="round"/>
<path d="M14.4356 9.39771C11.9356 11.0644 9.43562 19.8977 16.1023 21.8977" stroke="#00AEA0" stroke-linecap="round"/>
<path d="M26.1023 9.39771C28.6023 11.0644 31.1023 19.8977 24.4357 21.8977" stroke="#00AEA0" stroke-linecap="round"/>
<path d="M15.476 16.0642C15.3413 16.5923 15.269 17.1517 15.269 17.7309C15.269 20.9525 17.5076 24.3975 20.269 24.3975C23.0304 24.3975 25.269 20.9525 25.269 17.7309C25.269 17.1517 25.1966 16.5923 25.0619 16.0642" stroke="#00AEA0" stroke-linecap="round"/>
<path d="M21.9357 12.731C21.2029 13.4637 19.1816 15.485 14.7388 15.9623" stroke="#00AEA0" stroke-linecap="round"/>
<path d="M21.1023 14.3977C21.9357 15.231 22.769 16.0644 25.269 16.0644" stroke="#00AEA0" stroke-linecap="round"/>
<path d="M26.7857 6.68311C26.8685 6.53962 26.8195 6.35582 26.6742 6.27622C24.712 5.20149 22.5094 4.63697 20.269 4.63697C18.0286 4.63697 15.826 5.20149 13.8638 6.27622C13.7185 6.35582 13.6695 6.53962 13.7523 6.68311L16.2494 11.0081C16.3322 11.1516 16.5154 11.2002 16.662 11.123C17.7727 10.5379 19.0106 10.231 20.269 10.231C21.5274 10.231 22.7652 10.5379 23.876 11.123C24.0226 11.2002 24.2058 11.1516 24.2886 11.0081L26.7857 6.68311Z" stroke="#00AEA0"/>
<path d="M14.019 28.981V31.481M12.769 30.231H15.269" stroke="#00AEA0" stroke-linecap="round"/>
</svg>
