<svg width="25" height="25" viewBox="0 0 25 25" fill="none" xmlns="http://www.w3.org/2000/svg">
<path d="M9 8.23706H8.5C6.61438 8.23706 5.67157 8.23706 5.08579 8.82285C4.5 9.40863 4.5 10.3514 4.5 12.2371V15.7371C4.5 17.6227 4.5 18.5655 5.08579 19.1513C5.67157 19.7371 6.61438 19.7371 8.5 19.7371H16.5C18.3856 19.7371 19.3284 19.7371 19.9142 19.1513C20.5 18.5655 20.5 17.6227 20.5 15.7371V12.2371C20.5 10.3514 20.5 9.40863 19.9142 8.82285C19.3284 8.23706 18.3856 8.23706 16.5 8.23706H16M9 8.23706V7.73706C9 6.32285 9 5.61574 9.43934 5.1764C9.87868 4.73706 10.5858 4.73706 12 4.73706H13C14.4142 4.73706 15.1213 4.73706 15.5607 5.1764C16 5.61574 16 6.32285 16 7.73706V8.23706M9 8.23706H16" stroke="#8E9AA0"/>
<path d="M11.4321 11.2C11.375 11.3379 11.375 11.5126 11.375 11.8621V12.5761C11.375 12.593 11.375 12.6015 11.3697 12.6068C11.3645 12.6121 11.356 12.6121 11.339 12.6121H10.625C10.2755 12.6121 10.1008 12.6121 9.96299 12.6692C9.77922 12.7453 9.63321 12.8913 9.55709 13.075C9.5 13.2129 9.5 13.3876 9.5 13.7371C9.5 14.0865 9.5 14.2612 9.55709 14.3991C9.63321 14.5828 9.77922 14.7288 9.96299 14.805C10.1008 14.8621 10.2755 14.8621 10.625 14.8621H11.339C11.356 14.8621 11.3645 14.8621 11.3697 14.8673C11.375 14.8726 11.375 14.8811 11.375 14.8981V15.6121C11.375 15.9615 11.375 16.1362 11.4321 16.2741C11.5082 16.4578 11.6542 16.6039 11.838 16.68C11.9758 16.7371 12.1505 16.7371 12.5 16.7371C12.8495 16.7371 13.0242 16.7371 13.162 16.68C13.3458 16.6039 13.4918 16.4578 13.5679 16.2741C13.625 16.1362 13.625 15.9615 13.625 15.6121V14.8981C13.625 14.8811 13.625 14.8726 13.6303 14.8673C13.6355 14.8621 13.644 14.8621 13.661 14.8621H14.375C14.7245 14.8621 14.8992 14.8621 15.037 14.805C15.2208 14.7288 15.3668 14.5828 15.4429 14.3991C15.5 14.2612 15.5 14.0865 15.5 13.7371C15.5 13.3876 15.5 13.2129 15.4429 13.075C15.3668 12.8913 15.2208 12.7453 15.037 12.6692C14.8992 12.6121 14.7245 12.6121 14.375 12.6121H13.661C13.644 12.6121 13.6355 12.6121 13.6303 12.6068C13.625 12.6015 13.625 12.593 13.625 12.5761V11.8621C13.625 11.5126 13.625 11.3379 13.5679 11.2C13.4918 11.0163 13.3458 10.8703 13.162 10.7942C13.0242 10.7371 12.8495 10.7371 12.5 10.7371C12.1505 10.7371 11.9758 10.7371 11.838 10.7942C11.6542 10.8703 11.5082 11.0163 11.4321 11.2Z" stroke="#8E9AA0"/>
</svg>
