<svg width="41" height="41" viewBox="0 0 41 41" fill="none" xmlns="http://www.w3.org/2000/svg">
<path d="M14.7775 34.3975C14.5521 29.9837 16.677 27.1927 20.2699 25.815C22.6406 24.906 25.7946 23.4827 25.7783 20.2397C25.7679 18.1847 24.4695 16.8605 22.9202 15.9273M14.7775 6.06421C14.6075 9.25959 15.6731 11.57 17.615 13.1477" stroke="#00AEA0" stroke-miterlimit="10" stroke-linecap="round"/>
<path d="M25.7606 34.3975C25.924 31.1988 24.8529 28.8523 22.8832 27.2784M25.7606 6.06421C25.997 10.5077 23.844 13.2398 20.2682 14.6702C17.9208 15.6092 14.776 17.0369 14.7598 20.2397C14.7493 22.3218 16.0457 23.6538 17.6025 24.5812" stroke="#00AEA0" stroke-miterlimit="10" stroke-linecap="round"/>
<path d="M16.9357 32.731H23.6023" stroke="#00AEA0" stroke-linecap="round"/>
<path d="M18.6024 10.231H21.9357" stroke="#00AEA0" stroke-linecap="round"/>
<path d="M16.9357 7.73096H23.6023" stroke="#00AEA0" stroke-linecap="round"/>
<path d="M17.1208 20.3699H23.4171M18.6949 18.0088H21.843M18.6949 22.731H21.843" stroke="#00AEA0" stroke-linecap="round"/>
<path d="M18.6024 30.231H21.9357" stroke="#00AEA0" stroke-linecap="round"/>
</svg>
