<svg width="39" height="38" viewBox="0 0 39 38" fill="none" xmlns="http://www.w3.org/2000/svg">
<g opacity="0.38">
<rect x="0.0368652" width="38" height="38" rx="19" fill="#B3F4EF"/>
<path d="M14.147 17.9126C14.5211 17.9126 14.817 17.6081 14.817 17.2426C14.817 16.9207 15.1389 16.2507 15.6784 15.6678C16.2091 15.1022 16.7921 14.7716 17.2793 14.7716C17.6534 14.7716 17.9493 14.467 17.9493 14.1016C17.9493 13.7362 17.6447 13.4316 17.2793 13.4316C16.4092 13.4316 15.4956 13.9015 14.6952 14.7455C13.9469 15.5373 13.4683 16.5204 13.4683 17.2339C13.4683 17.6081 13.7729 17.9126 14.147 17.9126Z" fill="#00D9C8"/>
<path d="M11.006 17.9126C11.3801 17.9126 11.6759 17.608 11.6759 17.2426C11.6759 14.1538 14.1905 11.648 17.2706 11.648C17.6447 11.648 17.9406 11.3434 17.9406 10.978C17.9406 10.6125 17.6447 10.2993 17.2793 10.2993C13.4509 10.2993 10.336 13.4142 10.336 17.2426C10.336 17.608 10.6405 17.9126 11.006 17.9126Z" fill="#00D9C8"/>
<path d="M19.8634 21.5669L21.4731 23.1766C21.8124 23.5159 22.3519 23.5159 22.6999 23.1853C22.7956 23.0896 22.8913 23.0026 22.9871 22.9069C23.8832 22.002 24.6924 21.0536 25.4146 20.0617C26.1281 19.0698 26.7023 18.0779 27.12 17.0947C27.5289 16.1028 27.7377 15.1544 27.7377 14.2495C27.7377 13.6579 27.6333 13.0923 27.4245 12.5702C27.2157 12.0395 26.885 11.5522 26.4239 11.1172C25.867 10.569 25.258 10.2993 24.6141 10.2993C24.3705 10.2993 24.1269 10.3515 23.9094 10.4559C23.6831 10.5603 23.483 10.717 23.3264 10.9432L21.3078 13.7884C21.1512 14.0059 21.0381 14.206 20.9598 14.3974C20.8814 14.5801 20.8379 14.7629 20.8379 14.9282C20.8379 15.137 20.8989 15.3458 21.0207 15.5459C21.1338 15.7461 21.2991 15.9549 21.5079 16.1637L22.1692 16.8511C22.2649 16.9468 22.3084 17.0599 22.3084 17.1991C22.3084 17.2687 22.2997 17.3296 22.2823 17.3992C22.2562 17.4688 22.2301 17.521 22.2127 17.5732C22.0561 17.8604 21.7863 18.2345 21.4035 18.687C21.012 19.1394 20.5943 19.6005 20.1419 20.0617C20.0549 20.1487 19.9592 20.2357 19.8721 20.3227C19.5241 20.662 19.5154 21.2189 19.8634 21.5669Z" fill="#00D9C8"/>
<path d="M10.3621 24.5076C10.3621 24.7512 10.4056 25.0035 10.4926 25.2471C10.5187 25.3168 10.5448 25.3864 10.5796 25.456C10.7275 25.7692 10.9189 26.065 11.1713 26.3435C11.5976 26.8133 12.0675 27.1526 12.5982 27.3702C12.6069 27.3702 12.6156 27.3789 12.6243 27.3789C13.1377 27.5877 13.6945 27.7008 14.2949 27.7008C15.1824 27.7008 16.1308 27.492 17.1314 27.0656C18.132 26.6393 19.1326 26.065 20.1245 25.3429C20.4638 25.0905 20.8031 24.8382 21.1251 24.5685L18.2799 21.7233C18.0363 21.906 17.8187 22.0452 17.636 22.1409C17.5925 22.1583 17.5403 22.1844 17.4794 22.2105C17.4098 22.2366 17.3402 22.2453 17.2619 22.2453C17.114 22.2453 17.0009 22.1931 16.9051 22.0974L16.2439 21.4449C16.0264 21.2273 15.8175 21.062 15.6174 20.9576C15.4173 20.8358 15.2172 20.7749 14.9997 20.7749C14.8343 20.7749 14.6603 20.8097 14.4689 20.888C14.2775 20.9663 14.0774 21.0794 13.8598 21.2273L10.9799 23.2721C10.7536 23.4287 10.597 23.6114 10.5013 23.8289C10.4143 24.0464 10.3621 24.2639 10.3621 24.5076Z" fill="#00D9C8"/>
</g>
</svg>
