<svg width="39" height="38" viewBox="0 0 39 38" fill="none" xmlns="http://www.w3.org/2000/svg">
<g opacity="0.38">
<rect x="0.28418" width="38" height="38" rx="19" fill="#B3F4EF"/>
<path d="M23.555 11.7397H15.0133C12.4508 11.7397 10.7424 13.021 10.7424 16.0106V21.9898C10.7424 24.9794 12.4508 26.2607 15.0133 26.2607H23.555C26.1175 26.2607 27.8259 24.9794 27.8259 21.9898V16.0106C27.8259 13.021 26.1175 11.7397 23.555 11.7397ZM23.9565 16.9417L21.2829 19.0771C20.7192 19.5298 20.0017 19.7519 19.2841 19.7519C18.5666 19.7519 17.8406 19.5298 17.2854 19.0771L14.6118 16.9417C14.3385 16.7196 14.2958 16.3096 14.5093 16.0362C14.7314 15.7629 15.1329 15.7116 15.4062 15.9337L18.0798 18.0692C18.7289 18.5902 19.8308 18.5902 20.48 18.0692L23.1535 15.9337C23.4269 15.7116 23.8369 15.7544 24.0504 16.0362C24.2725 16.3096 24.2298 16.7196 23.9565 16.9417Z" fill="#00D9C8"/>
</g>
</svg>
