<svg width="21" height="21" viewBox="0 0 21 21" fill="none" xmlns="http://www.w3.org/2000/svg">
<path d="M16.9162 12.9995L16.0782 11.6083C15.9022 11.2983 15.743 10.7116 15.743 10.368V8.24775C15.743 6.27833 14.5865 4.57708 12.9187 3.78093C12.4829 3.00992 11.6784 2.53223 10.7565 2.53223C9.84307 2.53223 9.02178 3.02668 8.58599 3.80607C6.95178 4.61898 5.82041 6.30347 5.82041 8.24775V10.368C5.82041 10.7116 5.66118 11.2983 5.48519 11.6L4.63876 12.9995C4.30353 13.561 4.22811 14.1812 4.43762 14.751C4.63875 15.3125 5.11645 15.7483 5.73661 15.9578C7.36243 16.511 9.07206 16.7791 10.7817 16.7791C12.4913 16.7791 14.2009 16.511 15.8268 15.9662C16.4134 15.7735 16.866 15.3293 17.0839 14.751C17.3017 14.1728 17.2431 13.5359 16.9162 12.9995Z" fill="#00D9C8"/>
<path d="M13.1367 17.6256C12.7848 18.5977 11.8545 19.2933 10.765 19.2933C10.103 19.2933 9.4493 19.0251 8.98837 18.5474C8.72019 18.296 8.51906 17.9608 8.40173 17.6172C8.51068 17.6339 8.61963 17.6423 8.73695 17.6591C8.92971 17.6842 9.13084 17.7094 9.33197 17.7261C9.80966 17.768 10.2957 17.7932 10.7818 17.7932C11.2595 17.7932 11.7372 17.768 12.2065 17.7261C12.3825 17.7094 12.5585 17.701 12.7261 17.6759C12.8602 17.6591 12.9943 17.6423 13.1367 17.6256Z" fill="#00D9C8"/>
</svg>
