<svg width="25" height="25" viewBox="0 0 25 25" fill="none" xmlns="http://www.w3.org/2000/svg">
<path d="M9 15.7371C8 15.7371 6 16.7371 6 19.2371" stroke="#8E9AA0" stroke-linecap="round"/>
<path d="M16 15.7371C17 15.7371 19 16.7371 19 19.2371" stroke="#8E9AA0" stroke-linecap="round"/>
<path d="M14.5 15.7371L12.6818 17.9189M12 18.7371L12.6818 17.9189M10.5 15.7371L12.6818 17.9189" stroke="#8E9AA0" stroke-linecap="round"/>
<path d="M8.9998 5.73706C7.49981 6.73706 5.9998 12.0371 9.9998 13.2371" stroke="#8E9AA0" stroke-linecap="round"/>
<path d="M16.0002 5.73706C17.5002 6.73706 19.0002 12.0371 15.0002 13.2371" stroke="#8E9AA0" stroke-linecap="round"/>
<path d="M9.62423 9.73706C9.5434 10.0539 9.5 10.3896 9.5 10.7371C9.5 12.6701 10.8431 14.7371 12.5 14.7371C14.1569 14.7371 15.5 12.6701 15.5 10.7371C15.5 10.3896 15.4566 10.0539 15.3758 9.73706" stroke="#8E9AA0" stroke-linecap="round"/>
<path d="M13.4998 7.73706C13.0601 8.1767 11.8473 9.38947 9.18164 9.67588" stroke="#8E9AA0" stroke-linecap="round"/>
<path d="M13 8.73706C13.5 9.23706 14 9.73706 15.5 9.73706" stroke="#8E9AA0" stroke-linecap="round"/>
<path d="M16.35 4.21223C16.4328 4.06874 16.3839 3.88472 16.2374 3.80732C15.087 3.19944 13.8042 2.88062 12.5 2.88062C11.1958 2.88062 9.913 3.19944 8.76257 3.80732C8.61608 3.88472 8.56716 4.06874 8.65 4.21223L10.0282 6.59937C10.1111 6.74286 10.2942 6.79108 10.4427 6.71767C11.0812 6.40211 11.7851 6.23706 12.5 6.23706C13.2149 6.23706 13.9188 6.40211 14.5573 6.71767C14.7058 6.79108 14.8889 6.74286 14.9718 6.59937L16.35 4.21223Z" stroke="#8E9AA0"/>
<path d="M8.75 17.4871V18.9871M8 18.2371H9.5" stroke="#8E9AA0" stroke-linecap="round"/>
</svg>
