<svg width="25" height="25" viewBox="0 0 25 25" fill="none" xmlns="http://www.w3.org/2000/svg">
<g id="asicon/outline/message-text">
<g id="vuesax/outline/message-text">
<g id="message-text">
<path id="Vector" d="M12.3371 22.9833C11.6471 22.9833 10.9971 22.6333 10.5371 22.0233L9.0371 20.0233C9.0071 19.9833 8.8871 19.9333 8.8371 19.9233H8.3371C4.1671 19.9233 1.5871 18.7933 1.5871 13.1733V8.17334C1.5871 3.75334 3.9171 1.42334 8.3371 1.42334H16.3371C20.7571 1.42334 23.0871 3.75334 23.0871 8.17334V13.1733C23.0871 17.5933 20.7571 19.9233 16.3371 19.9233H15.8371C15.7571 19.9233 15.6871 19.9633 15.6371 20.0233L14.1371 22.0233C13.6771 22.6333 13.0271 22.9833 12.3371 22.9833ZM8.3371 2.92334C4.7571 2.92334 3.0871 4.59334 3.0871 8.17334V13.1733C3.0871 17.6933 4.6371 18.4233 8.3371 18.4233H8.8371C9.3471 18.4233 9.9271 18.7133 10.2371 19.1233L11.7371 21.1233C12.0871 21.5833 12.5871 21.5833 12.9371 21.1233L14.4371 19.1233C14.7671 18.6833 15.2871 18.4233 15.8371 18.4233H16.3371C19.9171 18.4233 21.5871 16.7533 21.5871 13.1733V8.17334C21.5871 4.59334 19.9171 2.92334 16.3371 2.92334H8.3371Z" fill="#00D9C8"/>
<path id="Vector_2" d="M17.3371 8.92334H7.3371C6.9271 8.92334 6.5871 8.58334 6.5871 8.17334C6.5871 7.76334 6.9271 7.42334 7.3371 7.42334H17.3371C17.7471 7.42334 18.0871 7.76334 18.0871 8.17334C18.0871 8.58334 17.7471 8.92334 17.3371 8.92334Z" fill="#00D9C8"/>
<path id="Vector_3" d="M13.3371 13.9233H7.3371C6.9271 13.9233 6.5871 13.5833 6.5871 13.1733C6.5871 12.7633 6.9271 12.4233 7.3371 12.4233H13.3371C13.7471 12.4233 14.0871 12.7633 14.0871 13.1733C14.0871 13.5833 13.7471 13.9233 13.3371 13.9233Z" fill="#00D9C8"/>
</g>
</g>
</g>
</svg>
