<svg width="21" height="21" viewBox="0 0 21 21" fill="none" xmlns="http://www.w3.org/2000/svg">
<path d="M8.03491 10.2821C8.01007 10.2821 7.9935 10.2821 7.96866 10.2821C7.92725 10.2738 7.86928 10.2738 7.81959 10.2821C5.41801 10.2075 3.6044 8.3194 3.6044 5.99234C3.6044 3.62388 5.53395 1.69434 7.90241 1.69434C10.2709 1.69434 12.2004 3.62388 12.2004 5.99234C12.1921 8.3194 10.3702 10.2075 8.05975 10.2821C8.05147 10.2821 8.04319 10.2821 8.03491 10.2821ZM7.90241 2.93653C6.2213 2.93653 4.8466 4.31123 4.8466 5.99234C4.8466 7.64861 6.13849 8.9819 7.78647 9.03987C7.83616 9.03159 7.94382 9.03159 8.05147 9.03987C9.67461 8.96534 10.9499 7.63205 10.9582 5.99234C10.9582 4.31123 9.58352 2.93653 7.90241 2.93653Z" fill="#8E9AA0"/>
<path d="M14.1465 10.3897C14.1217 10.3897 14.0968 10.3897 14.072 10.3814C13.7325 10.4146 13.3846 10.1744 13.3515 9.83486C13.3184 9.49533 13.5254 9.18892 13.865 9.14751C13.9643 9.13923 14.072 9.13923 14.1631 9.13923C15.3722 9.07298 16.3162 8.07922 16.3162 6.86187C16.3162 5.60311 15.2976 4.5845 14.0389 4.5845C13.6993 4.59278 13.4178 4.31122 13.4178 3.97169C13.4178 3.63215 13.6993 3.35059 14.0389 3.35059C15.9767 3.35059 17.5584 4.93232 17.5584 6.87015C17.5584 8.77485 16.0678 10.3152 14.1714 10.3897C14.1631 10.3897 14.1548 10.3897 14.1465 10.3897Z" fill="#8E9AA0"/>
<path d="M8.04316 19.3335C6.42002 19.3335 4.7886 18.9194 3.55469 18.0913C2.40358 17.3294 1.7742 16.2859 1.7742 15.1514C1.7742 14.0169 2.40358 12.9651 3.55469 12.195C6.03908 10.547 10.0638 10.547 12.5316 12.195C13.6745 12.9569 14.3121 14.0003 14.3121 15.1348C14.3121 16.2694 13.6827 17.3211 12.5316 18.0913C11.2894 18.9194 9.6663 19.3335 8.04316 19.3335ZM4.24204 13.2384C3.44703 13.7684 3.0164 14.4475 3.0164 15.1597C3.0164 15.8636 3.45531 16.5427 4.24204 17.0644C6.30409 18.4474 9.78224 18.4474 11.8443 17.0644C12.6393 16.5344 13.0699 15.8553 13.0699 15.1431C13.0699 14.4392 12.631 13.7601 11.8443 13.2384C9.78224 11.8637 6.30409 11.8637 4.24204 13.2384Z" fill="#8E9AA0"/>
<path d="M15.6372 17.843C15.3473 17.843 15.0906 17.6442 15.0326 17.3461C14.9664 17.0066 15.1817 16.6836 15.5129 16.6091C16.0347 16.5014 16.515 16.2944 16.8876 16.0045C17.3597 15.6484 17.6164 15.2012 17.6164 14.7292C17.6164 14.2572 17.3597 13.81 16.8959 13.4621C16.5315 13.1806 16.0761 12.9818 15.5378 12.8576C15.2065 12.7831 14.9912 12.4518 15.0657 12.1123C15.1403 11.781 15.4715 11.5657 15.8111 11.6403C16.5233 11.7976 17.1444 12.0792 17.6495 12.4684C18.4197 13.0481 18.8586 13.8679 18.8586 14.7292C18.8586 15.5904 18.4114 16.4103 17.6412 16.9983C17.1278 17.3958 16.4819 17.6856 15.7697 17.8264C15.72 17.843 15.6786 17.843 15.6372 17.843Z" fill="#8E9AA0"/>
</svg>
