<svg width="25" height="25" viewBox="0 0 25 25" fill="none" xmlns="http://www.w3.org/2000/svg">
<path d="M6.5 5.73706C6.5 4.79425 6.5 4.32285 6.79289 4.02995C7.08579 3.73706 7.55719 3.73706 8.5 3.73706H16.5C17.4428 3.73706 17.9142 3.73706 18.2071 4.02995C18.5 4.32285 18.5 4.79425 18.5 5.73706V18.7371C18.5 19.6799 18.5 20.1513 18.2071 20.4442C17.9142 20.7371 17.4428 20.7371 16.5 20.7371H8.5C7.55719 20.7371 7.08579 20.7371 6.79289 20.4442C6.5 20.1513 6.5 19.6799 6.5 18.7371V5.73706Z" stroke="#8E9AA0"/>
<circle cx="9.5" cy="7.23706" r="1" stroke="#8E9AA0"/>
<circle cx="15.5" cy="7.23706" r="1" stroke="#8E9AA0"/>
<circle cx="9.5" cy="12.2371" r="1" stroke="#8E9AA0"/>
<circle cx="15.5" cy="12.2371" r="1" stroke="#8E9AA0"/>
<circle cx="9.5" cy="17.2371" r="1" stroke="#8E9AA0"/>
<circle cx="15.5" cy="17.2371" r="1" stroke="#8E9AA0"/>
<path d="M12.5 6.23706V18.2371" stroke="#8E9AA0" stroke-linecap="round"/>
</svg>
