<svg width="78" height="78" viewBox="0 0 78 78" fill="none" xmlns="http://www.w3.org/2000/svg">
<path d="M30.1321 66.1428H13.3713C12.341 66.1428 11.4867 65.2884 11.4867 64.2581V49.1809C11.4867 45.3613 14.5775 42.2705 18.3971 42.2705H30.1321C31.1624 42.2705 32.0168 43.1249 32.0168 44.1552V64.2581C32.0168 65.2884 31.1624 66.1428 30.1321 66.1428ZM15.256 62.3735H28.2475V46.0398H18.3971C16.6632 46.0398 15.256 47.447 15.256 49.1809V62.3735Z" fill="#00413C"/>
<path d="M46.8682 66.1427H30.1074C29.0771 66.1427 28.2227 65.2883 28.2227 64.2581V39.1294C28.2227 35.3098 31.3136 32.219 35.1331 32.219H41.8425C45.6621 32.219 48.7529 35.3098 48.7529 39.1294V64.2581C48.7529 65.2883 47.9236 66.1427 46.8682 66.1427ZM32.0172 62.3734H45.0087V39.1294C45.0087 37.3955 43.6015 35.9883 41.8676 35.9883H35.1583C33.4244 35.9883 32.0172 37.3955 32.0172 39.1294V62.3734Z" fill="#00413C"/>
<path d="M63.6289 66.1427H46.8681C45.8378 66.1427 44.9834 65.2884 44.9834 64.2581V51.6937C44.9834 50.6635 45.8378 49.8091 46.8681 49.8091H58.6031C62.4227 49.8091 65.5135 52.8999 65.5135 56.7195V64.2581C65.5135 65.2884 64.6592 66.1427 63.6289 66.1427ZM48.7527 62.3734H61.7442V56.7195C61.7442 54.9856 60.337 53.5784 58.6031 53.5784H48.7527V62.3734Z" fill="#00413C"/>
<path d="M42.7716 29.9574C42.1685 29.9574 41.4147 29.7815 40.5603 29.2789L38.4997 28.0476L36.4643 29.2538C34.4038 30.4851 33.0468 29.7564 32.5442 29.4046C32.0417 29.0528 30.9611 27.9471 31.4888 25.6353L31.9663 23.5496L30.2575 21.8408C29.2021 20.7854 28.8252 19.529 29.2021 18.3731C29.579 17.2171 30.6093 16.413 32.0668 16.1617L34.253 15.7848L35.4843 13.3222C36.8412 10.6335 40.1331 10.6335 41.4649 13.3222L42.6962 15.7848L44.8824 16.1617C46.3399 16.413 47.3953 17.2171 47.7471 18.3731C48.124 19.529 47.722 20.7854 46.6917 21.8408L44.9829 23.5496L45.4604 25.6353C45.9881 27.9723 44.9075 29.0528 44.405 29.4297C44.1788 29.6308 43.6009 29.9574 42.7716 29.9574ZM38.4997 24.2532C39.1028 24.2532 39.7059 24.404 40.2085 24.7055L41.6157 25.5347L41.3141 24.1778C41.0629 23.1224 41.4398 21.8408 42.2188 21.0618L43.5003 19.7803L41.9172 19.5039C40.9121 19.328 39.9321 18.5992 39.4798 17.6946L38.4997 15.81L37.5448 17.6946C37.0925 18.5992 36.1125 19.328 35.1074 19.5039L33.5243 19.7552L34.8058 21.0367C35.5848 21.8157 35.9366 23.0973 35.7104 24.1527L35.4089 25.5096L36.8161 24.6804C37.2936 24.3788 37.8966 24.2532 38.4997 24.2532Z" fill="#00413C"/>
</svg>
