<svg width="19" height="20" viewBox="0 0 19 20" fill="none" xmlns="http://www.w3.org/2000/svg">
<path d="M9.54518 18.3277C4.98306 18.3277 1.2749 14.6195 1.2749 10.0574C1.2749 5.49527 4.98306 1.78711 9.54518 1.78711C14.1073 1.78711 17.8155 5.49527 17.8155 10.0574C17.8155 14.6195 14.1073 18.3277 9.54518 18.3277ZM9.54518 2.9411C5.6216 2.9411 2.42889 6.13381 2.42889 10.0574C2.42889 13.981 5.6216 17.1737 9.54518 17.1737C13.4687 17.1737 16.6615 13.981 16.6615 10.0574C16.6615 6.13381 13.4687 2.9411 9.54518 2.9411Z" fill="white"/>
<path d="M9.54526 11.4037C9.22983 11.4037 8.96826 11.1421 8.96826 10.8267V6.98007C8.96826 6.66465 9.22983 6.40308 9.54526 6.40308C9.86068 6.40308 10.1223 6.66465 10.1223 6.98007V10.8267C10.1223 11.1421 9.86068 11.4037 9.54526 11.4037Z" fill="white"/>
<path d="M9.54521 13.9039C9.44519 13.9039 9.34518 13.8809 9.25286 13.8424C9.16054 13.8039 9.07592 13.7501 8.99898 13.6808C8.92974 13.6039 8.87589 13.527 8.83743 13.427C8.79896 13.3346 8.77588 13.2346 8.77588 13.1346C8.77588 13.0346 8.79896 12.9346 8.83743 12.8423C8.87589 12.75 8.92974 12.6653 8.99898 12.5884C9.07592 12.5192 9.16054 12.4653 9.25286 12.4268C9.4375 12.3499 9.65291 12.3499 9.83755 12.4268C9.92987 12.4653 10.0145 12.5192 10.0914 12.5884C10.1607 12.6653 10.2145 12.75 10.253 12.8423C10.2915 12.9346 10.3145 13.0346 10.3145 13.1346C10.3145 13.2346 10.2915 13.3346 10.253 13.427C10.2145 13.527 10.1607 13.6039 10.0914 13.6808C10.0145 13.7501 9.92987 13.8039 9.83755 13.8424C9.74523 13.8809 9.64522 13.9039 9.54521 13.9039Z" fill="white"/>
</svg>
