<svg width="25" height="25" viewBox="0 0 25 25" fill="none" xmlns="http://www.w3.org/2000/svg">
<g id="asicon/outline/message-favorite">
<g id="vuesax/outline/message-favorite">
<g id="message-favorite">
<path id="Vector" d="M12.5928 22.9833C11.9028 22.9833 11.2528 22.6333 10.7928 22.0233L9.29277 20.0233C9.26277 19.9833 9.14277 19.9233 9.08277 19.9233H8.59277C4.42277 19.9233 1.84277 18.7933 1.84277 13.1733V8.17334C1.84277 3.75334 4.17277 1.42334 8.59277 1.42334H12.5928C13.0028 1.42334 13.3428 1.76334 13.3428 2.17334C13.3428 2.58334 13.0028 2.92334 12.5928 2.92334H8.59277C5.01277 2.92334 3.34277 4.59334 3.34277 8.17334V13.1733C3.34277 17.6933 4.89277 18.4233 8.59277 18.4233H9.09277C9.60277 18.4233 10.1828 18.7133 10.4928 19.1233L11.9928 21.1233C12.3428 21.5833 12.8428 21.5833 13.1928 21.1233L14.6928 19.1233C15.0228 18.6833 15.5428 18.4233 16.0928 18.4233H16.5928C20.1728 18.4233 21.8428 16.7533 21.8428 13.1733V8.17334C21.8428 7.76334 22.1828 7.42334 22.5928 7.42334C23.0028 7.42334 23.3428 7.76334 23.3428 8.17334V13.1733C23.3428 17.5933 21.0128 19.9233 16.5928 19.9233H16.0928C16.0128 19.9233 15.9428 19.9633 15.8928 20.0233L14.3928 22.0233C13.9328 22.6333 13.2828 22.9833 12.5928 22.9833Z" fill="#00D9C8"/>
<path id="Vector_2" d="M12.5928 12.1733C12.0328 12.1733 11.5928 11.7233 11.5928 11.1733C11.5928 10.6233 12.0428 10.1733 12.5928 10.1733C13.1428 10.1733 13.5928 10.6233 13.5928 11.1733C13.5928 11.7233 13.1528 12.1733 12.5928 12.1733Z" fill="#00D9C8"/>
<path id="Vector_3" d="M16.5928 12.1733C16.0328 12.1733 15.5928 11.7233 15.5928 11.1733C15.5928 10.6233 16.0428 10.1733 16.5928 10.1733C17.1428 10.1733 17.5928 10.6233 17.5928 11.1733C17.5928 11.7233 17.1528 12.1733 16.5928 12.1733Z" fill="#00D9C8"/>
<path id="Vector_4" d="M8.59277 12.1733C8.03277 12.1733 7.59277 11.7233 7.59277 11.1733C7.59277 10.6233 8.04277 10.1733 8.59277 10.1733C9.14277 10.1733 9.59277 10.6233 9.59277 11.1733C9.59277 11.7233 9.15277 12.1733 8.59277 12.1733Z" fill="#00D9C8"/>
<path id="Vector_5" d="M18.5928 7.92333C17.7328 7.92333 15.7028 6.90333 15.0828 5.03333C14.8328 4.29333 14.8928 3.44333 15.2428 2.77333C15.5528 2.17333 16.0728 1.73333 16.7128 1.53333C17.3628 1.33333 18.0528 1.42333 18.5928 1.75333C19.1328 1.42333 19.8228 1.33333 20.4828 1.53333C21.1228 1.73333 21.6428 2.17333 21.9528 2.77333C22.3028 3.44333 22.3628 4.29333 22.1128 5.03333C21.4828 6.93333 19.3628 7.92333 18.5928 7.92333ZM16.5028 4.55333C16.9228 5.81333 18.3528 6.39333 18.6128 6.42333C18.9028 6.39333 20.3028 5.74333 20.6928 4.56333C20.8128 4.20333 20.7828 3.77333 20.6228 3.46333C20.4928 3.21333 20.3028 3.05333 20.0428 2.97333C19.7628 2.87333 19.3828 2.92333 19.2128 3.17333C19.0728 3.37333 18.8528 3.49333 18.6128 3.50333C18.3728 3.50333 18.1428 3.39333 17.9928 3.20333C17.7828 2.93333 17.4128 2.89333 17.1428 2.97333C16.8828 3.05333 16.6928 3.21333 16.5628 3.46333C16.4128 3.77333 16.3828 4.19333 16.5028 4.55333Z" fill="#00D9C8"/>
</g>
</g>
</g>
</svg>
