<svg width="17" height="17" viewBox="0 0 17 17" fill="none" xmlns="http://www.w3.org/2000/svg">
<g id="asicon/outline/export">
<g id="vuesax/outline/export">
<g id="export">
<path id="Vector" d="M9.10858 8.24104C8.9864 8.24104 8.86423 8.19603 8.76778 8.09958C8.58131 7.91311 8.58131 7.60446 8.76778 7.41799L14.0404 2.14535C14.2269 1.95888 14.5355 1.95888 14.722 2.14535C14.9085 2.33182 14.9085 2.64046 14.722 2.82693L9.44937 8.09958C9.35292 8.19603 9.23075 8.24104 9.10858 8.24104Z" fill="white"/>
<path id="Vector_2" d="M14.8956 5.54044C14.632 5.54044 14.4133 5.32181 14.4133 5.05818V2.45401H11.8092C11.5455 2.45401 11.3269 2.23539 11.3269 1.97176C11.3269 1.70812 11.5455 1.4895 11.8092 1.4895H14.8956C15.1592 1.4895 15.3778 1.70812 15.3778 1.97176V5.05818C15.3778 5.32181 15.1592 5.54044 14.8956 5.54044Z" fill="white"/>
<path id="Vector_3" d="M10.3945 15.3141H6.53651C3.045 15.3141 1.55322 13.8223 1.55322 10.3308V6.47279C1.55322 2.98127 3.045 1.4895 6.53651 1.4895H7.82253C8.08616 1.4895 8.30478 1.70812 8.30478 1.97176C8.30478 2.23539 8.08616 2.45401 7.82253 2.45401H6.53651C3.57226 2.45401 2.51773 3.50854 2.51773 6.47279V10.3308C2.51773 13.2951 3.57226 14.3496 6.53651 14.3496H10.3945C13.3588 14.3496 14.4133 13.2951 14.4133 10.3308V9.04482C14.4133 8.78118 14.632 8.56256 14.8956 8.56256C15.1592 8.56256 15.3778 8.78118 15.3778 9.04482V10.3308C15.3778 13.8223 13.8861 15.3141 10.3945 15.3141Z" fill="white"/>
</g>
</g>
</g>
</svg>
