<svg width="21" height="22" viewBox="0 0 21 22" fill="none" xmlns="http://www.w3.org/2000/svg">
<path d="M14.7292 3.65234H6.18748C3.62497 3.65234 1.91663 4.9336 1.91663 7.9232V13.9024C1.91663 16.892 3.62497 18.1733 6.18748 18.1733H14.7292C17.2917 18.1733 19.0001 16.892 19.0001 13.9024V7.9232C19.0001 4.9336 17.2917 3.65234 14.7292 3.65234ZM15.1307 8.85425L12.4571 10.9897C11.8934 11.4424 11.1758 11.6645 10.4583 11.6645C9.74084 11.6645 9.01479 11.4424 8.45958 10.9897L5.78602 8.85425C5.51269 8.63217 5.46998 8.22216 5.68352 7.94883C5.90561 7.67549 6.30707 7.62424 6.5804 7.84633L9.25396 9.98176C9.90313 10.5028 11.005 10.5028 11.6542 9.98176L14.3277 7.84633C14.6011 7.62424 15.0111 7.66695 15.2246 7.94883C15.4467 8.22216 15.404 8.63217 15.1307 8.85425Z" fill="#00D9C8"/>
</svg>
