<svg width="17" height="17" viewBox="0 0 17 17" fill="none" xmlns="http://www.w3.org/2000/svg">
<path d="M15.7208 6.19162L11.4038 5.56362L9.4768 1.65262C9.29045 1.33203 8.94762 1.13477 8.5768 1.13477C8.20598 1.13477 7.86315 1.33203 7.6768 1.65262L5.7498 5.56462L1.4328 6.19162C1.05567 6.24571 0.742042 6.50939 0.623987 6.87162C0.505932 7.23386 0.603963 7.6317 0.876799 7.89762L3.9998 10.9426L3.2628 15.2426C3.19852 15.6178 3.35278 15.9969 3.66073 16.2206C3.96867 16.4443 4.37691 16.4737 4.7138 16.2966L8.5768 14.2656L12.4378 16.2946C12.7747 16.4717 13.1829 16.4423 13.4909 16.2186C13.7988 15.9949 13.9531 15.6158 13.8888 15.2406L13.1518 10.9406L16.2768 7.89762C16.5489 7.63191 16.6468 7.23482 16.5293 6.87309C16.4117 6.51136 16.0991 6.24762 15.7228 6.19262L15.7208 6.19162Z" fill="#FFDD40"/>
</svg>
