<svg width="21" height="21" viewBox="0 0 21 21" fill="none" xmlns="http://www.w3.org/2000/svg">
<path d="M6.94974 5.42093C6.61021 5.42093 6.32864 5.13937 6.32864 4.79983V2.31544C6.32864 1.9759 6.61021 1.69434 6.94974 1.69434C7.28928 1.69434 7.57084 1.9759 7.57084 2.31544V4.79983C7.57084 5.13937 7.28928 5.42093 6.94974 5.42093Z" fill="#8E9AA0"/>
<path d="M13.5748 5.42093C13.2353 5.42093 12.9537 5.13937 12.9537 4.79983V2.31544C12.9537 1.9759 13.2353 1.69434 13.5748 1.69434C13.9143 1.69434 14.1959 1.9759 14.1959 2.31544V4.79983C14.1959 5.13937 13.9143 5.42093 13.5748 5.42093Z" fill="#8E9AA0"/>
<path d="M7.36381 12.667C7.25615 12.667 7.14849 12.6422 7.04911 12.6008C6.94146 12.5594 6.85865 12.5014 6.77584 12.4269C6.62678 12.2695 6.53568 12.0542 6.53568 11.8389C6.53568 11.6236 6.62678 11.4083 6.77584 11.2509C6.85865 11.1764 6.94974 11.1184 7.04911 11.077C7.24786 10.9942 7.47975 10.9942 7.6785 11.077C7.77788 11.1184 7.86896 11.1764 7.95177 11.2509C7.9849 11.2923 8.0263 11.3337 8.05115 11.3751C8.08427 11.4248 8.10914 11.4745 8.1257 11.5242C8.15054 11.5739 8.16711 11.6236 8.17539 11.6733C8.18367 11.7312 8.19194 11.7892 8.19194 11.8389C8.19194 12.0542 8.10084 12.2695 7.95177 12.4269C7.86896 12.5014 7.77788 12.5594 7.6785 12.6008C7.57913 12.6422 7.47146 12.667 7.36381 12.667Z" fill="#8E9AA0"/>
<path d="M10.2623 12.6671C10.1546 12.6671 10.047 12.6423 9.94758 12.6009C9.83992 12.5595 9.75712 12.5015 9.67431 12.427C9.52524 12.2696 9.43414 12.0543 9.43414 11.839C9.43414 11.7893 9.44242 11.7313 9.4507 11.6734C9.45898 11.6237 9.47554 11.574 9.50038 11.5243C9.51695 11.4746 9.54181 11.4249 9.57494 11.3753C9.60806 11.3339 9.64118 11.2925 9.67431 11.251C9.98072 10.9446 10.5356 10.9446 10.8502 11.251C10.8834 11.2925 10.9165 11.3339 10.9496 11.3753C10.9827 11.4249 11.0076 11.4746 11.0242 11.5243C11.049 11.574 11.0656 11.6237 11.0739 11.6734C11.0821 11.7313 11.0904 11.7893 11.0904 11.839C11.0904 12.0543 10.9993 12.2696 10.8502 12.427C10.6929 12.576 10.4859 12.6671 10.2623 12.6671Z" fill="#8E9AA0"/>
<path d="M7.36381 15.5655C7.25615 15.5655 7.14849 15.5406 7.04911 15.4992C6.94974 15.4578 6.85865 15.3998 6.77584 15.3253C6.62678 15.168 6.53568 14.9526 6.53568 14.7373C6.53568 14.6876 6.54395 14.6297 6.55223 14.58C6.56051 14.522 6.57707 14.4723 6.60191 14.4226C6.61848 14.373 6.64334 14.3233 6.67647 14.2736C6.70131 14.2322 6.74272 14.1908 6.77584 14.1494C6.85865 14.0748 6.94974 14.0168 7.04911 13.9754C7.24786 13.8926 7.47975 13.8926 7.6785 13.9754C7.77788 14.0168 7.86896 14.0748 7.95177 14.1494C7.9849 14.1908 8.0263 14.2322 8.05115 14.2736C8.08427 14.3233 8.10914 14.373 8.1257 14.4226C8.15054 14.4723 8.16711 14.522 8.17539 14.58C8.18367 14.6297 8.19194 14.6876 8.19194 14.7373C8.19194 14.9526 8.10084 15.168 7.95177 15.3253C7.86896 15.3998 7.77788 15.4578 7.6785 15.4992C7.57913 15.5406 7.47146 15.5655 7.36381 15.5655Z" fill="#8E9AA0"/>
<path d="M17.3014 8.80787H3.22315C2.88362 8.80787 2.60205 8.52631 2.60205 8.18677C2.60205 7.84724 2.88362 7.56567 3.22315 7.56567H17.3014C17.6409 7.56567 17.9225 7.84724 17.9225 8.18677C17.9225 8.52631 17.6409 8.80787 17.3014 8.80787Z" fill="#8E9AA0"/>
<path d="M13.4258 19.524C13.1111 19.524 12.813 19.4081 12.5977 19.1928C12.3409 18.936 12.225 18.5634 12.283 18.1741L12.4403 17.0562C12.4817 16.7663 12.6556 16.4185 12.8627 16.2115L15.7942 13.2799C16.1917 12.8824 16.581 12.6753 17.0033 12.6339C17.525 12.5843 18.0302 12.7996 18.5105 13.2799C19.0157 13.785 19.6947 14.8119 18.5105 15.9962L15.5789 18.9278C15.3719 19.1348 15.0241 19.3087 14.7342 19.3501L13.6162 19.5075C13.55 19.5157 13.492 19.524 13.4258 19.524ZM17.1441 13.8679C17.1358 13.8679 17.1275 13.8679 17.1193 13.8679C17.0033 13.8762 16.846 13.9838 16.6721 14.1577L13.7405 17.0893C13.7156 17.1141 13.6742 17.197 13.6742 17.2301L13.5252 18.2653L14.5603 18.1162C14.5934 18.1079 14.6762 18.0665 14.7011 18.0416L17.6327 15.1101C17.9971 14.7457 18.0468 14.5635 17.6327 14.1494C17.5002 14.0252 17.3097 13.8679 17.1441 13.8679Z" fill="#8E9AA0"/>
<path d="M17.6493 16.6008C17.5913 16.6008 17.5334 16.5925 17.4837 16.5759C16.3905 16.2695 15.521 15.4 15.2146 14.3068C15.1235 13.9756 15.314 13.636 15.6452 13.5367C15.9765 13.4456 16.316 13.636 16.4154 13.9673C16.6058 14.6464 17.1441 15.1846 17.8232 15.3751C18.1545 15.4662 18.3449 15.814 18.2538 16.1453C18.171 16.4186 17.9226 16.6008 17.6493 16.6008Z" fill="#8E9AA0"/>
<path d="M10.2623 19.4992H6.94975C3.92707 19.4992 2.18799 17.7601 2.18799 14.7374V7.69829C2.18799 4.6756 3.92707 2.93652 6.94975 2.93652H13.5748C16.5975 2.93652 18.3366 4.6756 18.3366 7.69829V10.5967C18.3366 10.9363 18.055 11.2178 17.7155 11.2178C17.3759 11.2178 17.0944 10.9363 17.0944 10.5967V7.69829C17.0944 5.32983 15.9433 4.17872 13.5748 4.17872H6.94975C4.58129 4.17872 3.43019 5.32983 3.43019 7.69829V14.7374C3.43019 17.1059 4.58129 18.257 6.94975 18.257H10.2623C10.6018 18.257 10.8834 18.5385 10.8834 18.8781C10.8834 19.2176 10.6018 19.4992 10.2623 19.4992Z" fill="#8E9AA0"/>
</svg>
