<svg width="42" height="42" viewBox="0 0 42 42" fill="none" xmlns="http://www.w3.org/2000/svg">
<path d="M17.1641 28.817C16.4487 30.3731 16.2161 32.1081 15.608 33.7C15.2545 35.0237 14.0303 34.6785 13.2291 33.9325C8.3531 28.4991 4.6595 15.3271 10.4388 9.21339C13.3931 5.92612 16.1992 10.5322 21.269 10.5322C26.3388 10.5322 29.1822 5.95649 32.1172 9.21339C37.8991 15.3741 34.0996 28.494 29.2017 33.9325C28.4476 34.747 27.1457 34.9884 26.8049 33.7C26.1968 32.1081 25.9822 30.3731 25.2667 28.817C23.6743 24.984 18.8048 25.1344 17.1641 28.817Z" stroke="#00AEA0" stroke-width="1.68994" stroke-miterlimit="10"/>
<path d="M29.7187 11.0913C31.4087 11.9363 31.4087 13.6262 31.4087 14.4712" stroke="#00AEA0" stroke-width="1.68994" stroke-linecap="round"/>
</svg>
