<svg width="19" height="19" viewBox="0 0 19 19" fill="none" xmlns="http://www.w3.org/2000/svg">
<g clip-path="url(#clip0_62_12634)">
<path d="M16.3896 6.07131C16.3967 6.23327 16.3967 6.38786 16.3967 6.54982C16.4038 11.4601 12.7962 17.1287 6.19875 17.1287C4.2529 17.1287 2.34256 16.5471 0.702087 15.4576C0.986152 15.4944 1.27022 15.5091 1.55428 15.5091C3.16635 15.5091 4.73581 14.9496 6.007 13.9116C4.47305 13.8822 3.12374 12.8442 2.65503 11.3276C3.19476 11.4381 3.74868 11.416 4.27421 11.2614C2.60532 10.9227 1.40515 9.39884 1.39805 7.62465C1.39805 7.60992 1.39805 7.5952 1.39805 7.58048C1.89516 7.86759 2.45619 8.02954 3.02432 8.04427C1.45486 6.95472 0.964848 4.78299 1.91647 3.08242C3.74158 5.40875 6.426 6.81485 9.30926 6.96945C9.01809 5.68113 9.41578 4.32656 10.3461 3.4137C11.7877 2.0076 14.0602 2.08122 15.4238 3.57566C16.2262 3.4137 17.0003 3.10451 17.7034 2.67016C17.4335 3.53149 16.8725 4.26031 16.1268 4.7241C16.837 4.63576 17.5329 4.43699 18.1863 4.14252C17.7034 4.89342 17.0926 5.54126 16.3896 6.07131Z" fill="#6F6F6F"/>
</g>
<defs>
<clipPath id="clip0_62_12634">
<rect x="0.242004" y="0.56488" width="18.4044" height="18.4044" rx="4.60111" fill="white"/>
</clipPath>
</defs>
</svg>
