<svg width="66" height="67" viewBox="0 0 66 67" fill="none" xmlns="http://www.w3.org/2000/svg">
<path d="M42.2182 15.1658L46.0523 22.834C46.5689 23.8945 47.9557 24.9006 49.125 25.1182L56.0591 26.2602C60.4914 26.9944 61.5247 30.2031 58.3432 33.4118L52.9319 38.8231C52.0346 39.7204 51.518 41.4879 51.8171 42.7659L53.367 49.4552C54.5906 54.7305 51.7627 56.7971 47.1128 54.0235L40.6138 50.1622C39.4446 49.4552 37.4868 49.4552 36.3175 50.1622L29.8185 54.0235C25.1686 56.7699 22.3407 54.7305 23.5643 49.4552L25.1143 42.7659C25.4134 41.5151 24.8968 39.7476 23.9994 38.8231L18.5882 33.4118C15.4067 30.2303 16.44 27.0216 20.8723 26.2602L27.8063 25.1182C28.9756 24.9278 30.3624 23.8945 30.879 22.834L34.7132 15.1658C36.7526 11.0054 40.1244 11.0054 42.2182 15.1658Z" stroke="#00413C" stroke-width="4.07884" stroke-linecap="round" stroke-linejoin="round"/>
<path opacity="0.4" d="M22.1231 14.5947H5.80777" stroke="#00413C" stroke-width="4.07884" stroke-linecap="round" stroke-linejoin="round"/>
<path opacity="0.4" d="M13.9654 52.6639H5.80777" stroke="#00413C" stroke-width="4.07884" stroke-linecap="round" stroke-linejoin="round"/>
<path opacity="0.4" d="M8.52699 33.6294H5.80777" stroke="#00413C" stroke-width="4.07884" stroke-linecap="round" stroke-linejoin="round"/>
</svg>
