<svg width="25" height="24" viewBox="0 0 25 24" fill="none" xmlns="http://www.w3.org/2000/svg">
<path d="M7.8823 20.9098C7.8523 20.9098 7.8123 20.9298 7.7823 20.9298C5.8423 19.9698 4.2623 18.3798 3.2923 16.4398C3.2923 16.4098 3.3123 16.3698 3.3123 16.3398C4.5323 16.6998 5.7923 16.9698 7.0423 17.1798C7.2623 18.4398 7.5223 19.6898 7.8823 20.9098Z" fill="#667372"/>
<path d="M21.1723 16.4498C20.1823 18.4398 18.5323 20.0498 16.5223 21.0198C16.9023 19.7498 17.2223 18.4698 17.4323 17.1798C18.6923 16.9698 19.9323 16.6998 21.1523 16.3398C21.1423 16.3798 21.1723 16.4198 21.1723 16.4498Z" fill="#667372"/>
<path d="M21.2523 7.70998C19.9923 7.32998 18.7223 7.01998 17.4323 6.79998C17.2223 5.50998 16.9123 4.22998 16.5223 2.97998C18.5923 3.96998 20.2623 5.63998 21.2523 7.70998Z" fill="#667372"/>
<path d="M7.88231 3.09006C7.52231 4.31006 7.26231 5.55006 7.05231 6.81006C5.76231 7.01006 4.48231 7.33006 3.21231 7.71006C4.18231 5.70006 5.79231 4.05006 7.78231 3.06006C7.81231 3.06006 7.85231 3.09006 7.88231 3.09006Z" fill="#667372"/>
<path d="M15.7223 6.59C13.4023 6.33 11.0623 6.33 8.74231 6.59C8.99231 5.22 9.31231 3.85 9.76231 2.53C9.78231 2.45 9.77231 2.39 9.78231 2.31C10.5723 2.12 11.3823 2 12.2323 2C13.0723 2 13.8923 2.12 14.6723 2.31C14.6823 2.39 14.6823 2.45 14.7023 2.53C15.1523 3.86 15.4723 5.22 15.7223 6.59Z" fill="#667372"/>
<path d="M6.8223 15.4898C5.4423 15.2398 4.0823 14.9198 2.7623 14.4698C2.6823 14.4498 2.6223 14.4598 2.5423 14.4498C2.3523 13.6598 2.2323 12.8498 2.2323 11.9998C2.2323 11.1598 2.3523 10.3398 2.5423 9.55977C2.6223 9.54977 2.6823 9.54977 2.7623 9.52977C4.0923 9.08977 5.4423 8.75977 6.8223 8.50977C6.5723 10.8298 6.5723 13.1698 6.8223 15.4898Z" fill="#667372"/>
<path d="M22.2323 11.9998C22.2323 12.8498 22.1123 13.6598 21.9223 14.4498C21.8423 14.4598 21.7823 14.4498 21.7023 14.4698C20.3723 14.9098 19.0123 15.2398 17.6423 15.4898C17.9023 13.1698 17.9023 10.8298 17.6423 8.50977C19.0123 8.75977 20.3823 9.07977 21.7023 9.52977C21.7823 9.54977 21.8423 9.55977 21.9223 9.55977C22.1123 10.3498 22.2323 11.1598 22.2323 11.9998Z" fill="#667372"/>
<path d="M15.7223 17.4102C15.4723 18.7902 15.1523 20.1502 14.7023 21.4702C14.6823 21.5502 14.6823 21.6102 14.6723 21.6902C13.8923 21.8802 13.0723 22.0002 12.2323 22.0002C11.3823 22.0002 10.5723 21.8802 9.78231 21.6902C9.77231 21.6102 9.78231 21.5502 9.76231 21.4702C9.32231 20.1402 8.99231 18.7902 8.74231 17.4102C9.90231 17.5402 11.0623 17.6302 12.2323 17.6302C13.4023 17.6302 14.5723 17.5402 15.7223 17.4102Z" fill="#667372"/>
<path d="M15.9956 15.7633C13.4945 16.0789 10.9701 16.0789 8.46897 15.7633C8.15341 13.2622 8.15341 10.7378 8.46897 8.23667C10.9701 7.92111 13.4945 7.92111 15.9956 8.23667C16.3112 10.7378 16.3112 13.2622 15.9956 15.7633Z" fill="#667372"/>
</svg>
