<svg width="25" height="25" viewBox="0 0 25 25" fill="none" xmlns="http://www.w3.org/2000/svg">
<path d="M12.9999 22.22C18.6499 22.22 23.2499 17.62 23.2499 11.97C23.2499 6.31997 18.6499 1.71997 12.9999 1.71997C7.34988 1.71997 2.74988 6.31997 2.74988 11.97C2.74988 17.62 7.34988 22.22 12.9999 22.22ZM12.9999 3.21997C17.8299 3.21997 21.7499 7.14997 21.7499 11.97C21.7499 16.79 17.8299 20.72 12.9999 20.72C8.16988 20.72 4.24988 16.79 4.24988 11.97C4.24988 7.14997 8.16988 3.21997 12.9999 3.21997Z" fill="#667372"/>
<path d="M2.49987 23.2199C2.68987 23.2199 2.87988 23.1499 3.02988 22.9999L5.02988 20.9999C5.31988 20.7099 5.31988 20.2299 5.02988 19.9399C4.73988 19.6499 4.25987 19.6499 3.96987 19.9399L1.96987 21.9399C1.67987 22.2299 1.67987 22.7099 1.96987 22.9999C2.11987 23.1499 2.30987 23.2199 2.49987 23.2199Z" fill="#667372"/>
</svg>
