<svg width="34" height="34" viewBox="0 0 34 34" fill="none" xmlns="http://www.w3.org/2000/svg">
<path d="M10.8602 21.5138C10.6992 21.413 10.5753 21.2529 10.5277 21.0461L8.60349 12.6803C8.51156 12.2806 8.76625 11.8738 9.16594 11.7818L17.5318 9.85761C17.9315 9.76567 18.3383 10.0204 18.4302 10.4201C18.5222 10.8197 18.2675 11.2266 17.8678 11.3185L10.2324 13.0747L11.9886 20.7101C12.0806 21.1098 11.8259 21.5167 11.4262 21.6086C11.2279 21.6614 11.0213 21.6146 10.8602 21.5138Z" fill="#00C3B4"/>
<path d="M23.3455 22.1684L9.08009 13.2382C8.73256 13.0207 8.62478 12.5521 8.84233 12.2046C9.05988 11.857 9.52848 11.7493 9.876 11.9668L24.1414 20.897C24.4889 21.1145 24.5967 21.5831 24.3791 21.9306C24.1616 22.2782 23.693 22.386 23.3455 22.1684Z" fill="#00C3B4"/>
</svg>
