<svg width="34" height="34" viewBox="0 0 34 34" fill="none" xmlns="http://www.w3.org/2000/svg">
<path d="M11.0437 21.5138C10.8827 21.413 10.7588 21.2529 10.7112 21.0461L8.78701 12.6803C8.69508 12.2806 8.94977 11.8738 9.34946 11.7818L17.7153 9.85761C18.115 9.76567 18.5218 10.0204 18.6138 10.4201C18.7057 10.8197 18.451 11.2266 18.0513 11.3185L10.4159 13.0747L12.1722 20.7101C12.2641 21.1098 12.0094 21.5167 11.6097 21.6086C11.4114 21.6614 11.2048 21.6146 11.0437 21.5138Z" fill="#00C3B4"/>
<path d="M23.529 22.1684L9.26362 13.2382C8.9161 13.0207 8.80832 12.5521 9.02587 12.2046C9.24342 11.857 9.71202 11.7493 10.0595 11.9668L24.3249 20.897C24.6724 21.1145 24.7802 21.5831 24.5627 21.9306C24.3451 22.2782 23.8765 22.386 23.529 22.1684Z" fill="#00C3B4"/>
</svg>
