<svg width="34" height="34" viewBox="0 0 34 34" fill="none" xmlns="http://www.w3.org/2000/svg">
<path d="M11.6767 21.5138C11.5156 21.413 11.3917 21.2529 11.3442 21.0461L9.41994 12.6803C9.32801 12.2806 9.5827 11.8738 9.98239 11.7818L18.3482 9.85761C18.7479 9.76567 19.1548 10.0204 19.2467 10.4201C19.3386 10.8197 19.0839 11.2266 18.6842 11.3185L11.0489 13.0747L12.8051 20.7101C12.897 21.1098 12.6423 21.5167 12.2426 21.6086C12.0444 21.6614 11.8377 21.6146 11.6767 21.5138Z" fill="#00C3B4"/>
<path d="M24.1619 22.1684L9.89656 13.2382C9.54904 13.0207 9.44125 12.5521 9.6588 12.2046C9.87636 11.857 10.345 11.7493 10.6925 11.9668L24.9578 20.897C25.3054 21.1145 25.4132 21.5831 25.1956 21.9306C24.9781 22.2782 24.5095 22.386 24.1619 22.1684Z" fill="#00C3B4"/>
</svg>
