<svg width="25" height="25" viewBox="0 0 25 25" fill="none" xmlns="http://www.w3.org/2000/svg">
<g id="asicon/outline/wallet">
<g id="vuesax/outline/wallet">
<g id="wallet">
<path id="Vector" d="M17.8755 23.2952H7.87549C4.43549 23.2952 2.12549 20.9852 2.12549 17.5452V12.5452C2.12549 9.46517 4.02549 7.23517 6.97549 6.86517C7.25549 6.82517 7.56549 6.79517 7.87549 6.79517H17.8755C18.1155 6.79517 18.4255 6.80516 18.7455 6.85516C21.6955 7.19516 23.6255 9.43517 23.6255 12.5452V17.5452C23.6255 20.9852 21.3155 23.2952 17.8755 23.2952ZM7.87549 8.29517C7.63549 8.29517 7.40549 8.31515 7.17549 8.34515C4.97549 8.62515 3.62549 10.2252 3.62549 12.5452V17.5452C3.62549 20.1252 5.29549 21.7952 7.87549 21.7952H17.8755C20.4555 21.7952 22.1255 20.1252 22.1255 17.5452V12.5452C22.1255 10.2052 20.7555 8.59517 18.5355 8.33517C18.2955 8.29517 18.0855 8.29517 17.8755 8.29517H7.87549Z" fill="white"/>
<path id="Vector_2" d="M7.06554 8.35511C6.82554 8.35511 6.60554 8.24512 6.45554 8.04512C6.28554 7.81512 6.26554 7.51512 6.39554 7.26512C6.56554 6.92512 6.80553 6.59512 7.11553 6.29512L10.3655 3.03511C12.0255 1.38511 14.7255 1.38511 16.3855 3.03511L18.1355 4.80513C18.8755 5.53513 19.3255 6.51513 19.3755 7.55513C19.3855 7.78513 19.2955 8.0051 19.1255 8.1551C18.9555 8.3051 18.7255 8.37513 18.5055 8.33513C18.3055 8.30513 18.0955 8.29512 17.8755 8.29512H7.87554C7.63554 8.29512 7.40554 8.31511 7.17554 8.34511C7.14554 8.35511 7.10554 8.35511 7.06554 8.35511ZM8.73554 6.79512H17.6955C17.5655 6.45512 17.3555 6.14512 17.0755 5.86512L15.3155 4.08513C14.2455 3.02513 12.4955 3.02513 11.4155 4.08513L8.73554 6.79512Z" fill="white"/>
<path id="Vector_3" d="M22.8755 17.7952H19.8755C18.3555 17.7952 17.1255 16.5652 17.1255 15.0452C17.1255 13.5252 18.3555 12.2952 19.8755 12.2952H22.8755C23.2855 12.2952 23.6255 12.6352 23.6255 13.0452C23.6255 13.4552 23.2855 13.7952 22.8755 13.7952H19.8755C19.1855 13.7952 18.6255 14.3552 18.6255 15.0452C18.6255 15.7352 19.1855 16.2952 19.8755 16.2952H22.8755C23.2855 16.2952 23.6255 16.6352 23.6255 17.0452C23.6255 17.4552 23.2855 17.7952 22.8755 17.7952Z" fill="white"/>
</g>
</g>
</g>
</svg>
